{"glyphs":{"0":{"ha":663,"x_min":51,"x_max":611,"o":"m 333 -18 q 188 19 251 -18 q 88 122 124 57 q 51 272 51 188 q 88 419 51 356 q 188 518 124 482 q 335 554 253 554 q 478 517 417 554 q 576 416 540 481 q 611 268 611 351 q 576 120 611 185 q 478 19 540 56 q 333 -18 415 -18 m 349 -1 q 484 69 440 -1 q 528 251 528 140 q 499 413 528 350 q 422 507 469 476 q 319 538 375 538 q 182 465 231 538 q 133 283 133 393 q 160 138 133 203 q 235 36 186 74 q 349 -1 283 -1 z "},"1":{"ha":461,"x_min":68,"x_max":429,"o":"m 81 0 q 78 8 78 0 q 81 17 78 17 q 169 24 139 17 q 210 51 200 31 q 221 113 221 72 l 221 374 q 213 455 221 432 q 174 472 204 478 q 81 438 144 467 q 72 442 75 435 q 74 451 68 450 l 272 549 q 282 547 278 551 q 286 539 286 543 l 286 113 q 296 51 286 72 q 335 24 306 31 q 425 17 365 17 q 429 8 429 17 q 425 0 429 0 q 347 1 390 0 q 253 3 303 3 q 161 1 206 3 q 81 0 117 0 z "},"2":{"ha":558,"x_min":47,"x_max":517,"o":"m 51 17 q 203 141 142 86 q 303 240 265 196 q 358 322 340 283 q 375 400 375 361 q 338 493 375 460 q 247 526 301 526 q 151 485 192 526 q 86 358 110 443 q 76 357 85 356 q 69 363 68 358 l 122 567 q 132 569 124 571 q 138 564 140 567 q 140 535 132 542 q 157 528 147 528 q 213 541 178 528 q 297 554 249 554 q 408 515 368 554 q 449 415 449 476 q 433 345 449 381 q 382 269 417 310 q 290 180 347 229 q 150 67 233 131 q 147 60 144 63 q 156 57 150 57 q 329 59 264 57 q 428 69 394 61 q 477 98 463 78 q 500 153 492 118 q 509 155 501 156 q 517 151 517 154 l 497 15 q 494 5 497 10 q 485 0 490 0 q 276 0 386 0 q 61 0 165 0 q 51 6 56 0 q 51 17 47 11 z "},"3":{"ha":539,"x_min":46,"x_max":479,"o":"m 83 -382 q 74 -376 78 -383 q 76 -367 71 -368 q 232 -299 171 -339 q 328 -210 293 -258 q 378 -115 364 -162 q 393 -26 393 -68 q 378 58 393 17 q 330 125 364 99 q 236 151 296 151 q 202 150 219 151 q 165 143 185 149 q 158 150 161 142 q 161 160 156 158 q 319 240 276 189 q 363 372 363 290 q 332 483 363 440 q 232 526 301 526 q 130 488 172 526 q 64 358 88 449 q 54 357 63 356 q 47 363 46 358 l 99 565 q 109 567 101 569 q 115 563 117 565 q 118 531 110 539 q 136 524 126 524 q 192 539 157 524 q 278 554 228 554 q 398 506 357 554 q 439 396 439 457 q 415 297 439 344 q 348 213 392 249 q 243 165 304 178 l 268 182 q 387 154 340 182 q 456 82 433 126 q 479 -11 479 38 q 438 -149 479 -76 q 308 -283 396 -221 q 83 -382 221 -344 z "},"4":{"ha":625,"x_min":24,"x_max":579,"o":"m 39 11 q 28 17 33 11 q 29 28 24 22 l 428 550 q 440 553 431 554 q 449 544 449 551 l 449 -219 q 438 -239 449 -235 l 393 -261 q 381 -253 381 -268 l 381 451 l 408 469 l 96 61 q 94 54 92 57 q 103 51 97 51 q 245 52 183 51 q 358 54 307 53 q 461 57 410 56 q 572 60 513 58 q 578 45 576 60 q 578 16 579 31 q 572 1 576 1 q 463 6 517 4 q 350 9 410 8 q 215 10 290 10 q 39 11 139 11 z "},"5":{"ha":568,"x_min":78,"x_max":496,"o":"m 108 272 q 327 239 244 272 q 447 147 410 206 q 485 13 485 89 q 444 -131 485 -67 q 319 -256 404 -196 q 94 -382 233 -317 q 85 -376 89 -383 q 86 -367 81 -369 q 281 -248 211 -307 q 378 -130 350 -189 q 406 -11 406 -71 q 326 167 406 103 q 94 232 247 232 q 81 249 78 232 l 125 496 q 129 508 126 506 q 143 511 132 510 q 329 534 263 525 q 426 549 396 543 q 466 565 457 556 q 479 588 475 574 q 488 591 481 592 q 494 585 496 590 l 467 496 q 453 474 461 478 q 428 471 444 471 l 165 465 q 144 444 147 465 l 108 239 l 108 272 z "},"6":{"ha":646,"x_min":68,"x_max":594,"o":"m 411 392 q 519 367 479 392 q 576 303 558 342 q 594 221 594 264 q 557 101 594 156 q 458 14 519 46 q 319 -18 396 -18 q 136 62 204 -18 q 68 289 68 142 q 126 542 68 418 q 293 766 183 667 q 556 918 403 865 q 564 913 561 919 q 563 903 567 906 q 331 744 424 842 q 191 533 238 646 q 144 314 144 421 q 169 160 144 229 q 242 49 194 90 q 358 7 290 7 q 474 54 429 7 q 518 185 518 101 q 483 307 518 257 q 371 357 447 357 q 298 340 332 357 q 222 286 264 324 q 213 287 219 282 q 208 296 206 292 q 297 367 246 343 q 411 392 349 392 z "},"7":{"ha":596,"x_min":35,"x_max":546,"o":"m 221 -306 q 208 -326 215 -319 q 192 -339 201 -332 l 133 -382 q 127 -379 132 -383 q 124 -372 122 -375 l 496 469 q 489 479 500 479 q 294 478 371 479 q 172 471 217 476 q 103 455 126 465 q 70 428 81 444 q 51 385 60 411 q 42 382 50 381 q 36 389 35 383 l 81 574 q 91 576 83 576 q 97 572 99 575 q 104 542 92 549 q 163 536 117 536 q 226 536 183 536 q 324 536 269 536 q 433 536 378 536 q 531 536 488 536 q 542 530 538 536 q 543 518 546 524 l 221 -306 z "},"8":{"ha":679,"x_min":68,"x_max":626,"o":"m 379 471 q 448 544 425 507 q 471 629 471 582 q 431 736 471 696 q 328 776 390 776 q 244 749 279 776 q 210 671 210 722 q 236 593 210 626 q 306 534 263 560 q 396 482 349 508 q 506 419 453 453 q 592 340 558 386 q 626 224 626 293 q 587 99 626 154 q 481 13 547 44 q 336 -18 415 -18 q 194 14 254 -18 q 101 97 133 46 q 68 207 68 149 q 105 335 68 276 q 198 438 142 394 q 310 500 254 481 l 318 489 q 191 390 236 454 q 146 243 146 325 q 175 128 146 182 q 256 40 204 74 q 375 6 307 6 q 468 26 426 6 q 534 87 510 47 q 558 183 558 126 q 524 303 558 256 q 438 384 490 351 q 329 444 385 417 q 240 497 282 471 q 171 555 197 522 q 144 633 144 588 q 179 725 144 689 q 265 779 214 761 q 361 797 315 797 q 457 775 417 797 q 519 719 497 753 q 540 651 540 686 q 500 554 540 603 q 386 463 460 506 l 379 471 z "},"9":{"ha":646,"x_min":51,"x_max":578,"o":"m 250 153 q 134 182 178 153 q 71 254 90 211 q 51 339 51 297 q 85 451 51 403 q 176 526 119 499 q 303 554 233 554 q 449 513 388 554 q 544 399 510 472 q 578 228 578 325 q 545 41 578 135 q 450 -135 513 -53 q 297 -282 388 -218 q 90 -382 206 -346 q 83 -376 86 -383 q 85 -367 79 -369 q 267 -260 189 -325 q 398 -118 346 -196 q 476 42 450 -40 q 501 200 501 124 q 490 307 501 250 q 451 415 478 364 q 383 497 425 465 q 279 529 340 529 q 169 486 211 529 q 128 364 128 443 q 168 240 128 293 q 289 188 208 188 q 358 200 329 188 q 424 242 388 213 q 435 241 428 246 q 439 232 442 236 q 250 153 368 153 z "},"A":{"ha":969,"x_min":-3,"x_max":969,"o":"m 294 471 l 315 497 l 601 497 l 611 471 l 294 471 m 964 17 q 969 8 969 17 q 964 0 969 0 q 884 3 925 0 q 806 6 843 6 q 731 3 763 6 q 663 0 700 0 q 657 8 657 0 q 663 17 657 17 q 760 38 740 17 q 754 117 781 58 l 440 792 l 467 815 l 199 171 q 193 51 164 86 q 317 17 222 17 q 324 8 324 17 q 317 0 324 0 q 240 3 275 0 q 153 6 206 6 q 74 3 104 6 q 3 0 44 0 q -3 8 -3 0 q 3 17 -3 17 q 68 31 40 17 q 120 81 96 44 q 172 183 144 117 l 463 882 q 472 886 465 886 q 479 882 478 886 l 801 190 q 858 83 833 121 q 908 31 883 44 q 964 17 933 17 z "},"Á":{"ha":969,"x_min":-3,"x_max":969,"o":"m 294 471 l 315 497 l 601 497 l 611 471 l 294 471 m 964 17 q 969 8 969 17 q 964 0 969 0 q 884 3 925 0 q 806 6 843 6 q 731 3 763 6 q 663 0 700 0 q 657 8 657 0 q 663 17 657 17 q 760 38 740 17 q 754 117 781 58 l 440 792 l 467 815 l 199 171 q 193 51 164 86 q 317 17 222 17 q 324 8 324 17 q 317 0 324 0 q 240 3 275 0 q 153 6 206 6 q 74 3 104 6 q 3 0 44 0 q -3 8 -3 0 q 3 17 -3 17 q 68 31 40 17 q 120 81 96 44 q 172 183 144 117 l 463 882 q 472 886 465 886 q 479 882 478 886 l 801 190 q 858 83 833 121 q 908 31 883 44 q 964 17 933 17 m 335 943 q 326 948 329 940 q 328 957 324 956 q 453 1022 397 989 q 567 1086 510 1056 q 586 1084 571 1089 q 617 1072 601 1079 q 642 1058 633 1064 q 643 1050 650 1051 q 478 1001 550 1028 q 335 943 406 975 z "},"Ă":{"ha":969,"x_min":-3,"x_max":969,"o":"m 294 471 l 315 497 l 601 497 l 611 471 l 294 471 m 964 17 q 969 8 969 17 q 964 0 969 0 q 884 3 925 0 q 806 6 843 6 q 731 3 763 6 q 663 0 700 0 q 657 8 657 0 q 663 17 657 17 q 760 38 740 17 q 754 117 781 58 l 440 792 l 467 815 l 199 171 q 193 51 164 86 q 317 17 222 17 q 324 8 324 17 q 317 0 324 0 q 240 3 275 0 q 153 6 206 6 q 74 3 104 6 q 3 0 44 0 q -3 8 -3 0 q 3 17 -3 17 q 68 31 40 17 q 120 81 96 44 q 172 183 144 117 l 463 882 q 472 886 465 886 q 479 882 478 886 l 801 190 q 858 83 833 121 q 908 31 883 44 q 964 17 933 17 m 469 958 q 376 995 413 958 q 326 1100 339 1032 q 333 1106 325 1106 q 342 1104 340 1107 q 390 1035 353 1064 q 469 1006 426 1006 q 548 1035 511 1006 q 596 1104 585 1064 q 605 1106 597 1107 q 611 1100 613 1106 q 563 995 599 1032 q 469 958 526 958 z "},"Ắ":{"ha":969,"x_min":-3,"x_max":969,"o":"m 294 471 l 315 497 l 601 497 l 611 471 l 294 471 m 964 17 q 969 8 969 17 q 964 0 969 0 q 884 3 925 0 q 806 6 843 6 q 731 3 763 6 q 663 0 700 0 q 657 8 657 0 q 663 17 657 17 q 760 38 740 17 q 754 117 781 58 l 440 792 l 467 815 l 199 171 q 193 51 164 86 q 317 17 222 17 q 324 8 324 17 q 317 0 324 0 q 240 3 275 0 q 153 6 206 6 q 74 3 104 6 q 3 0 44 0 q -3 8 -3 0 q 3 17 -3 17 q 68 31 40 17 q 120 81 96 44 q 172 183 144 117 l 463 882 q 472 886 465 886 q 479 882 478 886 l 801 190 q 858 83 833 121 q 908 31 883 44 q 964 17 933 17 m 469 944 q 326 1086 353 944 q 333 1092 325 1090 q 342 1089 340 1093 q 390 1020 353 1049 q 469 992 426 992 q 548 1020 511 992 q 596 1089 585 1049 q 605 1092 597 1093 q 611 1086 613 1090 q 469 944 585 944 m 396 1068 q 387 1070 390 1065 q 386 1079 383 1075 q 446 1144 418 1111 q 499 1211 474 1178 q 512 1212 501 1214 q 535 1204 522 1210 q 559 1192 547 1199 q 576 1181 571 1186 q 575 1175 581 1176 q 479 1126 521 1153 q 396 1068 438 1100 z "},"Ặ":{"ha":969,"x_min":-3,"x_max":969,"o":"m 294 471 l 315 497 l 601 497 l 611 471 l 294 471 m 964 17 q 969 8 969 17 q 964 0 969 0 q 884 3 925 0 q 806 6 843 6 q 731 3 763 6 q 663 0 700 0 q 657 8 657 0 q 663 17 657 17 q 760 38 740 17 q 754 117 781 58 l 440 792 l 467 815 l 199 171 q 193 51 164 86 q 317 17 222 17 q 324 8 324 17 q 317 0 324 0 q 240 3 275 0 q 153 6 206 6 q 74 3 104 6 q 3 0 44 0 q -3 8 -3 0 q 3 17 -3 17 q 68 31 40 17 q 120 81 96 44 q 172 183 144 117 l 463 882 q 472 886 465 886 q 479 882 478 886 l 801 190 q 858 83 833 121 q 908 31 883 44 q 964 17 933 17 m 488 -258 q 447 -244 461 -258 q 432 -206 432 -231 q 447 -167 432 -181 q 488 -153 461 -153 q 526 -167 513 -153 q 540 -206 540 -181 q 488 -258 540 -258 m 469 958 q 376 995 413 958 q 326 1100 339 1032 q 333 1106 325 1106 q 342 1104 340 1107 q 390 1035 353 1064 q 469 1006 426 1006 q 548 1035 511 1006 q 596 1104 585 1064 q 605 1106 597 1107 q 611 1100 613 1106 q 563 995 599 1032 q 469 958 526 958 z "},"Ằ":{"ha":969,"x_min":-3,"x_max":969,"o":"m 294 471 l 315 497 l 601 497 l 611 471 l 294 471 m 964 17 q 969 8 969 17 q 964 0 969 0 q 884 3 925 0 q 806 6 843 6 q 731 3 763 6 q 663 0 700 0 q 657 8 657 0 q 663 17 657 17 q 760 38 740 17 q 754 117 781 58 l 440 792 l 467 815 l 199 171 q 193 51 164 86 q 317 17 222 17 q 324 8 324 17 q 317 0 324 0 q 240 3 275 0 q 153 6 206 6 q 74 3 104 6 q 3 0 44 0 q -3 8 -3 0 q 3 17 -3 17 q 68 31 40 17 q 120 81 96 44 q 172 183 144 117 l 463 882 q 472 886 465 886 q 479 882 478 886 l 801 190 q 858 83 833 121 q 908 31 883 44 q 964 17 933 17 m 469 944 q 326 1086 353 944 q 333 1092 325 1090 q 342 1089 340 1093 q 390 1020 353 1049 q 469 992 426 992 q 548 1020 511 992 q 596 1089 585 1049 q 605 1092 597 1093 q 611 1086 613 1090 q 469 944 585 944 m 540 1068 q 457 1126 499 1100 q 361 1175 415 1153 q 361 1181 356 1176 q 378 1192 367 1186 q 402 1204 389 1199 q 426 1212 415 1210 q 438 1211 436 1214 q 491 1145 463 1178 q 550 1081 519 1113 q 551 1070 556 1075 q 540 1068 547 1065 z "},"Ẳ":{"ha":969,"x_min":-3,"x_max":969,"o":"m 294 471 l 315 497 l 601 497 l 611 471 l 294 471 m 964 17 q 969 8 969 17 q 964 0 969 0 q 884 3 925 0 q 806 6 843 6 q 731 3 763 6 q 663 0 700 0 q 657 8 657 0 q 663 17 657 17 q 760 38 740 17 q 754 117 781 58 l 440 792 l 467 815 l 199 171 q 193 51 164 86 q 317 17 222 17 q 324 8 324 17 q 317 0 324 0 q 240 3 275 0 q 153 6 206 6 q 74 3 104 6 q 3 0 44 0 q -3 8 -3 0 q 3 17 -3 17 q 68 31 40 17 q 120 81 96 44 q 172 183 144 117 l 463 882 q 472 886 465 886 q 479 882 478 886 l 801 190 q 858 83 833 121 q 908 31 883 44 q 964 17 933 17 m 469 944 q 326 1086 353 944 q 333 1092 325 1090 q 342 1089 340 1093 q 390 1020 353 1049 q 469 992 426 992 q 548 1020 511 992 q 596 1089 585 1049 q 605 1092 597 1093 q 611 1086 613 1090 q 469 944 585 944 m 450 1006 q 452 1049 442 1029 q 476 1088 463 1068 q 490 1129 490 1107 q 474 1162 490 1151 q 442 1172 458 1172 q 407 1164 422 1172 q 399 1168 404 1163 q 397 1175 393 1174 q 442 1195 419 1189 q 481 1201 465 1201 q 528 1183 513 1201 q 544 1143 544 1164 q 531 1103 544 1121 q 499 1070 517 1086 q 471 1039 482 1054 q 465 1006 460 1024 q 460 1002 468 1003 q 450 1006 451 1001 z "},"Ẵ":{"ha":969,"x_min":-3,"x_max":969,"o":"m 294 471 l 315 497 l 601 497 l 611 471 l 294 471 m 964 17 q 969 8 969 17 q 964 0 969 0 q 884 3 925 0 q 806 6 843 6 q 731 3 763 6 q 663 0 700 0 q 657 8 657 0 q 663 17 657 17 q 760 38 740 17 q 754 117 781 58 l 440 792 l 467 815 l 199 171 q 193 51 164 86 q 317 17 222 17 q 324 8 324 17 q 317 0 324 0 q 240 3 275 0 q 153 6 206 6 q 74 3 104 6 q 3 0 44 0 q -3 8 -3 0 q 3 17 -3 17 q 68 31 40 17 q 120 81 96 44 q 172 183 144 117 l 463 882 q 472 886 465 886 q 479 882 478 886 l 801 190 q 858 83 833 121 q 908 31 883 44 q 964 17 933 17 m 474 931 q 380 967 417 931 q 331 1072 343 1004 q 337 1078 329 1078 q 346 1076 344 1079 q 394 1007 357 1036 q 474 978 431 978 q 552 1007 515 978 q 600 1076 589 1036 q 609 1078 601 1079 q 615 1072 617 1078 q 567 967 603 1004 q 474 931 531 931 m 576 1146 q 619 1158 604 1146 q 644 1183 633 1169 q 652 1181 647 1186 q 654 1174 657 1176 q 593 1109 617 1125 q 546 1093 569 1093 q 485 1102 514 1093 q 428 1119 457 1111 q 363 1128 399 1128 q 322 1116 335 1128 q 294 1090 308 1104 q 287 1092 292 1089 q 285 1100 282 1096 q 315 1133 296 1115 q 356 1165 333 1151 q 401 1179 378 1179 q 453 1171 426 1179 q 511 1154 481 1163 q 576 1146 542 1146 z "},"Ǎ":{"ha":969,"x_min":-3,"x_max":969,"o":"m 294 471 l 315 497 l 601 497 l 611 471 l 294 471 m 964 17 q 969 8 969 17 q 964 0 969 0 q 884 3 925 0 q 806 6 843 6 q 731 3 763 6 q 663 0 700 0 q 657 8 657 0 q 663 17 657 17 q 760 38 740 17 q 754 117 781 58 l 440 792 l 467 815 l 199 171 q 193 51 164 86 q 317 17 222 17 q 324 8 324 17 q 317 0 324 0 q 240 3 275 0 q 153 6 206 6 q 74 3 104 6 q 3 0 44 0 q -3 8 -3 0 q 3 17 -3 17 q 68 31 40 17 q 120 81 96 44 q 172 183 144 117 l 463 882 q 472 886 465 886 q 479 882 478 886 l 801 190 q 858 83 833 121 q 908 31 883 44 q 964 17 933 17 m 453 954 l 310 1082 q 312 1089 307 1085 q 318 1092 317 1093 l 469 1006 l 619 1092 q 626 1090 622 1094 q 626 1082 631 1085 l 485 954 q 469 949 479 949 q 453 954 460 949 z "},"Â":{"ha":969,"x_min":-3,"x_max":969,"o":"m 294 471 l 315 497 l 601 497 l 611 471 l 294 471 m 964 17 q 969 8 969 17 q 964 0 969 0 q 884 3 925 0 q 806 6 843 6 q 731 3 763 6 q 663 0 700 0 q 657 8 657 0 q 663 17 657 17 q 760 38 740 17 q 754 117 781 58 l 440 792 l 467 815 l 199 171 q 193 51 164 86 q 317 17 222 17 q 324 8 324 17 q 317 0 324 0 q 240 3 275 0 q 153 6 206 6 q 74 3 104 6 q 3 0 44 0 q -3 8 -3 0 q 3 17 -3 17 q 68 31 40 17 q 120 81 96 44 q 172 183 144 117 l 463 882 q 472 886 465 886 q 479 882 478 886 l 801 190 q 858 83 833 121 q 908 31 883 44 q 964 17 933 17 m 310 956 l 453 1083 q 469 1090 460 1090 q 485 1083 479 1090 l 626 956 q 626 949 631 954 q 619 946 622 944 l 469 1032 l 318 946 q 312 949 317 944 q 310 956 307 954 z "},"Ấ":{"ha":969,"x_min":-3,"x_max":969,"o":"m 294 471 l 315 497 l 601 497 l 611 471 l 294 471 m 964 17 q 969 8 969 17 q 964 0 969 0 q 884 3 925 0 q 806 6 843 6 q 731 3 763 6 q 663 0 700 0 q 657 8 657 0 q 663 17 657 17 q 760 38 740 17 q 754 117 781 58 l 440 792 l 467 815 l 199 171 q 193 51 164 86 q 317 17 222 17 q 324 8 324 17 q 317 0 324 0 q 240 3 275 0 q 153 6 206 6 q 74 3 104 6 q 3 0 44 0 q -3 8 -3 0 q 3 17 -3 17 q 68 31 40 17 q 120 81 96 44 q 172 183 144 117 l 463 882 q 472 886 465 886 q 479 882 478 886 l 801 190 q 858 83 833 121 q 908 31 883 44 q 964 17 933 17 m 310 956 l 453 1083 q 469 1090 460 1090 q 485 1083 479 1090 l 626 956 q 626 949 631 954 q 619 946 622 944 l 469 1032 l 318 946 q 312 949 317 944 q 310 956 307 954 m 561 997 q 552 999 556 994 q 551 1008 549 1004 q 611 1074 583 1040 q 664 1140 639 1107 q 677 1141 667 1143 q 700 1133 688 1139 q 724 1122 713 1128 q 741 1110 736 1115 q 740 1104 746 1106 q 644 1056 686 1082 q 561 997 603 1029 z "},"Ậ":{"ha":969,"x_min":-3,"x_max":969,"o":"m 294 471 l 315 497 l 601 497 l 611 471 l 294 471 m 964 17 q 969 8 969 17 q 964 0 969 0 q 884 3 925 0 q 806 6 843 6 q 731 3 763 6 q 663 0 700 0 q 657 8 657 0 q 663 17 657 17 q 760 38 740 17 q 754 117 781 58 l 440 792 l 467 815 l 199 171 q 193 51 164 86 q 317 17 222 17 q 324 8 324 17 q 317 0 324 0 q 240 3 275 0 q 153 6 206 6 q 74 3 104 6 q 3 0 44 0 q -3 8 -3 0 q 3 17 -3 17 q 68 31 40 17 q 120 81 96 44 q 172 183 144 117 l 463 882 q 472 886 465 886 q 479 882 478 886 l 801 190 q 858 83 833 121 q 908 31 883 44 q 964 17 933 17 m 488 -258 q 447 -244 461 -258 q 432 -206 432 -231 q 447 -167 432 -181 q 488 -153 461 -153 q 526 -167 513 -153 q 540 -206 540 -181 q 488 -258 540 -258 m 310 956 l 453 1083 q 469 1090 460 1090 q 485 1083 479 1090 l 626 956 q 626 949 631 954 q 619 946 622 944 l 469 1032 l 318 946 q 312 949 317 944 q 310 956 307 954 z "},"Ầ":{"ha":969,"x_min":-3,"x_max":969,"o":"m 294 471 l 315 497 l 601 497 l 611 471 l 294 471 m 964 17 q 969 8 969 17 q 964 0 969 0 q 884 3 925 0 q 806 6 843 6 q 731 3 763 6 q 663 0 700 0 q 657 8 657 0 q 663 17 657 17 q 760 38 740 17 q 754 117 781 58 l 440 792 l 467 815 l 199 171 q 193 51 164 86 q 317 17 222 17 q 324 8 324 17 q 317 0 324 0 q 240 3 275 0 q 153 6 206 6 q 74 3 104 6 q 3 0 44 0 q -3 8 -3 0 q 3 17 -3 17 q 68 31 40 17 q 120 81 96 44 q 172 183 144 117 l 463 882 q 472 886 465 886 q 479 882 478 886 l 801 190 q 858 83 833 121 q 908 31 883 44 q 964 17 933 17 m 310 956 l 453 1083 q 469 1090 460 1090 q 485 1083 479 1090 l 626 956 q 626 949 631 954 q 619 946 622 944 l 469 1032 l 318 946 q 312 949 317 944 q 310 956 307 954 m 707 965 q 624 1024 665 997 q 528 1072 582 1050 q 528 1078 522 1074 q 544 1090 533 1083 q 569 1101 556 1096 q 592 1109 582 1107 q 604 1108 603 1111 q 658 1042 629 1075 q 717 978 686 1010 q 718 967 722 972 q 707 965 714 963 z "},"Ẩ":{"ha":969,"x_min":-3,"x_max":969,"o":"m 294 471 l 315 497 l 601 497 l 611 471 l 294 471 m 964 17 q 969 8 969 17 q 964 0 969 0 q 884 3 925 0 q 806 6 843 6 q 731 3 763 6 q 663 0 700 0 q 657 8 657 0 q 663 17 657 17 q 760 38 740 17 q 754 117 781 58 l 440 792 l 467 815 l 199 171 q 193 51 164 86 q 317 17 222 17 q 324 8 324 17 q 317 0 324 0 q 240 3 275 0 q 153 6 206 6 q 74 3 104 6 q 3 0 44 0 q -3 8 -3 0 q 3 17 -3 17 q 68 31 40 17 q 120 81 96 44 q 172 183 144 117 l 463 882 q 472 886 465 886 q 479 882 478 886 l 801 190 q 858 83 833 121 q 908 31 883 44 q 964 17 933 17 m 310 956 l 453 1083 q 469 1090 460 1090 q 485 1083 479 1090 l 626 956 q 626 949 631 954 q 619 946 622 944 l 469 1032 l 318 946 q 312 949 317 944 q 310 956 307 954 m 578 1003 q 580 1046 569 1026 q 604 1085 590 1065 q 618 1126 618 1104 q 602 1159 618 1149 q 569 1169 586 1169 q 535 1161 550 1169 q 526 1165 532 1160 q 525 1172 521 1171 q 570 1192 547 1186 q 608 1199 593 1199 q 656 1180 640 1199 q 672 1140 672 1161 q 658 1101 672 1118 q 627 1067 644 1083 q 599 1036 610 1051 q 593 1003 588 1021 q 588 999 596 1000 q 578 1003 579 999 z "},"Ẫ":{"ha":969,"x_min":-3,"x_max":969,"o":"m 294 471 l 315 497 l 601 497 l 611 471 l 294 471 m 964 17 q 969 8 969 17 q 964 0 969 0 q 884 3 925 0 q 806 6 843 6 q 731 3 763 6 q 663 0 700 0 q 657 8 657 0 q 663 17 657 17 q 760 38 740 17 q 754 117 781 58 l 440 792 l 467 815 l 199 171 q 193 51 164 86 q 317 17 222 17 q 324 8 324 17 q 317 0 324 0 q 240 3 275 0 q 153 6 206 6 q 74 3 104 6 q 3 0 44 0 q -3 8 -3 0 q 3 17 -3 17 q 68 31 40 17 q 120 81 96 44 q 172 183 144 117 l 463 882 q 472 886 465 886 q 479 882 478 886 l 801 190 q 858 83 833 121 q 908 31 883 44 q 964 17 933 17 m 310 956 l 453 1083 q 469 1090 460 1090 q 485 1083 479 1090 l 626 956 q 626 949 631 954 q 619 946 622 944 l 469 1032 l 318 946 q 312 949 317 944 q 310 956 307 954 m 583 1153 q 626 1165 611 1153 q 651 1190 640 1176 q 659 1188 654 1193 q 661 1181 664 1183 q 600 1116 624 1132 q 553 1100 576 1100 q 492 1109 521 1100 q 435 1126 464 1118 q 369 1135 406 1135 q 328 1123 342 1135 q 301 1097 315 1111 q 294 1099 299 1096 q 292 1107 289 1103 q 322 1140 303 1122 q 363 1172 340 1158 q 408 1186 385 1186 q 460 1178 433 1186 q 518 1161 488 1169 q 583 1153 549 1153 z "},"Ȁ":{"ha":969,"x_min":-3,"x_max":969,"o":"m 608 944 q 517 1001 561 976 q 414 1050 472 1026 q 417 1059 407 1053 q 443 1071 426 1065 q 475 1079 460 1076 q 494 1078 490 1082 q 553 1018 524 1047 q 619 957 583 989 q 618 947 622 954 q 608 944 614 940 m 446 944 q 355 1002 399 976 q 256 1050 311 1028 q 258 1059 249 1053 q 283 1071 267 1065 q 314 1079 300 1076 q 332 1078 328 1082 q 391 1018 361 1047 q 457 957 421 989 q 456 947 460 954 q 446 944 451 940 m 294 471 l 315 497 l 601 497 l 611 471 l 294 471 m 964 17 q 969 8 969 17 q 964 0 969 0 q 884 3 925 0 q 806 6 843 6 q 731 3 763 6 q 663 0 700 0 q 657 8 657 0 q 663 17 657 17 q 760 38 740 17 q 754 117 781 58 l 440 792 l 467 815 l 199 171 q 193 51 164 86 q 317 17 222 17 q 324 8 324 17 q 317 0 324 0 q 240 3 275 0 q 153 6 206 6 q 74 3 104 6 q 3 0 44 0 q -3 8 -3 0 q 3 17 -3 17 q 68 31 40 17 q 120 81 96 44 q 172 183 144 117 l 463 882 q 472 886 465 886 q 479 882 478 886 l 801 190 q 858 83 833 121 q 908 31 883 44 q 964 17 933 17 z "},"Ä":{"ha":969,"x_min":-3,"x_max":969,"o":"m 294 471 l 315 497 l 601 497 l 611 471 l 294 471 m 964 17 q 969 8 969 17 q 964 0 969 0 q 884 3 925 0 q 806 6 843 6 q 731 3 763 6 q 663 0 700 0 q 657 8 657 0 q 663 17 657 17 q 760 38 740 17 q 754 117 781 58 l 440 792 l 467 815 l 199 171 q 193 51 164 86 q 317 17 222 17 q 324 8 324 17 q 317 0 324 0 q 240 3 275 0 q 153 6 206 6 q 74 3 104 6 q 3 0 44 0 q -3 8 -3 0 q 3 17 -3 17 q 68 31 40 17 q 120 81 96 44 q 172 183 144 117 l 463 882 q 472 886 465 886 q 479 882 478 886 l 801 190 q 858 83 833 121 q 908 31 883 44 q 964 17 933 17 m 349 1000 q 308 1014 322 1000 q 293 1053 293 1028 q 308 1092 293 1078 q 349 1106 322 1106 q 388 1092 374 1106 q 401 1053 401 1078 q 349 1000 401 1000 m 592 1000 q 551 1014 567 1000 q 536 1053 536 1028 q 551 1092 536 1078 q 592 1106 567 1106 q 646 1053 646 1106 q 592 1000 646 1000 z "},"Ạ":{"ha":969,"x_min":-3,"x_max":969,"o":"m 294 471 l 315 497 l 601 497 l 611 471 l 294 471 m 964 17 q 969 8 969 17 q 964 0 969 0 q 884 3 925 0 q 806 6 843 6 q 731 3 763 6 q 663 0 700 0 q 657 8 657 0 q 663 17 657 17 q 760 38 740 17 q 754 117 781 58 l 440 792 l 467 815 l 199 171 q 193 51 164 86 q 317 17 222 17 q 324 8 324 17 q 317 0 324 0 q 240 3 275 0 q 153 6 206 6 q 74 3 104 6 q 3 0 44 0 q -3 8 -3 0 q 3 17 -3 17 q 68 31 40 17 q 120 81 96 44 q 172 183 144 117 l 463 882 q 472 886 465 886 q 479 882 478 886 l 801 190 q 858 83 833 121 q 908 31 883 44 q 964 17 933 17 m 488 -258 q 447 -244 461 -258 q 432 -206 432 -231 q 447 -167 432 -181 q 488 -153 461 -153 q 526 -167 513 -153 q 540 -206 540 -181 q 488 -258 540 -258 z "},"À":{"ha":969,"x_min":-3,"x_max":969,"o":"m 294 471 l 315 497 l 601 497 l 611 471 l 294 471 m 964 17 q 969 8 969 17 q 964 0 969 0 q 884 3 925 0 q 806 6 843 6 q 731 3 763 6 q 663 0 700 0 q 657 8 657 0 q 663 17 657 17 q 760 38 740 17 q 754 117 781 58 l 440 792 l 467 815 l 199 171 q 193 51 164 86 q 317 17 222 17 q 324 8 324 17 q 317 0 324 0 q 240 3 275 0 q 153 6 206 6 q 74 3 104 6 q 3 0 44 0 q -3 8 -3 0 q 3 17 -3 17 q 68 31 40 17 q 120 81 96 44 q 172 183 144 117 l 463 882 q 472 886 465 886 q 479 882 478 886 l 801 190 q 858 83 833 121 q 908 31 883 44 q 964 17 933 17 m 607 943 q 463 1001 536 975 q 297 1050 390 1028 q 299 1058 290 1051 q 324 1072 308 1064 q 355 1084 340 1079 q 374 1086 369 1089 q 488 1022 431 1054 q 613 957 544 989 q 615 948 618 956 q 607 943 613 940 z "},"Ả":{"ha":969,"x_min":-3,"x_max":969,"o":"m 294 471 l 315 497 l 601 497 l 611 471 l 294 471 m 964 17 q 969 8 969 17 q 964 0 969 0 q 884 3 925 0 q 806 6 843 6 q 731 3 763 6 q 663 0 700 0 q 657 8 657 0 q 663 17 657 17 q 760 38 740 17 q 754 117 781 58 l 440 792 l 467 815 l 199 171 q 193 51 164 86 q 317 17 222 17 q 324 8 324 17 q 317 0 324 0 q 240 3 275 0 q 153 6 206 6 q 74 3 104 6 q 3 0 44 0 q -3 8 -3 0 q 3 17 -3 17 q 68 31 40 17 q 120 81 96 44 q 172 183 144 117 l 463 882 q 472 886 465 886 q 479 882 478 886 l 801 190 q 858 83 833 121 q 908 31 883 44 q 964 17 933 17 m 474 904 q 467 902 475 903 q 458 904 460 901 q 456 957 449 933 q 478 1000 464 981 q 503 1039 492 1019 q 515 1081 515 1058 q 495 1123 515 1108 q 451 1138 475 1138 q 432 1135 442 1138 q 415 1129 422 1132 q 406 1133 413 1128 q 406 1140 400 1139 q 450 1160 428 1154 q 490 1167 472 1167 q 555 1144 533 1167 q 576 1094 576 1122 q 558 1042 576 1065 q 518 999 540 1019 q 481 956 496 978 q 474 904 467 933 z "},"Ȃ":{"ha":969,"x_min":-3,"x_max":969,"o":"m 294 471 l 315 497 l 601 497 l 611 471 l 294 471 m 964 17 q 969 8 969 17 q 964 0 969 0 q 884 3 925 0 q 806 6 843 6 q 731 3 763 6 q 663 0 700 0 q 657 8 657 0 q 663 17 657 17 q 760 38 740 17 q 754 117 781 58 l 440 792 l 467 815 l 199 171 q 193 51 164 86 q 317 17 222 17 q 324 8 324 17 q 317 0 324 0 q 240 3 275 0 q 153 6 206 6 q 74 3 104 6 q 3 0 44 0 q -3 8 -3 0 q 3 17 -3 17 q 68 31 40 17 q 120 81 96 44 q 172 183 144 117 l 463 882 q 472 886 465 886 q 479 882 478 886 l 801 190 q 858 83 833 121 q 908 31 883 44 q 964 17 933 17 m 342 947 q 333 944 340 943 q 326 950 325 946 q 469 1092 353 1092 q 611 950 585 1092 q 605 944 613 946 q 596 947 597 943 q 548 1016 585 988 q 469 1044 511 1044 q 390 1016 426 1044 q 342 947 353 988 z "},"Ā":{"ha":969,"x_min":-3,"x_max":969,"o":"m 294 471 l 315 497 l 601 497 l 611 471 l 294 471 m 964 17 q 969 8 969 17 q 964 0 969 0 q 884 3 925 0 q 806 6 843 6 q 731 3 763 6 q 663 0 700 0 q 657 8 657 0 q 663 17 657 17 q 760 38 740 17 q 754 117 781 58 l 440 792 l 467 815 l 199 171 q 193 51 164 86 q 317 17 222 17 q 324 8 324 17 q 317 0 324 0 q 240 3 275 0 q 153 6 206 6 q 74 3 104 6 q 3 0 44 0 q -3 8 -3 0 q 3 17 -3 17 q 68 31 40 17 q 120 81 96 44 q 172 183 144 117 l 463 882 q 472 886 465 886 q 479 882 478 886 l 801 190 q 858 83 833 121 q 908 31 883 44 q 964 17 933 17 m 294 1006 q 288 1015 290 1006 q 288 1033 286 1024 q 294 1042 290 1042 l 643 1042 q 650 1033 649 1042 q 650 1015 651 1024 q 643 1006 649 1006 l 294 1006 z "},"Ą":{"ha":974,"x_min":-3,"x_max":969,"o":"m 756 -382 q 628 -342 675 -382 q 582 -231 582 -301 q 605 -137 582 -176 q 660 -68 628 -99 q 719 -10 692 -37 q 760 47 747 17 q 754 114 772 76 l 439 783 l 465 815 l 199 171 q 193 51 164 86 q 317 17 222 17 q 324 8 324 17 q 317 0 324 0 q 240 3 275 0 q 153 6 206 6 q 74 3 104 6 q 3 0 44 0 q -3 8 -3 0 q 3 17 -3 17 q 68 31 40 17 q 120 81 96 44 q 172 183 144 117 l 463 882 q 472 886 465 886 q 479 882 478 886 l 801 188 q 858 80 833 118 q 908 27 882 42 q 964 13 933 13 q 969 5 969 13 q 964 -3 969 -3 q 897 -1 925 -3 q 836 1 868 1 q 744 -22 788 1 q 675 -87 701 -46 q 649 -183 649 -128 q 665 -258 649 -221 q 715 -320 681 -296 q 808 -344 750 -344 q 859 -338 840 -344 q 890 -325 878 -332 q 898 -328 893 -322 q 900 -336 903 -333 q 833 -370 869 -358 q 756 -382 797 -382 m 297 471 l 318 497 l 604 497 l 614 471 l 297 471 z "},"Å":{"ha":969,"x_min":-3,"x_max":969,"o":"m 294 471 l 315 497 l 601 497 l 611 471 l 294 471 m 964 17 q 969 8 969 17 q 964 0 969 0 q 884 3 925 0 q 806 6 843 6 q 731 3 763 6 q 663 0 700 0 q 657 8 657 0 q 663 17 657 17 q 760 38 740 17 q 754 117 781 58 l 440 792 l 467 815 l 199 171 q 193 51 164 86 q 317 17 222 17 q 324 8 324 17 q 317 0 324 0 q 240 3 275 0 q 153 6 206 6 q 74 3 104 6 q 3 0 44 0 q -3 8 -3 0 q 3 17 -3 17 q 68 31 40 17 q 120 81 96 44 q 172 183 144 117 l 463 882 q 472 886 465 886 q 479 882 478 886 l 801 190 q 858 83 833 121 q 908 31 883 44 q 964 17 933 17 m 464 924 q 379 958 410 924 q 349 1035 349 992 q 369 1094 349 1071 q 419 1130 389 1118 q 478 1142 449 1142 q 559 1110 525 1142 q 593 1032 593 1078 q 574 974 593 999 q 525 937 554 950 q 464 924 496 924 m 485 938 q 539 1007 539 938 q 513 1092 539 1056 q 450 1129 488 1129 q 401 1063 401 1129 q 411 1005 401 1033 q 440 957 421 976 q 485 938 458 938 z "},"Ǻ":{"ha":969,"x_min":-3,"x_max":969,"o":"m 294 471 l 315 497 l 601 497 l 611 471 l 294 471 m 964 17 q 969 8 969 17 q 964 0 969 0 q 884 3 925 0 q 806 6 843 6 q 731 3 763 6 q 663 0 700 0 q 657 8 657 0 q 663 17 657 17 q 760 38 740 17 q 754 117 781 58 l 440 792 l 467 815 l 199 171 q 193 51 164 86 q 317 17 222 17 q 324 8 324 17 q 317 0 324 0 q 240 3 275 0 q 153 6 206 6 q 74 3 104 6 q 3 0 44 0 q -3 8 -3 0 q 3 17 -3 17 q 68 31 40 17 q 120 81 96 44 q 172 183 144 117 l 463 882 q 472 886 465 886 q 479 882 478 886 l 801 190 q 858 83 833 121 q 908 31 883 44 q 964 17 933 17 m 460 938 q 375 967 406 938 q 344 1032 344 996 q 365 1083 344 1063 q 415 1113 385 1103 q 474 1124 444 1124 q 555 1096 521 1124 q 589 1029 589 1068 q 569 980 589 1000 q 521 949 550 960 q 460 938 492 938 m 482 951 q 535 1004 535 951 q 509 1078 535 1047 q 446 1110 483 1110 q 397 1060 397 1110 q 419 987 397 1022 q 482 951 442 951 m 343 1126 q 335 1132 338 1125 q 336 1140 332 1139 q 435 1190 390 1165 q 526 1236 481 1214 q 546 1235 531 1239 q 577 1223 561 1231 q 601 1209 593 1215 q 603 1201 610 1203 q 464 1167 525 1186 q 343 1126 403 1149 z "},"Ã":{"ha":969,"x_min":-3,"x_max":969,"o":"m 294 471 l 315 497 l 601 497 l 611 471 l 294 471 m 964 17 q 969 8 969 17 q 964 0 969 0 q 884 3 925 0 q 806 6 843 6 q 731 3 763 6 q 663 0 700 0 q 657 8 657 0 q 663 17 657 17 q 760 38 740 17 q 754 117 781 58 l 440 792 l 467 815 l 199 171 q 193 51 164 86 q 317 17 222 17 q 324 8 324 17 q 317 0 324 0 q 240 3 275 0 q 153 6 206 6 q 74 3 104 6 q 3 0 44 0 q -3 8 -3 0 q 3 17 -3 17 q 68 31 40 17 q 120 81 96 44 q 172 183 144 117 l 463 882 q 472 886 465 886 q 479 882 478 886 l 801 190 q 858 83 833 121 q 908 31 883 44 q 964 17 933 17 m 576 1044 q 619 1056 604 1044 q 644 1082 633 1068 q 652 1080 647 1085 q 654 1072 657 1075 q 593 1008 617 1024 q 546 992 569 992 q 485 1001 514 992 q 428 1018 457 1010 q 363 1026 399 1026 q 322 1015 335 1026 q 294 989 308 1003 q 287 991 292 988 q 285 999 282 994 q 315 1032 296 1014 q 356 1064 333 1050 q 401 1078 378 1078 q 453 1069 426 1078 q 511 1053 481 1061 q 576 1044 542 1044 z "},"Æ":{"ha":1210,"x_min":1,"x_max":1139,"o":"m 7 0 q 1 8 1 0 q 7 17 1 17 q 101 62 47 17 q 210 183 156 107 l 636 797 q 648 842 663 833 q 547 851 633 851 q 544 860 544 851 q 547 868 544 868 l 1081 868 q 1093 856 1093 868 l 1096 688 q 1088 683 1096 683 q 1081 688 1081 683 q 1063 768 1081 733 q 1015 822 1046 803 q 944 842 985 842 l 864 842 q 788 835 814 842 q 753 810 763 829 q 744 754 744 792 l 744 118 q 753 60 744 79 q 788 33 763 40 q 864 26 814 26 l 976 26 q 1044 49 1014 26 q 1094 110 1074 71 q 1122 203 1115 150 q 1131 206 1122 207 q 1139 201 1139 206 q 1130 115 1133 165 q 1126 21 1126 64 q 1104 0 1126 0 l 547 0 q 544 8 544 0 q 547 17 544 17 q 626 24 600 17 q 662 51 653 31 q 671 113 671 72 l 671 817 l 701 839 l 238 171 q 199 54 182 92 q 304 17 215 17 q 311 8 311 17 q 304 0 311 0 q 228 3 263 0 q 140 6 193 6 q 69 3 96 6 q 7 0 43 0 m 403 439 l 424 465 l 710 465 l 719 439 l 403 439 m 1026 326 q 1000 414 1026 389 q 907 439 974 439 l 710 439 l 710 465 l 911 465 q 1000 487 975 465 q 1025 561 1025 508 q 1033 564 1025 564 q 1042 561 1042 564 q 1041 499 1042 521 q 1040 451 1040 476 q 1042 391 1040 421 q 1043 326 1043 361 q 1035 324 1043 324 q 1026 326 1026 324 z "},"Ǽ":{"ha":1210,"x_min":1,"x_max":1139,"o":"m 7 0 q 1 8 1 0 q 7 17 1 17 q 101 62 47 17 q 210 183 156 107 l 636 797 q 648 842 663 833 q 547 851 633 851 q 544 860 544 851 q 547 868 544 868 l 1081 868 q 1093 856 1093 868 l 1096 688 q 1088 683 1096 683 q 1081 688 1081 683 q 1063 768 1081 733 q 1015 822 1046 803 q 944 842 985 842 l 864 842 q 788 835 814 842 q 753 810 763 829 q 744 754 744 792 l 744 118 q 753 60 744 79 q 788 33 763 40 q 864 26 814 26 l 976 26 q 1044 49 1014 26 q 1094 110 1074 71 q 1122 203 1115 150 q 1131 206 1122 207 q 1139 201 1139 206 q 1130 115 1133 165 q 1126 21 1126 64 q 1104 0 1126 0 l 547 0 q 544 8 544 0 q 547 17 544 17 q 626 24 600 17 q 662 51 653 31 q 671 113 671 72 l 671 817 l 701 839 l 238 171 q 199 54 182 92 q 304 17 215 17 q 311 8 311 17 q 304 0 311 0 q 228 3 263 0 q 140 6 193 6 q 69 3 96 6 q 7 0 43 0 m 403 439 l 424 465 l 710 465 l 719 439 l 403 439 m 1026 326 q 1000 414 1026 389 q 907 439 974 439 l 710 439 l 710 465 l 911 465 q 1000 487 975 465 q 1025 561 1025 508 q 1033 564 1025 564 q 1042 561 1042 564 q 1041 499 1042 521 q 1040 451 1040 476 q 1042 391 1040 421 q 1043 326 1043 361 q 1035 324 1043 324 q 1026 326 1026 324 m 669 943 q 661 948 664 940 q 663 957 658 956 q 788 1022 732 989 q 901 1086 844 1056 q 921 1084 906 1089 q 952 1072 936 1079 q 976 1058 968 1064 q 978 1050 985 1051 q 813 1001 885 1028 q 669 943 740 975 z "},"Ǣ":{"ha":1210,"x_min":1,"x_max":1139,"o":"m 7 0 q 1 8 1 0 q 7 17 1 17 q 101 62 47 17 q 210 183 156 107 l 636 797 q 648 842 663 833 q 547 851 633 851 q 544 860 544 851 q 547 868 544 868 l 1081 868 q 1093 856 1093 868 l 1096 688 q 1088 683 1096 683 q 1081 688 1081 683 q 1063 768 1081 733 q 1015 822 1046 803 q 944 842 985 842 l 864 842 q 788 835 814 842 q 753 810 763 829 q 744 754 744 792 l 744 118 q 753 60 744 79 q 788 33 763 40 q 864 26 814 26 l 976 26 q 1044 49 1014 26 q 1094 110 1074 71 q 1122 203 1115 150 q 1131 206 1122 207 q 1139 201 1139 206 q 1130 115 1133 165 q 1126 21 1126 64 q 1104 0 1126 0 l 547 0 q 544 8 544 0 q 547 17 544 17 q 626 24 600 17 q 662 51 653 31 q 671 113 671 72 l 671 817 l 701 839 l 238 171 q 199 54 182 92 q 304 17 215 17 q 311 8 311 17 q 304 0 311 0 q 228 3 263 0 q 140 6 193 6 q 69 3 96 6 q 7 0 43 0 m 403 439 l 424 465 l 710 465 l 719 439 l 403 439 m 1026 326 q 1000 414 1026 389 q 907 439 974 439 l 710 439 l 710 465 l 911 465 q 1000 487 975 465 q 1025 561 1025 508 q 1033 564 1025 564 q 1042 561 1042 564 q 1041 499 1042 521 q 1040 451 1040 476 q 1042 391 1040 421 q 1043 326 1043 361 q 1035 324 1043 324 q 1026 326 1026 324 m 629 1006 q 623 1015 625 1006 q 623 1033 621 1024 q 629 1042 625 1042 l 978 1042 q 985 1033 983 1042 q 985 1015 986 1024 q 978 1006 983 1006 l 629 1006 z "},"B":{"ha":763,"x_min":58,"x_max":693,"o":"m 414 478 l 429 490 q 568 460 508 490 q 660 376 628 429 q 693 257 693 324 q 658 122 693 182 q 563 28 624 63 q 428 -6 503 -6 q 326 -1 382 -6 q 222 3 271 3 q 136 1 178 3 q 61 0 94 0 q 58 8 58 0 q 61 17 58 17 q 141 24 114 17 q 178 51 168 31 q 188 113 188 72 l 188 756 q 178 816 188 796 q 143 844 169 836 q 64 851 117 851 q 60 860 60 851 q 64 868 60 868 q 137 866 96 868 q 222 864 178 864 q 306 868 258 864 q 385 872 354 872 q 516 847 467 872 q 588 779 565 821 q 610 688 610 738 q 553 554 610 608 q 414 478 497 500 m 353 854 q 299 849 319 854 q 269 824 278 844 q 260 753 260 803 l 260 481 l 218 492 q 292 488 263 489 q 325 488 321 488 q 488 542 440 488 q 535 678 535 597 q 517 765 535 725 q 460 830 500 806 q 353 854 421 854 m 408 17 q 563 72 514 17 q 613 222 613 126 q 549 393 613 326 q 374 461 485 460 q 297 461 335 463 q 222 454 260 460 l 260 469 l 260 113 q 271 56 260 78 q 314 26 282 35 q 408 17 346 17 m 218 492 z "},"C":{"ha":929,"x_min":68,"x_max":869,"o":"m 574 883 q 708 870 639 883 q 821 832 778 857 q 835 819 832 825 q 840 799 839 814 l 856 653 q 849 648 856 650 q 840 651 842 646 q 726 809 813 764 q 519 854 639 854 q 328 808 410 854 q 200 677 246 761 q 154 481 154 593 q 187 293 154 381 q 277 140 219 206 q 409 38 335 75 q 567 0 483 0 q 741 53 665 0 q 853 219 817 106 q 862 223 854 225 q 869 218 869 221 l 850 69 q 844 48 847 53 q 828 38 840 43 q 695 -4 761 8 q 563 -17 629 -17 q 336 24 431 -17 q 183 133 242 65 q 96 281 124 200 q 68 443 68 363 q 110 622 68 542 q 223 761 151 703 q 385 851 294 819 q 574 883 476 883 z "},"Ć":{"ha":929,"x_min":68,"x_max":869,"o":"m 574 883 q 708 870 639 883 q 821 832 778 857 q 835 819 832 825 q 840 799 839 814 l 856 653 q 849 648 856 650 q 840 651 842 646 q 726 809 813 764 q 519 854 639 854 q 328 808 410 854 q 200 677 246 761 q 154 481 154 593 q 187 293 154 381 q 277 140 219 206 q 409 38 335 75 q 567 0 483 0 q 741 53 665 0 q 853 219 817 106 q 862 223 854 225 q 869 218 869 221 l 850 69 q 844 48 847 53 q 828 38 840 43 q 695 -4 761 8 q 563 -17 629 -17 q 336 24 431 -17 q 183 133 242 65 q 96 281 124 200 q 68 443 68 363 q 110 622 68 542 q 223 761 151 703 q 385 851 294 819 q 574 883 476 883 m 392 943 q 383 948 386 940 q 385 957 381 956 q 510 1022 454 989 q 624 1086 567 1056 q 643 1084 628 1089 q 674 1072 658 1079 q 699 1058 690 1064 q 700 1050 707 1051 q 535 1001 607 1028 q 392 943 463 975 z "},"Č":{"ha":929,"x_min":68,"x_max":869,"o":"m 574 883 q 708 870 639 883 q 821 832 778 857 q 835 819 832 825 q 840 799 839 814 l 856 653 q 849 648 856 650 q 840 651 842 646 q 726 809 813 764 q 519 854 639 854 q 328 808 410 854 q 200 677 246 761 q 154 481 154 593 q 187 293 154 381 q 277 140 219 206 q 409 38 335 75 q 567 0 483 0 q 741 53 665 0 q 853 219 817 106 q 862 223 854 225 q 869 218 869 221 l 850 69 q 844 48 847 53 q 828 38 840 43 q 695 -4 761 8 q 563 -17 629 -17 q 336 24 431 -17 q 183 133 242 65 q 96 281 124 200 q 68 443 68 363 q 110 622 68 542 q 223 761 151 703 q 385 851 294 819 q 574 883 476 883 m 510 954 l 367 1082 q 369 1089 364 1085 q 375 1092 374 1093 l 526 1006 l 676 1092 q 683 1090 679 1094 q 683 1082 688 1085 l 542 954 q 526 949 536 949 q 510 954 517 949 z "},"Ç":{"ha":929,"x_min":68,"x_max":869,"o":"m 574 883 q 708 870 639 883 q 821 832 778 857 q 835 819 832 825 q 840 799 839 814 l 856 653 q 849 648 856 650 q 840 651 842 646 q 726 809 813 764 q 519 854 639 854 q 328 808 410 854 q 200 677 246 761 q 154 481 154 593 q 187 293 154 381 q 277 140 219 206 q 409 38 335 75 q 567 0 483 0 q 741 53 665 0 q 853 219 817 106 q 862 223 854 225 q 869 218 869 221 l 850 69 q 844 48 847 53 q 828 38 840 43 q 695 -4 761 8 q 563 -17 629 -17 q 336 24 431 -17 q 183 133 242 65 q 96 281 124 200 q 68 443 68 363 q 110 622 68 542 q 223 761 151 703 q 385 851 294 819 q 574 883 476 883 m 539 -3 q 517 -80 521 -57 q 529 -113 514 -103 q 579 -144 544 -124 q 631 -186 608 -161 q 654 -251 654 -211 q 640 -310 654 -281 q 596 -361 626 -340 q 517 -382 565 -382 q 456 -369 482 -382 q 431 -332 431 -357 q 442 -304 431 -314 q 469 -294 454 -294 q 494 -303 486 -294 q 508 -325 501 -312 q 524 -347 514 -337 q 557 -356 535 -356 q 608 -299 608 -356 q 583 -234 608 -262 q 489 -169 557 -206 q 467 -153 468 -158 q 475 -126 465 -147 q 490 -88 485 -103 q 503 -56 496 -74 q 522 -1 510 -37 l 539 -3 z "},"Ĉ":{"ha":929,"x_min":68,"x_max":869,"o":"m 574 883 q 708 870 639 883 q 821 832 778 857 q 835 819 832 825 q 840 799 839 814 l 856 653 q 849 648 856 650 q 840 651 842 646 q 726 809 813 764 q 519 854 639 854 q 328 808 410 854 q 200 677 246 761 q 154 481 154 593 q 187 293 154 381 q 277 140 219 206 q 409 38 335 75 q 567 0 483 0 q 741 53 665 0 q 853 219 817 106 q 862 223 854 225 q 869 218 869 221 l 850 69 q 844 48 847 53 q 828 38 840 43 q 695 -4 761 8 q 563 -17 629 -17 q 336 24 431 -17 q 183 133 242 65 q 96 281 124 200 q 68 443 68 363 q 110 622 68 542 q 223 761 151 703 q 385 851 294 819 q 574 883 476 883 m 368 958 l 511 1088 q 528 1094 518 1094 q 543 1088 538 1094 l 685 958 q 685 952 689 957 q 678 949 681 947 l 528 1035 l 376 949 q 370 952 375 947 q 368 958 365 957 z "},"Ċ":{"ha":929,"x_min":68,"x_max":869,"o":"m 574 883 q 708 870 639 883 q 821 832 778 857 q 835 819 832 825 q 840 799 839 814 l 856 653 q 849 648 856 650 q 840 651 842 646 q 726 809 813 764 q 519 854 639 854 q 328 808 410 854 q 200 677 246 761 q 154 481 154 593 q 187 293 154 381 q 277 140 219 206 q 409 38 335 75 q 567 0 483 0 q 741 53 665 0 q 853 219 817 106 q 862 223 854 225 q 869 218 869 221 l 850 69 q 844 48 847 53 q 828 38 840 43 q 695 -4 761 8 q 563 -17 629 -17 q 336 24 431 -17 q 183 133 242 65 q 96 281 124 200 q 68 443 68 363 q 110 622 68 542 q 223 761 151 703 q 385 851 294 819 q 574 883 476 883 m 526 990 q 485 1004 500 990 q 471 1044 471 1018 q 485 1082 471 1068 q 526 1096 500 1096 q 565 1082 551 1096 q 579 1044 579 1068 q 565 1004 579 1018 q 526 990 551 990 z "},"D":{"ha":956,"x_min":47,"x_max":888,"o":"m 413 -6 q 317 -1 374 -6 q 211 3 260 3 q 125 1 167 3 q 50 0 83 0 q 47 8 47 0 q 50 17 47 17 q 130 24 103 17 q 166 51 157 31 q 175 113 175 72 l 175 756 q 166 816 175 796 q 131 844 157 836 q 51 851 104 851 q 49 860 49 851 q 51 868 49 868 q 126 866 85 868 q 211 864 167 864 q 306 867 256 864 q 393 871 357 871 q 653 815 542 871 q 826 664 764 760 q 888 449 888 568 q 850 260 888 344 q 747 117 813 176 q 594 26 681 58 q 413 -6 508 -6 m 399 13 q 605 59 515 13 q 746 197 694 106 q 797 418 797 288 q 749 638 797 540 q 614 794 701 736 q 406 853 526 853 q 285 835 321 853 q 249 753 249 818 l 249 128 q 277 40 249 68 q 399 13 306 13 z "},"Ð":{"ha":956,"x_min":47,"x_max":888,"o":"m 74 419 q 68 426 69 419 q 68 438 67 432 q 74 444 69 444 l 438 444 q 442 438 442 444 q 442 426 443 432 q 438 419 442 419 l 74 419 m 413 -6 q 317 -1 374 -6 q 211 3 260 3 q 125 1 167 3 q 50 0 83 0 q 47 8 47 0 q 50 17 47 17 q 130 24 103 17 q 166 51 157 31 q 175 113 175 72 l 175 756 q 166 816 175 796 q 131 844 157 836 q 51 851 104 851 q 49 860 49 851 q 51 868 49 868 q 126 866 85 868 q 211 864 167 864 q 306 867 256 864 q 393 871 357 871 q 653 815 542 871 q 826 664 764 760 q 888 449 888 568 q 850 260 888 344 q 747 117 813 176 q 594 26 681 58 q 413 -6 508 -6 m 399 13 q 605 59 515 13 q 746 197 694 106 q 797 418 797 288 q 749 638 797 540 q 614 794 701 736 q 406 853 526 853 q 285 835 321 853 q 249 753 249 818 l 249 128 q 277 40 249 68 q 399 13 306 13 z "},"Ď":{"ha":956,"x_min":47,"x_max":888,"o":"m 413 -6 q 317 -1 374 -6 q 211 3 260 3 q 125 1 167 3 q 50 0 83 0 q 47 8 47 0 q 50 17 47 17 q 130 24 103 17 q 166 51 157 31 q 175 113 175 72 l 175 756 q 166 816 175 796 q 131 844 157 836 q 51 851 104 851 q 49 860 49 851 q 51 868 49 868 q 126 866 85 868 q 211 864 167 864 q 306 867 256 864 q 393 871 357 871 q 653 815 542 871 q 826 664 764 760 q 888 449 888 568 q 850 260 888 344 q 747 117 813 176 q 594 26 681 58 q 413 -6 508 -6 m 399 13 q 605 59 515 13 q 746 197 694 106 q 797 418 797 288 q 749 638 797 540 q 614 794 701 736 q 406 853 526 853 q 285 835 321 853 q 249 753 249 818 l 249 128 q 277 40 249 68 q 399 13 306 13 m 424 954 l 281 1082 q 283 1089 278 1085 q 289 1092 288 1093 l 440 1006 l 590 1092 q 597 1090 593 1094 q 597 1082 601 1085 l 456 954 q 440 949 450 949 q 424 954 431 949 z "},"Đ":{"ha":956,"x_min":47,"x_max":888,"o":"m 74 419 q 68 426 69 419 q 68 438 67 432 q 74 444 69 444 l 438 444 q 442 438 442 444 q 442 426 443 432 q 438 419 442 419 l 74 419 m 413 -6 q 317 -1 374 -6 q 211 3 260 3 q 125 1 167 3 q 50 0 83 0 q 47 8 47 0 q 50 17 47 17 q 130 24 103 17 q 166 51 157 31 q 175 113 175 72 l 175 756 q 166 816 175 796 q 131 844 157 836 q 51 851 104 851 q 49 860 49 851 q 51 868 49 868 q 126 866 85 868 q 211 864 167 864 q 306 867 256 864 q 393 871 357 871 q 653 815 542 871 q 826 664 764 760 q 888 449 888 568 q 850 260 888 344 q 747 117 813 176 q 594 26 681 58 q 413 -6 508 -6 m 399 13 q 605 59 515 13 q 746 197 694 106 q 797 418 797 288 q 749 638 797 540 q 614 794 701 736 q 406 853 526 853 q 285 835 321 853 q 249 753 249 818 l 249 128 q 277 40 249 68 q 399 13 306 13 z "},"Ḍ":{"ha":956,"x_min":47,"x_max":888,"o":"m 413 -6 q 317 -1 374 -6 q 211 3 260 3 q 125 1 167 3 q 50 0 83 0 q 47 8 47 0 q 50 17 47 17 q 130 24 103 17 q 166 51 157 31 q 175 113 175 72 l 175 756 q 166 816 175 796 q 131 844 157 836 q 51 851 104 851 q 49 860 49 851 q 51 868 49 868 q 126 866 85 868 q 211 864 167 864 q 306 867 256 864 q 393 871 357 871 q 653 815 542 871 q 826 664 764 760 q 888 449 888 568 q 850 260 888 344 q 747 117 813 176 q 594 26 681 58 q 413 -6 508 -6 m 399 13 q 605 59 515 13 q 746 197 694 106 q 797 418 797 288 q 749 638 797 540 q 614 794 701 736 q 406 853 526 853 q 285 835 321 853 q 249 753 249 818 l 249 128 q 277 40 249 68 q 399 13 306 13 m 446 -258 q 405 -244 419 -258 q 390 -206 390 -231 q 405 -167 390 -181 q 446 -153 419 -153 q 485 -167 471 -153 q 499 -206 499 -181 q 446 -258 499 -258 z "},"Ḏ":{"ha":956,"x_min":47,"x_max":888,"o":"m 413 -6 q 317 -1 374 -6 q 211 3 260 3 q 125 1 167 3 q 50 0 83 0 q 47 8 47 0 q 50 17 47 17 q 130 24 103 17 q 166 51 157 31 q 175 113 175 72 l 175 756 q 166 816 175 796 q 131 844 157 836 q 51 851 104 851 q 49 860 49 851 q 51 868 49 868 q 126 866 85 868 q 211 864 167 864 q 306 867 256 864 q 393 871 357 871 q 653 815 542 871 q 826 664 764 760 q 888 449 888 568 q 850 260 888 344 q 747 117 813 176 q 594 26 681 58 q 413 -6 508 -6 m 399 13 q 605 59 515 13 q 746 197 694 106 q 797 418 797 288 q 749 638 797 540 q 614 794 701 736 q 406 853 526 853 q 285 835 321 853 q 249 753 249 818 l 249 128 q 277 40 249 68 q 399 13 306 13 m 269 -154 q 263 -145 265 -154 q 263 -127 261 -136 q 269 -118 265 -118 l 618 -118 q 625 -127 624 -118 q 625 -145 626 -136 q 618 -154 624 -154 l 269 -154 z "},"E":{"ha":740,"x_min":58,"x_max":669,"o":"m 635 0 l 61 0 q 58 8 58 0 q 61 17 58 17 q 140 24 114 17 q 176 51 167 31 q 185 113 185 72 l 185 756 q 176 816 185 796 q 140 844 167 836 q 61 851 114 851 q 58 860 58 851 q 61 868 58 868 l 611 868 q 624 856 624 868 l 626 688 q 619 683 626 683 q 611 688 611 683 q 574 801 611 760 q 475 842 536 842 l 379 842 q 302 835 328 842 q 267 808 276 828 q 258 747 258 788 l 258 118 q 267 60 258 79 q 302 33 276 40 q 379 26 328 26 l 507 26 q 603 75 563 26 q 653 203 643 124 q 661 206 653 207 q 669 201 669 206 q 660 115 664 165 q 657 21 657 64 q 635 0 657 0 m 557 326 q 531 414 557 389 q 438 439 504 439 l 224 439 l 224 465 l 442 465 q 531 487 506 465 q 556 561 556 508 q 564 564 556 564 q 572 561 572 564 q 572 499 572 521 q 571 451 571 476 q 572 391 571 421 q 574 326 574 361 q 565 324 574 324 q 557 326 557 324 z "},"É":{"ha":740,"x_min":58,"x_max":669,"o":"m 635 0 l 61 0 q 58 8 58 0 q 61 17 58 17 q 140 24 114 17 q 176 51 167 31 q 185 113 185 72 l 185 756 q 176 816 185 796 q 140 844 167 836 q 61 851 114 851 q 58 860 58 851 q 61 868 58 868 l 611 868 q 624 856 624 868 l 626 688 q 619 683 626 683 q 611 688 611 683 q 574 801 611 760 q 475 842 536 842 l 379 842 q 302 835 328 842 q 267 808 276 828 q 258 747 258 788 l 258 118 q 267 60 258 79 q 302 33 276 40 q 379 26 328 26 l 507 26 q 603 75 563 26 q 653 203 643 124 q 661 206 653 207 q 669 201 669 206 q 660 115 664 165 q 657 21 657 64 q 635 0 657 0 m 557 326 q 531 414 557 389 q 438 439 504 439 l 224 439 l 224 465 l 442 465 q 531 487 506 465 q 556 561 556 508 q 564 564 556 564 q 572 561 572 564 q 572 499 572 521 q 571 451 571 476 q 572 391 571 421 q 574 326 574 361 q 565 324 574 324 q 557 326 557 324 m 268 943 q 260 948 263 940 q 261 957 257 956 q 387 1022 331 989 q 500 1086 443 1056 q 519 1084 504 1089 q 551 1072 535 1079 q 575 1058 567 1064 q 576 1050 583 1051 q 411 1001 483 1028 q 268 943 339 975 z "},"Ĕ":{"ha":740,"x_min":58,"x_max":669,"o":"m 635 0 l 61 0 q 58 8 58 0 q 61 17 58 17 q 140 24 114 17 q 176 51 167 31 q 185 113 185 72 l 185 756 q 176 816 185 796 q 140 844 167 836 q 61 851 114 851 q 58 860 58 851 q 61 868 58 868 l 611 868 q 624 856 624 868 l 626 688 q 619 683 626 683 q 611 688 611 683 q 574 801 611 760 q 475 842 536 842 l 379 842 q 302 835 328 842 q 267 808 276 828 q 258 747 258 788 l 258 118 q 267 60 258 79 q 302 33 276 40 q 379 26 328 26 l 507 26 q 603 75 563 26 q 653 203 643 124 q 661 206 653 207 q 669 201 669 206 q 660 115 664 165 q 657 21 657 64 q 635 0 657 0 m 557 326 q 531 414 557 389 q 438 439 504 439 l 224 439 l 224 465 l 442 465 q 531 487 506 465 q 556 561 556 508 q 564 564 556 564 q 572 561 572 564 q 572 499 572 521 q 571 451 571 476 q 572 391 571 421 q 574 326 574 361 q 565 324 574 324 q 557 326 557 324 m 403 958 q 309 995 346 958 q 260 1100 272 1032 q 266 1106 258 1106 q 275 1104 274 1107 q 323 1035 286 1064 q 403 1006 360 1006 q 481 1035 444 1006 q 529 1104 518 1064 q 538 1106 531 1107 q 544 1100 546 1106 q 496 995 532 1032 q 403 958 460 958 z "},"Ě":{"ha":740,"x_min":58,"x_max":669,"o":"m 635 0 l 61 0 q 58 8 58 0 q 61 17 58 17 q 140 24 114 17 q 176 51 167 31 q 185 113 185 72 l 185 756 q 176 816 185 796 q 140 844 167 836 q 61 851 114 851 q 58 860 58 851 q 61 868 58 868 l 611 868 q 624 856 624 868 l 626 688 q 619 683 626 683 q 611 688 611 683 q 574 801 611 760 q 475 842 536 842 l 379 842 q 302 835 328 842 q 267 808 276 828 q 258 747 258 788 l 258 118 q 267 60 258 79 q 302 33 276 40 q 379 26 328 26 l 507 26 q 603 75 563 26 q 653 203 643 124 q 661 206 653 207 q 669 201 669 206 q 660 115 664 165 q 657 21 657 64 q 635 0 657 0 m 557 326 q 531 414 557 389 q 438 439 504 439 l 224 439 l 224 465 l 442 465 q 531 487 506 465 q 556 561 556 508 q 564 564 556 564 q 572 561 572 564 q 572 499 572 521 q 571 451 571 476 q 572 391 571 421 q 574 326 574 361 q 565 324 574 324 q 557 326 557 324 m 386 954 l 243 1082 q 245 1089 240 1085 q 251 1092 250 1093 l 403 1006 l 553 1092 q 560 1090 556 1094 q 560 1082 564 1085 l 418 954 q 403 949 413 949 q 386 954 393 949 z "},"Ê":{"ha":740,"x_min":58,"x_max":669,"o":"m 635 0 l 61 0 q 58 8 58 0 q 61 17 58 17 q 140 24 114 17 q 176 51 167 31 q 185 113 185 72 l 185 756 q 176 816 185 796 q 140 844 167 836 q 61 851 114 851 q 58 860 58 851 q 61 868 58 868 l 611 868 q 624 856 624 868 l 626 688 q 619 683 626 683 q 611 688 611 683 q 574 801 611 760 q 475 842 536 842 l 379 842 q 302 835 328 842 q 267 808 276 828 q 258 747 258 788 l 258 118 q 267 60 258 79 q 302 33 276 40 q 379 26 328 26 l 507 26 q 603 75 563 26 q 653 203 643 124 q 661 206 653 207 q 669 201 669 206 q 660 115 664 165 q 657 21 657 64 q 635 0 657 0 m 557 326 q 531 414 557 389 q 438 439 504 439 l 224 439 l 224 465 l 442 465 q 531 487 506 465 q 556 561 556 508 q 564 564 556 564 q 572 561 572 564 q 572 499 572 521 q 571 451 571 476 q 572 391 571 421 q 574 326 574 361 q 565 324 574 324 q 557 326 557 324 m 244 958 l 388 1088 q 404 1094 394 1094 q 419 1088 414 1094 l 561 958 q 561 952 565 957 q 554 949 557 947 l 404 1035 l 253 949 q 247 952 251 947 q 244 958 242 957 z "},"Ế":{"ha":740,"x_min":58,"x_max":679,"o":"m 635 0 l 61 0 q 58 8 58 0 q 61 17 58 17 q 140 24 114 17 q 176 51 167 31 q 185 113 185 72 l 185 756 q 176 816 185 796 q 140 844 167 836 q 61 851 114 851 q 58 860 58 851 q 61 868 58 868 l 611 868 q 624 856 624 868 l 626 688 q 619 683 626 683 q 611 688 611 683 q 574 801 611 760 q 475 842 536 842 l 379 842 q 302 835 328 842 q 267 808 276 828 q 258 747 258 788 l 258 118 q 267 60 258 79 q 302 33 276 40 q 379 26 328 26 l 507 26 q 603 75 563 26 q 653 203 643 124 q 661 206 653 207 q 669 201 669 206 q 660 115 664 165 q 657 21 657 64 q 635 0 657 0 m 557 326 q 531 414 557 389 q 438 439 504 439 l 224 439 l 224 465 l 442 465 q 531 487 506 465 q 556 561 556 508 q 564 564 556 564 q 572 561 572 564 q 572 499 572 521 q 571 451 571 476 q 572 391 571 421 q 574 326 574 361 q 565 324 574 324 q 557 326 557 324 m 243 956 l 386 1083 q 403 1090 393 1090 q 418 1083 413 1090 l 560 956 q 560 949 564 954 q 553 946 556 944 l 403 1032 l 251 946 q 245 949 250 944 q 243 956 240 954 m 494 997 q 485 999 489 994 q 485 1008 482 1004 q 544 1074 517 1040 q 597 1140 572 1107 q 610 1141 600 1143 q 633 1133 621 1139 q 658 1122 646 1128 q 674 1110 669 1115 q 674 1104 679 1106 q 578 1056 619 1082 q 494 997 536 1029 z "},"Ệ":{"ha":740,"x_min":58,"x_max":669,"o":"m 635 0 l 61 0 q 58 8 58 0 q 61 17 58 17 q 140 24 114 17 q 176 51 167 31 q 185 113 185 72 l 185 756 q 176 816 185 796 q 140 844 167 836 q 61 851 114 851 q 58 860 58 851 q 61 868 58 868 l 611 868 q 624 856 624 868 l 626 688 q 619 683 626 683 q 611 688 611 683 q 574 801 611 760 q 475 842 536 842 l 379 842 q 302 835 328 842 q 267 808 276 828 q 258 747 258 788 l 258 118 q 267 60 258 79 q 302 33 276 40 q 379 26 328 26 l 507 26 q 603 75 563 26 q 653 203 643 124 q 661 206 653 207 q 669 201 669 206 q 660 115 664 165 q 657 21 657 64 q 635 0 657 0 m 557 326 q 531 414 557 389 q 438 439 504 439 l 224 439 l 224 465 l 442 465 q 531 487 506 465 q 556 561 556 508 q 564 564 556 564 q 572 561 572 564 q 572 499 572 521 q 571 451 571 476 q 572 391 571 421 q 574 326 574 361 q 565 324 574 324 q 557 326 557 324 m 396 -258 q 355 -244 369 -258 q 340 -206 340 -231 q 355 -167 340 -181 q 396 -153 369 -153 q 435 -167 421 -153 q 449 -206 449 -181 q 396 -258 449 -258 m 243 956 l 386 1083 q 403 1090 393 1090 q 418 1083 413 1090 l 560 956 q 560 949 564 954 q 553 946 556 944 l 403 1032 l 251 946 q 245 949 250 944 q 243 956 240 954 z "},"Ề":{"ha":740,"x_min":58,"x_max":669,"o":"m 635 0 l 61 0 q 58 8 58 0 q 61 17 58 17 q 140 24 114 17 q 176 51 167 31 q 185 113 185 72 l 185 756 q 176 816 185 796 q 140 844 167 836 q 61 851 114 851 q 58 860 58 851 q 61 868 58 868 l 611 868 q 624 856 624 868 l 626 688 q 619 683 626 683 q 611 688 611 683 q 574 801 611 760 q 475 842 536 842 l 379 842 q 302 835 328 842 q 267 808 276 828 q 258 747 258 788 l 258 118 q 267 60 258 79 q 302 33 276 40 q 379 26 328 26 l 507 26 q 603 75 563 26 q 653 203 643 124 q 661 206 653 207 q 669 201 669 206 q 660 115 664 165 q 657 21 657 64 q 635 0 657 0 m 557 326 q 531 414 557 389 q 438 439 504 439 l 224 439 l 224 465 l 442 465 q 531 487 506 465 q 556 561 556 508 q 564 564 556 564 q 572 561 572 564 q 572 499 572 521 q 571 451 571 476 q 572 391 571 421 q 574 326 574 361 q 565 324 574 324 q 557 326 557 324 m 243 956 l 386 1083 q 403 1090 393 1090 q 418 1083 413 1090 l 560 956 q 560 949 564 954 q 553 946 556 944 l 403 1032 l 251 946 q 245 949 250 944 q 243 956 240 954 m 640 965 q 557 1024 599 997 q 461 1072 515 1050 q 461 1078 456 1074 q 478 1090 467 1083 q 502 1101 489 1096 q 526 1109 515 1107 q 538 1108 536 1111 q 591 1042 563 1075 q 650 978 619 1010 q 651 967 656 972 q 640 965 647 963 z "},"Ể":{"ha":740,"x_min":58,"x_max":669,"o":"m 635 0 l 61 0 q 58 8 58 0 q 61 17 58 17 q 140 24 114 17 q 176 51 167 31 q 185 113 185 72 l 185 756 q 176 816 185 796 q 140 844 167 836 q 61 851 114 851 q 58 860 58 851 q 61 868 58 868 l 611 868 q 624 856 624 868 l 626 688 q 619 683 626 683 q 611 688 611 683 q 574 801 611 760 q 475 842 536 842 l 379 842 q 302 835 328 842 q 267 808 276 828 q 258 747 258 788 l 258 118 q 267 60 258 79 q 302 33 276 40 q 379 26 328 26 l 507 26 q 603 75 563 26 q 653 203 643 124 q 661 206 653 207 q 669 201 669 206 q 660 115 664 165 q 657 21 657 64 q 635 0 657 0 m 557 326 q 531 414 557 389 q 438 439 504 439 l 224 439 l 224 465 l 442 465 q 531 487 506 465 q 556 561 556 508 q 564 564 556 564 q 572 561 572 564 q 572 499 572 521 q 571 451 571 476 q 572 391 571 421 q 574 326 574 361 q 565 324 574 324 q 557 326 557 324 m 243 956 l 386 1083 q 403 1090 393 1090 q 418 1083 413 1090 l 560 956 q 560 949 564 954 q 553 946 556 944 l 403 1032 l 251 946 q 245 949 250 944 q 243 956 240 954 m 511 1003 q 513 1046 503 1026 q 538 1085 524 1065 q 551 1126 551 1104 q 535 1159 551 1149 q 503 1169 519 1169 q 468 1161 483 1169 q 460 1165 465 1160 q 458 1172 454 1171 q 503 1192 481 1186 q 542 1199 526 1199 q 590 1180 574 1199 q 606 1140 606 1161 q 592 1101 606 1118 q 560 1067 578 1083 q 532 1036 543 1051 q 526 1003 521 1021 q 521 999 529 1000 q 511 1003 513 999 z "},"Ễ":{"ha":740,"x_min":58,"x_max":669,"o":"m 635 0 l 61 0 q 58 8 58 0 q 61 17 58 17 q 140 24 114 17 q 176 51 167 31 q 185 113 185 72 l 185 756 q 176 816 185 796 q 140 844 167 836 q 61 851 114 851 q 58 860 58 851 q 61 868 58 868 l 611 868 q 624 856 624 868 l 626 688 q 619 683 626 683 q 611 688 611 683 q 574 801 611 760 q 475 842 536 842 l 379 842 q 302 835 328 842 q 267 808 276 828 q 258 747 258 788 l 258 118 q 267 60 258 79 q 302 33 276 40 q 379 26 328 26 l 507 26 q 603 75 563 26 q 653 203 643 124 q 661 206 653 207 q 669 201 669 206 q 660 115 664 165 q 657 21 657 64 q 635 0 657 0 m 557 326 q 531 414 557 389 q 438 439 504 439 l 224 439 l 224 465 l 442 465 q 531 487 506 465 q 556 561 556 508 q 564 564 556 564 q 572 561 572 564 q 572 499 572 521 q 571 451 571 476 q 572 391 571 421 q 574 326 574 361 q 565 324 574 324 q 557 326 557 324 m 243 956 l 386 1083 q 403 1090 393 1090 q 418 1083 413 1090 l 560 956 q 560 949 564 954 q 553 946 556 944 l 403 1032 l 251 946 q 245 949 250 944 q 243 956 240 954 m 517 1153 q 559 1165 544 1153 q 585 1190 574 1176 q 592 1188 588 1193 q 594 1181 597 1183 q 533 1116 557 1132 q 486 1100 510 1100 q 426 1109 454 1100 q 368 1126 397 1118 q 303 1135 339 1135 q 262 1123 275 1135 q 235 1097 249 1111 q 227 1099 232 1096 q 225 1107 222 1103 q 255 1140 236 1122 q 296 1172 274 1158 q 342 1186 318 1186 q 394 1178 367 1186 q 451 1161 421 1169 q 517 1153 482 1153 z "},"Ȅ":{"ha":740,"x_min":58,"x_max":669,"o":"m 542 944 q 450 1001 494 976 q 347 1050 406 1026 q 350 1059 340 1053 q 376 1071 360 1065 q 408 1079 393 1076 q 428 1078 424 1082 q 487 1018 457 1047 q 553 957 517 989 q 551 947 556 954 q 542 944 547 940 m 379 944 q 288 1002 332 976 q 189 1050 244 1028 q 191 1059 182 1053 q 217 1071 200 1065 q 247 1079 233 1076 q 265 1078 261 1082 q 324 1018 294 1047 q 390 957 354 989 q 389 947 393 954 q 379 944 385 940 m 635 0 l 61 0 q 58 8 58 0 q 61 17 58 17 q 140 24 114 17 q 176 51 167 31 q 185 113 185 72 l 185 756 q 176 816 185 796 q 140 844 167 836 q 61 851 114 851 q 58 860 58 851 q 61 868 58 868 l 611 868 q 624 856 624 868 l 626 688 q 619 683 626 683 q 611 688 611 683 q 574 801 611 760 q 475 842 536 842 l 379 842 q 302 835 328 842 q 267 808 276 828 q 258 747 258 788 l 258 118 q 267 60 258 79 q 302 33 276 40 q 379 26 328 26 l 507 26 q 603 75 563 26 q 653 203 643 124 q 661 206 653 207 q 669 201 669 206 q 660 115 664 165 q 657 21 657 64 q 635 0 657 0 m 557 326 q 531 414 557 389 q 438 439 504 439 l 224 439 l 224 465 l 442 465 q 531 487 506 465 q 556 561 556 508 q 564 564 556 564 q 572 561 572 564 q 572 499 572 521 q 571 451 571 476 q 572 391 571 421 q 574 326 574 361 q 565 324 574 324 q 557 326 557 324 z "},"Ë":{"ha":740,"x_min":58,"x_max":669,"o":"m 635 0 l 61 0 q 58 8 58 0 q 61 17 58 17 q 140 24 114 17 q 176 51 167 31 q 185 113 185 72 l 185 756 q 176 816 185 796 q 140 844 167 836 q 61 851 114 851 q 58 860 58 851 q 61 868 58 868 l 611 868 q 624 856 624 868 l 626 688 q 619 683 626 683 q 611 688 611 683 q 574 801 611 760 q 475 842 536 842 l 379 842 q 302 835 328 842 q 267 808 276 828 q 258 747 258 788 l 258 118 q 267 60 258 79 q 302 33 276 40 q 379 26 328 26 l 507 26 q 603 75 563 26 q 653 203 643 124 q 661 206 653 207 q 669 201 669 206 q 660 115 664 165 q 657 21 657 64 q 635 0 657 0 m 557 326 q 531 414 557 389 q 438 439 504 439 l 224 439 l 224 465 l 442 465 q 531 487 506 465 q 556 561 556 508 q 564 564 556 564 q 572 561 572 564 q 572 499 572 521 q 571 451 571 476 q 572 391 571 421 q 574 326 574 361 q 565 324 574 324 q 557 326 557 324 m 282 1000 q 241 1014 256 1000 q 226 1053 226 1028 q 241 1092 226 1078 q 282 1106 256 1106 q 321 1092 307 1106 q 335 1053 335 1078 q 282 1000 335 1000 m 525 1000 q 485 1014 500 1000 q 469 1053 469 1028 q 485 1092 469 1078 q 525 1106 500 1106 q 579 1053 579 1106 q 525 1000 579 1000 z "},"Ė":{"ha":740,"x_min":58,"x_max":669,"o":"m 635 0 l 61 0 q 58 8 58 0 q 61 17 58 17 q 140 24 114 17 q 176 51 167 31 q 185 113 185 72 l 185 756 q 176 816 185 796 q 140 844 167 836 q 61 851 114 851 q 58 860 58 851 q 61 868 58 868 l 611 868 q 624 856 624 868 l 626 688 q 619 683 626 683 q 611 688 611 683 q 574 801 611 760 q 475 842 536 842 l 379 842 q 302 835 328 842 q 267 808 276 828 q 258 747 258 788 l 258 118 q 267 60 258 79 q 302 33 276 40 q 379 26 328 26 l 507 26 q 603 75 563 26 q 653 203 643 124 q 661 206 653 207 q 669 201 669 206 q 660 115 664 165 q 657 21 657 64 q 635 0 657 0 m 557 326 q 531 414 557 389 q 438 439 504 439 l 224 439 l 224 465 l 442 465 q 531 487 506 465 q 556 561 556 508 q 564 564 556 564 q 572 561 572 564 q 572 499 572 521 q 571 451 571 476 q 572 391 571 421 q 574 326 574 361 q 565 324 574 324 q 557 326 557 324 m 403 990 q 362 1004 376 990 q 347 1044 347 1018 q 362 1082 347 1068 q 403 1096 376 1096 q 442 1082 428 1096 q 456 1044 456 1068 q 442 1004 456 1018 q 403 990 428 990 z "},"Ẹ":{"ha":740,"x_min":58,"x_max":669,"o":"m 635 0 l 61 0 q 58 8 58 0 q 61 17 58 17 q 140 24 114 17 q 176 51 167 31 q 185 113 185 72 l 185 756 q 176 816 185 796 q 140 844 167 836 q 61 851 114 851 q 58 860 58 851 q 61 868 58 868 l 611 868 q 624 856 624 868 l 626 688 q 619 683 626 683 q 611 688 611 683 q 574 801 611 760 q 475 842 536 842 l 379 842 q 302 835 328 842 q 267 808 276 828 q 258 747 258 788 l 258 118 q 267 60 258 79 q 302 33 276 40 q 379 26 328 26 l 507 26 q 603 75 563 26 q 653 203 643 124 q 661 206 653 207 q 669 201 669 206 q 660 115 664 165 q 657 21 657 64 q 635 0 657 0 m 557 326 q 531 414 557 389 q 438 439 504 439 l 224 439 l 224 465 l 442 465 q 531 487 506 465 q 556 561 556 508 q 564 564 556 564 q 572 561 572 564 q 572 499 572 521 q 571 451 571 476 q 572 391 571 421 q 574 326 574 361 q 565 324 574 324 q 557 326 557 324 m 396 -258 q 355 -244 369 -258 q 340 -206 340 -231 q 355 -167 340 -181 q 396 -153 369 -153 q 435 -167 421 -153 q 449 -206 449 -181 q 396 -258 449 -258 z "},"È":{"ha":740,"x_min":58,"x_max":669,"o":"m 635 0 l 61 0 q 58 8 58 0 q 61 17 58 17 q 140 24 114 17 q 176 51 167 31 q 185 113 185 72 l 185 756 q 176 816 185 796 q 140 844 167 836 q 61 851 114 851 q 58 860 58 851 q 61 868 58 868 l 611 868 q 624 856 624 868 l 626 688 q 619 683 626 683 q 611 688 611 683 q 574 801 611 760 q 475 842 536 842 l 379 842 q 302 835 328 842 q 267 808 276 828 q 258 747 258 788 l 258 118 q 267 60 258 79 q 302 33 276 40 q 379 26 328 26 l 507 26 q 603 75 563 26 q 653 203 643 124 q 661 206 653 207 q 669 201 669 206 q 660 115 664 165 q 657 21 657 64 q 635 0 657 0 m 557 326 q 531 414 557 389 q 438 439 504 439 l 224 439 l 224 465 l 442 465 q 531 487 506 465 q 556 561 556 508 q 564 564 556 564 q 572 561 572 564 q 572 499 572 521 q 571 451 571 476 q 572 391 571 421 q 574 326 574 361 q 565 324 574 324 q 557 326 557 324 m 540 943 q 397 1001 469 975 q 231 1050 324 1028 q 233 1058 224 1051 q 258 1072 242 1064 q 288 1084 274 1079 q 307 1086 303 1089 q 421 1022 364 1054 q 546 957 478 989 q 549 948 551 956 q 540 943 546 940 z "},"Ẻ":{"ha":740,"x_min":58,"x_max":669,"o":"m 635 0 l 61 0 q 58 8 58 0 q 61 17 58 17 q 140 24 114 17 q 176 51 167 31 q 185 113 185 72 l 185 756 q 176 816 185 796 q 140 844 167 836 q 61 851 114 851 q 58 860 58 851 q 61 868 58 868 l 611 868 q 624 856 624 868 l 626 688 q 619 683 626 683 q 611 688 611 683 q 574 801 611 760 q 475 842 536 842 l 379 842 q 302 835 328 842 q 267 808 276 828 q 258 747 258 788 l 258 118 q 267 60 258 79 q 302 33 276 40 q 379 26 328 26 l 507 26 q 603 75 563 26 q 653 203 643 124 q 661 206 653 207 q 669 201 669 206 q 660 115 664 165 q 657 21 657 64 q 635 0 657 0 m 557 326 q 531 414 557 389 q 438 439 504 439 l 224 439 l 224 465 l 442 465 q 531 487 506 465 q 556 561 556 508 q 564 564 556 564 q 572 561 572 564 q 572 499 572 521 q 571 451 571 476 q 572 391 571 421 q 574 326 574 361 q 565 324 574 324 q 557 326 557 324 m 407 904 q 401 902 408 903 q 392 904 393 901 q 390 957 382 933 q 411 1000 397 981 q 437 1039 425 1019 q 449 1081 449 1058 q 428 1123 449 1108 q 385 1138 408 1138 q 365 1135 375 1138 q 349 1129 356 1132 q 340 1133 346 1128 q 339 1140 333 1139 q 383 1160 361 1154 q 424 1167 406 1167 q 488 1144 467 1167 q 510 1094 510 1122 q 492 1042 510 1065 q 451 999 474 1019 q 415 956 429 978 q 407 904 400 933 z "},"Ȇ":{"ha":740,"x_min":58,"x_max":669,"o":"m 635 0 l 61 0 q 58 8 58 0 q 61 17 58 17 q 140 24 114 17 q 176 51 167 31 q 185 113 185 72 l 185 756 q 176 816 185 796 q 140 844 167 836 q 61 851 114 851 q 58 860 58 851 q 61 868 58 868 l 611 868 q 624 856 624 868 l 626 688 q 619 683 626 683 q 611 688 611 683 q 574 801 611 760 q 475 842 536 842 l 379 842 q 302 835 328 842 q 267 808 276 828 q 258 747 258 788 l 258 118 q 267 60 258 79 q 302 33 276 40 q 379 26 328 26 l 507 26 q 603 75 563 26 q 653 203 643 124 q 661 206 653 207 q 669 201 669 206 q 660 115 664 165 q 657 21 657 64 q 635 0 657 0 m 557 326 q 531 414 557 389 q 438 439 504 439 l 224 439 l 224 465 l 442 465 q 531 487 506 465 q 556 561 556 508 q 564 564 556 564 q 572 561 572 564 q 572 499 572 521 q 571 451 571 476 q 572 391 571 421 q 574 326 574 361 q 565 324 574 324 q 557 326 557 324 m 275 947 q 266 944 274 943 q 260 950 258 946 q 403 1092 286 1092 q 544 950 518 1092 q 538 944 546 946 q 529 947 531 943 q 481 1016 518 988 q 403 1044 444 1044 q 323 1016 360 1044 q 275 947 286 988 z "},"Ē":{"ha":740,"x_min":58,"x_max":669,"o":"m 635 0 l 61 0 q 58 8 58 0 q 61 17 58 17 q 140 24 114 17 q 176 51 167 31 q 185 113 185 72 l 185 756 q 176 816 185 796 q 140 844 167 836 q 61 851 114 851 q 58 860 58 851 q 61 868 58 868 l 611 868 q 624 856 624 868 l 626 688 q 619 683 626 683 q 611 688 611 683 q 574 801 611 760 q 475 842 536 842 l 379 842 q 302 835 328 842 q 267 808 276 828 q 258 747 258 788 l 258 118 q 267 60 258 79 q 302 33 276 40 q 379 26 328 26 l 507 26 q 603 75 563 26 q 653 203 643 124 q 661 206 653 207 q 669 201 669 206 q 660 115 664 165 q 657 21 657 64 q 635 0 657 0 m 557 326 q 531 414 557 389 q 438 439 504 439 l 224 439 l 224 465 l 442 465 q 531 487 506 465 q 556 561 556 508 q 564 564 556 564 q 572 561 572 564 q 572 499 572 521 q 571 451 571 476 q 572 391 571 421 q 574 326 574 361 q 565 324 574 324 q 557 326 557 324 m 228 1006 q 222 1015 224 1006 q 222 1033 219 1024 q 228 1042 224 1042 l 576 1042 q 583 1033 582 1042 q 583 1015 585 1024 q 576 1006 582 1006 l 228 1006 z "},"Ę":{"ha":740,"x_min":58,"x_max":701,"o":"m 635 0 l 61 0 q 58 8 58 0 q 61 17 58 17 q 140 24 114 17 q 176 51 167 31 q 185 113 185 72 l 185 756 q 176 816 185 796 q 140 844 167 836 q 61 851 114 851 q 58 860 58 851 q 61 868 58 868 l 611 868 q 624 856 624 868 l 626 688 q 619 683 626 683 q 611 688 611 683 q 574 801 611 760 q 475 842 536 842 l 379 842 q 302 835 328 842 q 267 808 276 828 q 258 747 258 788 l 258 118 q 267 60 258 79 q 302 33 276 40 q 379 26 328 26 l 507 26 q 603 75 563 26 q 653 203 643 124 q 661 206 653 207 q 669 201 669 206 q 660 115 664 165 q 657 21 657 64 q 635 0 657 0 m 557 326 q 531 414 557 389 q 438 439 504 439 l 224 439 l 224 465 l 442 465 q 531 487 506 465 q 556 561 556 508 q 564 564 556 564 q 572 561 572 564 q 572 499 572 521 q 571 451 571 476 q 572 391 571 421 q 574 326 574 361 q 565 324 574 324 q 557 326 557 324 m 560 8 l 575 1 q 488 -101 515 -51 q 461 -208 461 -151 q 493 -308 461 -272 q 589 -344 525 -344 q 647 -333 625 -344 q 688 -308 669 -322 q 697 -311 692 -306 q 697 -319 701 -317 q 624 -367 660 -353 q 549 -382 588 -382 q 433 -345 472 -382 q 394 -249 394 -308 q 436 -121 394 -185 q 560 8 478 -57 z "},"Ẽ":{"ha":740,"x_min":58,"x_max":669,"o":"m 635 0 l 61 0 q 58 8 58 0 q 61 17 58 17 q 140 24 114 17 q 176 51 167 31 q 185 113 185 72 l 185 756 q 176 816 185 796 q 140 844 167 836 q 61 851 114 851 q 58 860 58 851 q 61 868 58 868 l 611 868 q 624 856 624 868 l 626 688 q 619 683 626 683 q 611 688 611 683 q 574 801 611 760 q 475 842 536 842 l 379 842 q 302 835 328 842 q 267 808 276 828 q 258 747 258 788 l 258 118 q 267 60 258 79 q 302 33 276 40 q 379 26 328 26 l 507 26 q 603 75 563 26 q 653 203 643 124 q 661 206 653 207 q 669 201 669 206 q 660 115 664 165 q 657 21 657 64 q 635 0 657 0 m 557 326 q 531 414 557 389 q 438 439 504 439 l 224 439 l 224 465 l 442 465 q 531 487 506 465 q 556 561 556 508 q 564 564 556 564 q 572 561 572 564 q 572 499 572 521 q 571 451 571 476 q 572 391 571 421 q 574 326 574 361 q 565 324 574 324 q 557 326 557 324 m 510 1044 q 552 1056 538 1044 q 578 1082 567 1068 q 585 1080 581 1085 q 588 1072 590 1075 q 526 1008 550 1024 q 479 992 503 992 q 419 1001 447 992 q 361 1018 390 1010 q 296 1026 332 1026 q 255 1015 268 1026 q 228 989 242 1003 q 220 991 225 988 q 218 999 215 994 q 248 1032 229 1014 q 289 1064 267 1050 q 335 1078 311 1078 q 387 1069 360 1078 q 444 1053 414 1061 q 510 1044 475 1044 z "},"Ə":{"ha":889,"x_min":71,"x_max":813,"o":"m 376 -17 q 235 8 293 -17 q 141 69 178 32 q 88 149 104 107 q 71 226 71 190 q 88 243 71 243 l 156 243 q 191 121 156 174 q 288 39 226 68 q 425 10 349 10 q 650 115 574 10 q 726 400 726 219 q 688 638 726 532 q 576 806 649 743 q 400 868 503 868 q 284 848 344 868 q 174 785 224 828 q 101 676 125 743 q 92 672 100 671 q 85 678 83 674 l 142 883 q 150 889 143 890 q 156 882 157 888 q 162 847 151 857 q 193 843 172 836 q 297 874 253 864 q 399 883 342 883 q 599 845 519 883 q 726 743 679 807 q 793 603 774 679 q 813 450 813 526 q 753 197 813 301 q 595 38 694 92 q 376 -17 496 -17 m 731 246 l 732 219 l 140 213 l 140 243 l 731 246 z "},"F":{"ha":703,"x_min":58,"x_max":626,"o":"m 61 0 q 58 8 58 0 q 61 17 58 17 q 140 24 114 17 q 176 51 167 31 q 185 113 185 72 l 185 756 q 176 816 185 796 q 140 844 167 836 q 61 851 114 851 q 58 860 58 851 q 61 868 58 868 l 611 868 q 624 856 624 868 l 626 688 q 619 683 626 683 q 611 688 611 683 q 574 801 611 760 q 475 842 536 842 l 379 842 q 281 825 304 842 q 258 754 258 808 l 258 118 q 270 55 258 76 q 319 25 282 33 q 432 17 357 17 q 436 8 436 17 q 432 0 436 0 q 335 1 388 0 q 222 3 283 3 q 136 1 178 3 q 61 0 94 0 m 540 310 q 510 397 540 372 q 404 422 481 422 l 224 422 l 224 449 l 410 449 q 510 471 482 449 q 539 544 539 493 q 547 547 539 547 q 556 544 556 547 q 555 482 556 504 q 554 435 554 460 q 556 374 554 404 q 557 310 557 344 q 549 307 557 307 q 540 310 540 307 z "},"G":{"ha":990,"x_min":68,"x_max":938,"o":"m 561 -17 q 295 42 406 -17 q 126 201 185 101 q 68 424 68 301 q 108 610 68 526 q 219 756 147 694 q 387 850 290 817 q 597 883 483 883 q 725 870 664 883 q 826 831 786 857 q 840 815 839 821 q 842 799 840 810 l 858 653 q 851 648 858 650 q 842 651 843 646 q 738 803 815 751 q 540 854 660 854 q 255 752 356 854 q 154 472 154 650 q 212 231 154 336 q 369 67 269 126 q 594 7 468 7 q 708 19 665 7 q 769 68 750 32 q 789 175 789 104 q 780 273 789 242 q 737 314 771 304 q 626 324 703 324 q 618 335 618 324 q 625 346 618 346 q 782 340 711 340 q 931 343 853 339 q 938 333 938 343 q 931 324 938 324 q 880 315 896 325 q 860 269 864 304 q 856 161 856 235 q 858 93 856 115 q 863 60 861 71 q 865 39 865 50 q 863 28 865 31 q 850 22 860 25 q 706 -6 781 6 q 561 -17 631 -17 z "},"Ğ":{"ha":990,"x_min":68,"x_max":938,"o":"m 561 -17 q 295 42 406 -17 q 126 201 185 101 q 68 424 68 301 q 108 610 68 526 q 219 756 147 694 q 387 850 290 817 q 597 883 483 883 q 725 870 664 883 q 826 831 786 857 q 840 815 839 821 q 842 799 840 810 l 858 653 q 851 648 858 650 q 842 651 843 646 q 738 803 815 751 q 540 854 660 854 q 255 752 356 854 q 154 472 154 650 q 212 231 154 336 q 369 67 269 126 q 594 7 468 7 q 708 19 665 7 q 769 68 750 32 q 789 175 789 104 q 780 273 789 242 q 737 314 771 304 q 626 324 703 324 q 618 335 618 324 q 625 346 618 346 q 782 340 711 340 q 931 343 853 339 q 938 333 938 343 q 931 324 938 324 q 880 315 896 325 q 860 269 864 304 q 856 161 856 235 q 858 93 856 115 q 863 60 861 71 q 865 39 865 50 q 863 28 865 31 q 850 22 860 25 q 706 -6 781 6 q 561 -17 631 -17 m 547 958 q 453 995 490 958 q 404 1100 417 1032 q 410 1106 403 1106 q 419 1104 418 1107 q 467 1035 431 1064 q 547 1006 504 1006 q 626 1035 589 1006 q 674 1104 663 1064 q 683 1106 675 1107 q 689 1100 690 1106 q 640 995 676 1032 q 547 958 604 958 z "},"Ǧ":{"ha":990,"x_min":68,"x_max":938,"o":"m 561 -17 q 295 42 406 -17 q 126 201 185 101 q 68 424 68 301 q 108 610 68 526 q 219 756 147 694 q 387 850 290 817 q 597 883 483 883 q 725 870 664 883 q 826 831 786 857 q 840 815 839 821 q 842 799 840 810 l 858 653 q 851 648 858 650 q 842 651 843 646 q 738 803 815 751 q 540 854 660 854 q 255 752 356 854 q 154 472 154 650 q 212 231 154 336 q 369 67 269 126 q 594 7 468 7 q 708 19 665 7 q 769 68 750 32 q 789 175 789 104 q 780 273 789 242 q 737 314 771 304 q 626 324 703 324 q 618 335 618 324 q 625 346 618 346 q 782 340 711 340 q 931 343 853 339 q 938 333 938 343 q 931 324 938 324 q 880 315 896 325 q 860 269 864 304 q 856 161 856 235 q 858 93 856 115 q 863 60 861 71 q 865 39 865 50 q 863 28 865 31 q 850 22 860 25 q 706 -6 781 6 q 561 -17 631 -17 m 531 954 l 388 1082 q 390 1089 385 1085 q 396 1092 394 1093 l 547 1006 l 697 1092 q 704 1090 700 1094 q 704 1082 708 1085 l 563 954 q 547 949 557 949 q 531 954 538 949 z "},"Ĝ":{"ha":990,"x_min":68,"x_max":938,"o":"m 561 -17 q 295 42 406 -17 q 126 201 185 101 q 68 424 68 301 q 108 610 68 526 q 219 756 147 694 q 387 850 290 817 q 597 883 483 883 q 725 870 664 883 q 826 831 786 857 q 840 815 839 821 q 842 799 840 810 l 858 653 q 851 648 858 650 q 842 651 843 646 q 738 803 815 751 q 540 854 660 854 q 255 752 356 854 q 154 472 154 650 q 212 231 154 336 q 369 67 269 126 q 594 7 468 7 q 708 19 665 7 q 769 68 750 32 q 789 175 789 104 q 780 273 789 242 q 737 314 771 304 q 626 324 703 324 q 618 335 618 324 q 625 346 618 346 q 782 340 711 340 q 931 343 853 339 q 938 333 938 343 q 931 324 938 324 q 880 315 896 325 q 860 269 864 304 q 856 161 856 235 q 858 93 856 115 q 863 60 861 71 q 865 39 865 50 q 863 28 865 31 q 850 22 860 25 q 706 -6 781 6 q 561 -17 631 -17 m 389 958 l 532 1088 q 549 1094 539 1094 q 564 1088 558 1094 l 706 958 q 706 952 710 957 q 699 949 701 947 l 549 1035 l 397 949 q 391 952 396 947 q 389 958 386 957 z "},"Ģ":{"ha":990,"x_min":68,"x_max":938,"o":"m 561 -17 q 295 42 406 -17 q 126 201 185 101 q 68 424 68 301 q 108 610 68 526 q 219 756 147 694 q 387 850 290 817 q 597 883 483 883 q 725 870 664 883 q 826 831 786 857 q 840 815 839 821 q 842 799 840 810 l 858 653 q 851 648 858 650 q 842 651 843 646 q 738 803 815 751 q 540 854 660 854 q 255 752 356 854 q 154 472 154 650 q 212 231 154 336 q 369 67 269 126 q 594 7 468 7 q 708 19 665 7 q 769 68 750 32 q 789 175 789 104 q 780 273 789 242 q 737 314 771 304 q 626 324 703 324 q 618 335 618 324 q 625 346 618 346 q 782 340 711 340 q 931 343 853 339 q 938 333 938 343 q 931 324 938 324 q 880 315 896 325 q 860 269 864 304 q 856 161 856 235 q 858 93 856 115 q 863 60 861 71 q 865 39 865 50 q 863 28 865 31 q 850 22 860 25 q 706 -6 781 6 q 561 -17 631 -17 m 565 -382 q 555 -380 560 -385 q 554 -372 550 -375 q 600 -308 586 -342 q 614 -240 614 -275 q 606 -199 614 -210 q 588 -181 599 -187 l 610 -176 q 601 -210 614 -199 q 568 -221 588 -221 q 531 -208 544 -221 q 518 -172 518 -194 q 533 -134 518 -144 q 571 -124 549 -124 q 626 -149 607 -124 q 644 -222 644 -174 q 624 -308 644 -269 q 565 -382 603 -346 z "},"Ġ":{"ha":990,"x_min":68,"x_max":938,"o":"m 561 -17 q 295 42 406 -17 q 126 201 185 101 q 68 424 68 301 q 108 610 68 526 q 219 756 147 694 q 387 850 290 817 q 597 883 483 883 q 725 870 664 883 q 826 831 786 857 q 840 815 839 821 q 842 799 840 810 l 858 653 q 851 648 858 650 q 842 651 843 646 q 738 803 815 751 q 540 854 660 854 q 255 752 356 854 q 154 472 154 650 q 212 231 154 336 q 369 67 269 126 q 594 7 468 7 q 708 19 665 7 q 769 68 750 32 q 789 175 789 104 q 780 273 789 242 q 737 314 771 304 q 626 324 703 324 q 618 335 618 324 q 625 346 618 346 q 782 340 711 340 q 931 343 853 339 q 938 333 938 343 q 931 324 938 324 q 880 315 896 325 q 860 269 864 304 q 856 161 856 235 q 858 93 856 115 q 863 60 861 71 q 865 39 865 50 q 863 28 865 31 q 850 22 860 25 q 706 -6 781 6 q 561 -17 631 -17 m 547 990 q 506 1004 521 990 q 492 1044 492 1018 q 506 1082 492 1068 q 547 1096 521 1096 q 586 1082 572 1096 q 600 1044 600 1068 q 586 1004 600 1018 q 547 990 572 990 z "},"Ḡ":{"ha":990,"x_min":68,"x_max":938,"o":"m 561 -17 q 295 42 406 -17 q 126 201 185 101 q 68 424 68 301 q 108 610 68 526 q 219 756 147 694 q 387 850 290 817 q 597 883 483 883 q 725 870 664 883 q 826 831 786 857 q 840 815 839 821 q 842 799 840 810 l 858 653 q 851 648 858 650 q 842 651 843 646 q 738 803 815 751 q 540 854 660 854 q 255 752 356 854 q 154 472 154 650 q 212 231 154 336 q 369 67 269 126 q 594 7 468 7 q 708 19 665 7 q 769 68 750 32 q 789 175 789 104 q 780 273 789 242 q 737 314 771 304 q 626 324 703 324 q 618 335 618 324 q 625 346 618 346 q 782 340 711 340 q 931 343 853 339 q 938 333 938 343 q 931 324 938 324 q 880 315 896 325 q 860 269 864 304 q 856 161 856 235 q 858 93 856 115 q 863 60 861 71 q 865 39 865 50 q 863 28 865 31 q 850 22 860 25 q 706 -6 781 6 q 561 -17 631 -17 m 372 1006 q 366 1015 368 1006 q 366 1033 364 1024 q 372 1042 368 1042 l 721 1042 q 728 1033 726 1042 q 728 1015 729 1024 q 721 1006 726 1006 l 372 1006 z "},"H":{"ha":1053,"x_min":47,"x_max":1004,"o":"m 803 753 q 794 814 803 793 q 760 843 786 835 q 679 851 733 851 q 675 860 675 851 q 679 868 675 868 q 752 866 711 868 q 840 864 793 864 q 926 866 885 864 q 1000 868 968 868 q 1004 860 1004 868 q 1000 851 1004 851 q 920 844 947 851 q 884 816 893 836 q 875 756 875 796 l 875 113 q 884 51 875 72 q 920 24 893 31 q 1000 17 947 17 q 1004 8 1004 17 q 1000 0 1004 0 q 926 1 968 0 q 840 3 885 3 q 752 1 793 3 q 679 0 711 0 q 675 8 675 0 q 679 17 675 17 q 760 24 733 17 q 794 51 786 31 q 803 113 803 72 l 803 753 m 208 439 l 208 465 l 833 465 l 833 439 l 208 439 m 175 113 l 175 756 q 166 816 175 796 q 131 844 157 836 q 51 851 104 851 q 49 860 49 851 q 51 868 49 868 q 126 866 85 868 q 211 864 167 864 q 300 866 260 864 q 372 868 340 868 q 375 860 375 868 q 372 851 375 851 q 293 843 319 851 q 258 814 267 835 q 249 753 249 793 l 249 113 q 257 51 249 72 q 292 24 265 31 q 372 17 319 17 q 375 8 375 17 q 372 0 375 0 q 299 1 339 0 q 211 3 260 3 q 125 1 167 3 q 50 0 83 0 q 47 8 47 0 q 50 17 47 17 q 130 24 103 17 q 166 51 157 31 q 175 113 175 72 z "},"Ħ":{"ha":1053,"x_min":47,"x_max":1004,"o":"m 803 753 q 794 814 803 793 q 760 843 786 835 q 679 851 733 851 q 675 860 675 851 q 679 868 675 868 q 752 866 711 868 q 840 864 793 864 q 926 866 885 864 q 1000 868 968 868 q 1004 860 1004 868 q 1000 851 1004 851 q 920 844 947 851 q 884 816 893 836 q 875 756 875 796 l 875 113 q 884 51 875 72 q 920 24 893 31 q 1000 17 947 17 q 1004 8 1004 17 q 1000 0 1004 0 q 926 1 968 0 q 840 3 885 3 q 752 1 793 3 q 679 0 711 0 q 675 8 675 0 q 679 17 675 17 q 760 24 733 17 q 794 51 786 31 q 803 113 803 72 l 803 753 m 208 568 l 208 594 l 833 594 l 833 568 l 208 568 m 175 113 l 175 756 q 166 816 175 796 q 131 844 157 836 q 51 851 104 851 q 49 860 49 851 q 51 868 49 868 q 126 866 85 868 q 211 864 167 864 q 300 866 260 864 q 372 868 340 868 q 375 860 375 868 q 372 851 375 851 q 293 843 319 851 q 258 814 267 835 q 249 753 249 793 l 249 113 q 257 51 249 72 q 292 24 265 31 q 372 17 319 17 q 375 8 375 17 q 372 0 375 0 q 299 1 339 0 q 211 3 260 3 q 125 1 167 3 q 50 0 83 0 q 47 8 47 0 q 50 17 47 17 q 130 24 103 17 q 166 51 157 31 q 175 113 175 72 m 208 308 l 208 335 l 833 335 l 833 308 l 208 308 z "},"Ḫ":{"ha":1053,"x_min":47,"x_max":1004,"o":"m 803 753 q 794 814 803 793 q 760 843 786 835 q 679 851 733 851 q 675 860 675 851 q 679 868 675 868 q 752 866 711 868 q 840 864 793 864 q 926 866 885 864 q 1000 868 968 868 q 1004 860 1004 868 q 1000 851 1004 851 q 920 844 947 851 q 884 816 893 836 q 875 756 875 796 l 875 113 q 884 51 875 72 q 920 24 893 31 q 1000 17 947 17 q 1004 8 1004 17 q 1000 0 1004 0 q 926 1 968 0 q 840 3 885 3 q 752 1 793 3 q 679 0 711 0 q 675 8 675 0 q 679 17 675 17 q 760 24 733 17 q 794 51 786 31 q 803 113 803 72 l 803 753 m 208 439 l 208 465 l 833 465 l 833 439 l 208 439 m 175 113 l 175 756 q 166 816 175 796 q 131 844 157 836 q 51 851 104 851 q 49 860 49 851 q 51 868 49 868 q 126 866 85 868 q 211 864 167 864 q 300 866 260 864 q 372 868 340 868 q 375 860 375 868 q 372 851 375 851 q 293 843 319 851 q 258 814 267 835 q 249 753 249 793 l 249 113 q 257 51 249 72 q 292 24 265 31 q 372 17 319 17 q 375 8 375 17 q 372 0 375 0 q 299 1 339 0 q 211 3 260 3 q 125 1 167 3 q 50 0 83 0 q 47 8 47 0 q 50 17 47 17 q 130 24 103 17 q 166 51 157 31 q 175 113 175 72 m 383 -110 q 391 -103 383 -104 q 399 -106 399 -103 q 435 -213 399 -169 q 526 -257 471 -257 q 616 -213 579 -257 q 653 -106 653 -169 q 660 -103 653 -103 q 668 -110 668 -104 q 632 -263 668 -211 q 526 -315 596 -315 q 420 -263 457 -315 q 383 -110 383 -211 z "},"Ĥ":{"ha":1053,"x_min":47,"x_max":1004,"o":"m 803 753 q 794 814 803 793 q 760 843 786 835 q 679 851 733 851 q 675 860 675 851 q 679 868 675 868 q 752 866 711 868 q 840 864 793 864 q 926 866 885 864 q 1000 868 968 868 q 1004 860 1004 868 q 1000 851 1004 851 q 920 844 947 851 q 884 816 893 836 q 875 756 875 796 l 875 113 q 884 51 875 72 q 920 24 893 31 q 1000 17 947 17 q 1004 8 1004 17 q 1000 0 1004 0 q 926 1 968 0 q 840 3 885 3 q 752 1 793 3 q 679 0 711 0 q 675 8 675 0 q 679 17 675 17 q 760 24 733 17 q 794 51 786 31 q 803 113 803 72 l 803 753 m 208 439 l 208 465 l 833 465 l 833 439 l 208 439 m 175 113 l 175 756 q 166 816 175 796 q 131 844 157 836 q 51 851 104 851 q 49 860 49 851 q 51 868 49 868 q 126 866 85 868 q 211 864 167 864 q 300 866 260 864 q 372 868 340 868 q 375 860 375 868 q 372 851 375 851 q 293 843 319 851 q 258 814 267 835 q 249 753 249 793 l 249 113 q 257 51 249 72 q 292 24 265 31 q 372 17 319 17 q 375 8 375 17 q 372 0 375 0 q 299 1 339 0 q 211 3 260 3 q 125 1 167 3 q 50 0 83 0 q 47 8 47 0 q 50 17 47 17 q 130 24 103 17 q 166 51 157 31 q 175 113 175 72 m 368 958 l 511 1088 q 528 1094 518 1094 q 543 1088 538 1094 l 685 958 q 685 952 689 957 q 678 949 681 947 l 528 1035 l 376 949 q 370 952 375 947 q 368 958 365 957 z "},"Ḥ":{"ha":1053,"x_min":47,"x_max":1004,"o":"m 803 753 q 794 814 803 793 q 760 843 786 835 q 679 851 733 851 q 675 860 675 851 q 679 868 675 868 q 752 866 711 868 q 840 864 793 864 q 926 866 885 864 q 1000 868 968 868 q 1004 860 1004 868 q 1000 851 1004 851 q 920 844 947 851 q 884 816 893 836 q 875 756 875 796 l 875 113 q 884 51 875 72 q 920 24 893 31 q 1000 17 947 17 q 1004 8 1004 17 q 1000 0 1004 0 q 926 1 968 0 q 840 3 885 3 q 752 1 793 3 q 679 0 711 0 q 675 8 675 0 q 679 17 675 17 q 760 24 733 17 q 794 51 786 31 q 803 113 803 72 l 803 753 m 208 439 l 208 465 l 833 465 l 833 439 l 208 439 m 175 113 l 175 756 q 166 816 175 796 q 131 844 157 836 q 51 851 104 851 q 49 860 49 851 q 51 868 49 868 q 126 866 85 868 q 211 864 167 864 q 300 866 260 864 q 372 868 340 868 q 375 860 375 868 q 372 851 375 851 q 293 843 319 851 q 258 814 267 835 q 249 753 249 793 l 249 113 q 257 51 249 72 q 292 24 265 31 q 372 17 319 17 q 375 8 375 17 q 372 0 375 0 q 299 1 339 0 q 211 3 260 3 q 125 1 167 3 q 50 0 83 0 q 47 8 47 0 q 50 17 47 17 q 130 24 103 17 q 166 51 157 31 q 175 113 175 72 m 528 -258 q 487 -244 501 -258 q 472 -206 472 -231 q 487 -167 472 -181 q 528 -153 501 -153 q 567 -167 553 -153 q 581 -206 581 -181 q 528 -258 581 -258 z "},"I":{"ha":458,"x_min":63,"x_max":393,"o":"m 267 113 q 275 51 267 72 q 310 24 283 31 q 390 17 338 17 q 393 8 393 17 q 390 0 393 0 q 317 1 357 0 q 228 3 276 3 q 141 1 182 3 q 67 0 100 0 q 63 8 63 0 q 67 17 63 17 q 147 24 119 17 q 183 51 174 31 q 192 113 192 72 l 192 756 q 183 816 192 796 q 147 844 174 836 q 67 851 119 851 q 63 860 63 851 q 67 868 63 868 q 141 866 100 868 q 228 864 182 864 q 317 866 276 864 q 390 868 358 868 q 393 860 393 868 q 390 851 393 851 q 311 843 338 851 q 276 814 285 835 q 267 753 267 793 l 267 113 z "},"Ĳ":{"ha":956,"x_min":57,"x_max":910,"o":"m 260 486 q 268 425 260 446 q 303 397 276 404 q 383 390 331 390 q 388 382 388 390 q 383 374 388 374 q 310 375 350 374 q 221 376 269 376 q 135 375 176 376 q 60 374 93 374 q 57 382 57 374 q 60 390 57 390 q 140 397 113 390 q 176 425 167 404 q 185 486 185 446 l 185 756 q 176 816 185 796 q 140 844 167 836 q 60 851 113 851 q 57 860 57 851 q 60 868 57 868 q 135 866 93 868 q 221 864 176 864 q 311 866 269 864 q 383 868 353 868 q 388 860 388 868 q 383 851 388 851 q 304 843 331 851 q 269 814 278 835 q 260 753 260 793 l 260 486 m 907 868 q 910 860 910 868 q 907 851 910 851 q 818 832 838 851 q 799 753 799 813 l 799 358 q 757 152 799 236 q 642 25 715 68 q 475 -18 569 -18 q 317 15 386 -18 q 210 96 249 47 q 172 189 172 144 q 183 221 172 210 q 210 232 193 232 q 247 215 236 232 q 264 172 258 199 q 278 117 269 146 q 305 61 286 88 q 362 18 324 35 q 467 1 400 1 q 664 77 603 1 q 725 278 725 153 l 725 756 q 715 816 725 796 q 674 844 704 836 q 583 851 643 851 q 579 860 579 851 q 583 868 579 868 q 667 866 622 868 q 760 864 713 864 q 841 866 804 864 q 907 868 878 868 z "},"Í":{"ha":458,"x_min":63,"x_max":410,"o":"m 267 113 q 275 51 267 72 q 310 24 283 31 q 390 17 338 17 q 393 8 393 17 q 390 0 393 0 q 317 1 357 0 q 228 3 276 3 q 141 1 182 3 q 67 0 100 0 q 63 8 63 0 q 67 17 63 17 q 147 24 119 17 q 183 51 174 31 q 192 113 192 72 l 192 756 q 183 816 192 796 q 147 844 174 836 q 67 851 119 851 q 63 860 63 851 q 67 868 63 868 q 141 866 100 868 q 228 864 182 864 q 317 866 276 864 q 390 868 358 868 q 393 860 393 868 q 390 851 393 851 q 311 843 338 851 q 276 814 285 835 q 267 753 267 793 l 267 113 m 94 943 q 86 948 89 940 q 88 957 83 956 q 213 1022 157 989 q 326 1086 269 1056 q 346 1084 331 1089 q 377 1072 361 1079 q 401 1058 393 1064 q 403 1050 410 1051 q 238 1001 310 1028 q 94 943 165 975 z "},"Ĭ":{"ha":458,"x_min":63,"x_max":393,"o":"m 267 113 q 275 51 267 72 q 310 24 283 31 q 390 17 338 17 q 393 8 393 17 q 390 0 393 0 q 317 1 357 0 q 228 3 276 3 q 141 1 182 3 q 67 0 100 0 q 63 8 63 0 q 67 17 63 17 q 147 24 119 17 q 183 51 174 31 q 192 113 192 72 l 192 756 q 183 816 192 796 q 147 844 174 836 q 67 851 119 851 q 63 860 63 851 q 67 868 63 868 q 141 866 100 868 q 228 864 182 864 q 317 866 276 864 q 390 868 358 868 q 393 860 393 868 q 390 851 393 851 q 311 843 338 851 q 276 814 285 835 q 267 753 267 793 l 267 113 m 229 958 q 135 995 172 958 q 86 1100 99 1032 q 92 1106 85 1106 q 101 1104 100 1107 q 149 1035 113 1064 q 229 1006 186 1006 q 308 1035 271 1006 q 356 1104 344 1064 q 365 1106 357 1107 q 371 1100 372 1106 q 322 995 358 1032 q 229 958 286 958 z "},"Ǐ":{"ha":458,"x_min":63,"x_max":393,"o":"m 267 113 q 275 51 267 72 q 310 24 283 31 q 390 17 338 17 q 393 8 393 17 q 390 0 393 0 q 317 1 357 0 q 228 3 276 3 q 141 1 182 3 q 67 0 100 0 q 63 8 63 0 q 67 17 63 17 q 147 24 119 17 q 183 51 174 31 q 192 113 192 72 l 192 756 q 183 816 192 796 q 147 844 174 836 q 67 851 119 851 q 63 860 63 851 q 67 868 63 868 q 141 866 100 868 q 228 864 182 864 q 317 866 276 864 q 390 868 358 868 q 393 860 393 868 q 390 851 393 851 q 311 843 338 851 q 276 814 285 835 q 267 753 267 793 l 267 113 m 213 954 l 69 1082 q 72 1089 67 1085 q 78 1092 76 1093 l 229 1006 l 379 1092 q 386 1090 382 1094 q 386 1082 390 1085 l 244 954 q 229 949 239 949 q 213 954 219 949 z "},"Î":{"ha":458,"x_min":63,"x_max":393,"o":"m 267 113 q 275 51 267 72 q 310 24 283 31 q 390 17 338 17 q 393 8 393 17 q 390 0 393 0 q 317 1 357 0 q 228 3 276 3 q 141 1 182 3 q 67 0 100 0 q 63 8 63 0 q 67 17 63 17 q 147 24 119 17 q 183 51 174 31 q 192 113 192 72 l 192 756 q 183 816 192 796 q 147 844 174 836 q 67 851 119 851 q 63 860 63 851 q 67 868 63 868 q 141 866 100 868 q 228 864 182 864 q 317 866 276 864 q 390 868 358 868 q 393 860 393 868 q 390 851 393 851 q 311 843 338 851 q 276 814 285 835 q 267 753 267 793 l 267 113 m 71 958 l 214 1088 q 231 1094 221 1094 q 246 1088 240 1094 l 388 958 q 388 952 392 957 q 381 949 383 947 l 231 1035 l 79 949 q 73 952 78 947 q 71 958 68 957 z "},"Ȉ":{"ha":458,"x_min":8,"x_max":393,"o":"m 368 944 q 276 1001 321 976 q 174 1050 232 1026 q 176 1059 167 1053 q 203 1071 186 1065 q 235 1079 219 1076 q 254 1078 250 1082 q 313 1018 283 1047 q 379 957 343 989 q 378 947 382 954 q 368 944 374 940 m 206 944 q 115 1002 158 976 q 15 1050 71 1028 q 17 1059 8 1053 q 43 1071 26 1065 q 74 1079 60 1076 q 92 1078 88 1082 q 151 1018 121 1047 q 217 957 181 989 q 215 947 219 954 q 206 944 211 940 m 267 113 q 275 51 267 72 q 310 24 283 31 q 390 17 338 17 q 393 8 393 17 q 390 0 393 0 q 317 1 357 0 q 228 3 276 3 q 141 1 182 3 q 67 0 100 0 q 63 8 63 0 q 67 17 63 17 q 147 24 119 17 q 183 51 174 31 q 192 113 192 72 l 192 756 q 183 816 192 796 q 147 844 174 836 q 67 851 119 851 q 63 860 63 851 q 67 868 63 868 q 141 866 100 868 q 228 864 182 864 q 317 866 276 864 q 390 868 358 868 q 393 860 393 868 q 390 851 393 851 q 311 843 338 851 q 276 814 285 835 q 267 753 267 793 l 267 113 z "},"Ï":{"ha":458,"x_min":63,"x_max":393,"o":"m 267 113 q 275 51 267 72 q 310 24 283 31 q 390 17 338 17 q 393 8 393 17 q 390 0 393 0 q 317 1 357 0 q 228 3 276 3 q 141 1 182 3 q 67 0 100 0 q 63 8 63 0 q 67 17 63 17 q 147 24 119 17 q 183 51 174 31 q 192 113 192 72 l 192 756 q 183 816 192 796 q 147 844 174 836 q 67 851 119 851 q 63 860 63 851 q 67 868 63 868 q 141 866 100 868 q 228 864 182 864 q 317 866 276 864 q 390 868 358 868 q 393 860 393 868 q 390 851 393 851 q 311 843 338 851 q 276 814 285 835 q 267 753 267 793 l 267 113 m 132 1000 q 92 1014 107 1000 q 76 1053 76 1028 q 92 1092 76 1078 q 132 1106 107 1106 q 172 1092 158 1106 q 186 1053 186 1078 q 172 1014 186 1028 q 132 1000 158 1000 m 328 1000 q 287 1014 301 1000 q 272 1053 272 1028 q 287 1092 272 1078 q 328 1106 301 1106 q 381 1053 381 1106 q 328 1000 381 1000 z "},"İ":{"ha":458,"x_min":63,"x_max":393,"o":"m 267 113 q 275 51 267 72 q 310 24 283 31 q 390 17 338 17 q 393 8 393 17 q 390 0 393 0 q 317 1 357 0 q 228 3 276 3 q 141 1 182 3 q 67 0 100 0 q 63 8 63 0 q 67 17 63 17 q 147 24 119 17 q 183 51 174 31 q 192 113 192 72 l 192 756 q 183 816 192 796 q 147 844 174 836 q 67 851 119 851 q 63 860 63 851 q 67 868 63 868 q 141 866 100 868 q 228 864 182 864 q 317 866 276 864 q 390 868 358 868 q 393 860 393 868 q 390 851 393 851 q 311 843 338 851 q 276 814 285 835 q 267 753 267 793 l 267 113 m 229 990 q 188 1004 203 990 q 174 1044 174 1018 q 188 1082 174 1068 q 229 1096 203 1096 q 268 1082 254 1096 q 282 1044 282 1068 q 268 1004 282 1018 q 229 990 254 990 z "},"Ị":{"ha":458,"x_min":63,"x_max":393,"o":"m 267 113 q 275 51 267 72 q 310 24 283 31 q 390 17 338 17 q 393 8 393 17 q 390 0 393 0 q 317 1 357 0 q 228 3 276 3 q 141 1 182 3 q 67 0 100 0 q 63 8 63 0 q 67 17 63 17 q 147 24 119 17 q 183 51 174 31 q 192 113 192 72 l 192 756 q 183 816 192 796 q 147 844 174 836 q 67 851 119 851 q 63 860 63 851 q 67 868 63 868 q 141 866 100 868 q 228 864 182 864 q 317 866 276 864 q 390 868 358 868 q 393 860 393 868 q 390 851 393 851 q 311 843 338 851 q 276 814 285 835 q 267 753 267 793 l 267 113 m 231 -258 q 190 -244 204 -258 q 175 -206 175 -231 q 190 -167 175 -181 q 231 -153 204 -153 q 269 -167 256 -153 q 283 -206 283 -181 q 231 -258 283 -258 z "},"Ì":{"ha":458,"x_min":50,"x_max":393,"o":"m 267 113 q 275 51 267 72 q 310 24 283 31 q 390 17 338 17 q 393 8 393 17 q 390 0 393 0 q 317 1 357 0 q 228 3 276 3 q 141 1 182 3 q 67 0 100 0 q 63 8 63 0 q 67 17 63 17 q 147 24 119 17 q 183 51 174 31 q 192 113 192 72 l 192 756 q 183 816 192 796 q 147 844 174 836 q 67 851 119 851 q 63 860 63 851 q 67 868 63 868 q 141 866 100 868 q 228 864 182 864 q 317 866 276 864 q 390 868 358 868 q 393 860 393 868 q 390 851 393 851 q 311 843 338 851 q 276 814 285 835 q 267 753 267 793 l 267 113 m 367 943 q 223 1001 296 975 q 57 1050 150 1028 q 59 1058 50 1051 q 84 1072 68 1064 q 115 1084 100 1079 q 133 1086 129 1089 q 247 1022 190 1054 q 372 957 304 989 q 375 948 378 956 q 367 943 372 940 z "},"Ỉ":{"ha":458,"x_min":63,"x_max":393,"o":"m 267 113 q 275 51 267 72 q 310 24 283 31 q 390 17 338 17 q 393 8 393 17 q 390 0 393 0 q 317 1 357 0 q 228 3 276 3 q 141 1 182 3 q 67 0 100 0 q 63 8 63 0 q 67 17 63 17 q 147 24 119 17 q 183 51 174 31 q 192 113 192 72 l 192 756 q 183 816 192 796 q 147 844 174 836 q 67 851 119 851 q 63 860 63 851 q 67 868 63 868 q 141 866 100 868 q 228 864 182 864 q 317 866 276 864 q 390 868 358 868 q 393 860 393 868 q 390 851 393 851 q 311 843 338 851 q 276 814 285 835 q 267 753 267 793 l 267 113 m 233 904 q 227 902 235 903 q 218 904 219 901 q 216 957 208 933 q 238 1000 224 981 q 263 1039 251 1019 q 275 1081 275 1058 q 255 1123 275 1108 q 211 1138 235 1138 q 192 1135 201 1138 q 175 1129 182 1132 q 166 1133 172 1128 q 165 1140 160 1139 q 210 1160 188 1154 q 250 1167 232 1167 q 315 1144 293 1167 q 336 1094 336 1122 q 318 1042 336 1065 q 278 999 300 1019 q 241 956 256 978 q 233 904 226 933 z "},"Ȋ":{"ha":458,"x_min":63,"x_max":393,"o":"m 267 113 q 275 51 267 72 q 310 24 283 31 q 390 17 338 17 q 393 8 393 17 q 390 0 393 0 q 317 1 357 0 q 228 3 276 3 q 141 1 182 3 q 67 0 100 0 q 63 8 63 0 q 67 17 63 17 q 147 24 119 17 q 183 51 174 31 q 192 113 192 72 l 192 756 q 183 816 192 796 q 147 844 174 836 q 67 851 119 851 q 63 860 63 851 q 67 868 63 868 q 141 866 100 868 q 228 864 182 864 q 317 866 276 864 q 390 868 358 868 q 393 860 393 868 q 390 851 393 851 q 311 843 338 851 q 276 814 285 835 q 267 753 267 793 l 267 113 m 101 947 q 92 944 100 943 q 86 950 85 946 q 229 1092 113 1092 q 371 950 344 1092 q 365 944 372 946 q 356 947 357 943 q 308 1016 344 988 q 229 1044 271 1044 q 149 1016 186 1044 q 101 947 113 988 z "},"Ī":{"ha":458,"x_min":46,"x_max":411,"o":"m 267 113 q 275 51 267 72 q 310 24 283 31 q 390 17 338 17 q 393 8 393 17 q 390 0 393 0 q 317 1 357 0 q 228 3 276 3 q 141 1 182 3 q 67 0 100 0 q 63 8 63 0 q 67 17 63 17 q 147 24 119 17 q 183 51 174 31 q 192 113 192 72 l 192 756 q 183 816 192 796 q 147 844 174 836 q 67 851 119 851 q 63 860 63 851 q 67 868 63 868 q 141 866 100 868 q 228 864 182 864 q 317 866 276 864 q 390 868 358 868 q 393 860 393 868 q 390 851 393 851 q 311 843 338 851 q 276 814 285 835 q 267 753 267 793 l 267 113 m 54 1006 q 48 1015 50 1006 q 48 1033 46 1024 q 54 1042 50 1042 l 403 1042 q 410 1033 408 1042 q 410 1015 411 1024 q 403 1006 408 1006 l 54 1006 z "},"Į":{"ha":458,"x_min":63,"x_max":393,"o":"m 267 113 q 275 51 267 72 q 310 24 283 31 q 390 17 338 17 q 393 8 393 17 q 390 0 393 0 q 317 1 357 0 q 228 3 276 3 q 141 1 182 3 q 67 0 100 0 q 63 8 63 0 q 67 17 63 17 q 147 24 119 17 q 183 51 174 31 q 192 113 192 72 l 192 756 q 183 816 192 796 q 147 844 174 836 q 67 851 119 851 q 63 860 63 851 q 67 868 63 868 q 141 866 100 868 q 228 864 182 864 q 317 866 276 864 q 390 868 358 868 q 393 860 393 868 q 390 851 393 851 q 311 843 338 851 q 276 814 285 835 q 267 753 267 793 l 267 113 m 239 -382 q 134 -345 171 -382 q 97 -249 97 -308 q 132 -117 97 -185 q 235 17 167 -49 l 249 10 q 184 -97 204 -43 q 164 -208 164 -151 q 177 -281 164 -250 q 217 -328 190 -311 q 279 -344 243 -344 q 327 -333 311 -344 q 360 -308 343 -322 q 367 -311 363 -306 q 369 -319 372 -317 q 305 -367 335 -353 q 239 -382 275 -382 z "},"Ɨ":{"ha":458,"x_min":60,"x_max":396,"o":"m 67 422 q 61 428 63 422 q 61 441 60 435 q 67 447 63 447 l 390 447 q 395 441 394 447 q 395 428 396 435 q 390 422 394 422 l 67 422 m 267 113 q 275 51 267 72 q 310 24 283 31 q 390 17 338 17 q 393 8 393 17 q 390 0 393 0 q 317 1 357 0 q 228 3 276 3 q 141 1 182 3 q 67 0 100 0 q 63 8 63 0 q 67 17 63 17 q 147 24 119 17 q 183 51 174 31 q 192 113 192 72 l 192 756 q 183 816 192 796 q 147 844 174 836 q 67 851 119 851 q 63 860 63 851 q 67 868 63 868 q 141 866 100 868 q 228 864 182 864 q 317 866 276 864 q 390 868 358 868 q 393 860 393 868 q 390 851 393 851 q 311 843 338 851 q 276 814 285 835 q 267 753 267 793 l 267 113 z "},"Ĩ":{"ha":458,"x_min":42,"x_max":417,"o":"m 267 113 q 275 51 267 72 q 310 24 283 31 q 390 17 338 17 q 393 8 393 17 q 390 0 393 0 q 317 1 357 0 q 228 3 276 3 q 141 1 182 3 q 67 0 100 0 q 63 8 63 0 q 67 17 63 17 q 147 24 119 17 q 183 51 174 31 q 192 113 192 72 l 192 756 q 183 816 192 796 q 147 844 174 836 q 67 851 119 851 q 63 860 63 851 q 67 868 63 868 q 141 866 100 868 q 228 864 182 864 q 317 866 276 864 q 390 868 358 868 q 393 860 393 868 q 390 851 393 851 q 311 843 338 851 q 276 814 285 835 q 267 753 267 793 l 267 113 m 336 1044 q 378 1056 364 1044 q 404 1082 393 1068 q 412 1080 407 1085 q 414 1072 417 1075 q 353 1008 376 1024 q 306 992 329 992 q 245 1001 274 992 q 188 1018 217 1010 q 122 1026 158 1026 q 81 1015 94 1026 q 54 989 68 1003 q 47 991 51 988 q 44 999 42 994 q 74 1032 56 1014 q 115 1064 93 1050 q 161 1078 138 1078 q 213 1069 186 1078 q 271 1053 240 1061 q 336 1044 301 1044 z "},"J":{"ha":442,"x_min":-60,"x_max":385,"o":"m 382 868 q 385 860 385 868 q 382 851 385 851 q 313 843 336 851 q 283 814 290 835 q 275 753 275 793 l 275 -47 q 216 -257 275 -175 q 38 -339 157 -339 q -35 -324 -10 -339 q -60 -286 -60 -308 q -49 -256 -60 -267 q -19 -246 -37 -246 q 16 -256 4 -246 q 36 -278 28 -265 q 56 -302 44 -292 q 90 -312 68 -312 q 172 -253 143 -312 q 200 -60 200 -194 l 200 756 q 190 816 200 796 q 149 844 179 836 q 58 851 119 851 q 56 860 56 851 q 58 868 56 868 q 143 866 99 868 q 236 864 188 864 q 317 866 281 864 q 382 868 353 868 z "},"Ĵ":{"ha":442,"x_min":-60,"x_max":385,"o":"m 382 868 q 385 860 385 868 q 382 851 385 851 q 313 843 336 851 q 283 814 290 835 q 275 753 275 793 l 275 -47 q 216 -257 275 -175 q 38 -339 157 -339 q -35 -324 -10 -339 q -60 -286 -60 -308 q -49 -256 -60 -267 q -19 -246 -37 -246 q 16 -256 4 -246 q 36 -278 28 -265 q 56 -302 44 -292 q 90 -312 68 -312 q 172 -253 143 -312 q 200 -60 200 -194 l 200 756 q 190 816 200 796 q 149 844 179 836 q 58 851 119 851 q 56 860 56 851 q 58 868 56 868 q 143 866 99 868 q 236 864 188 864 q 317 866 281 864 q 382 868 353 868 m 64 974 l 207 1103 q 224 1110 214 1110 q 239 1103 233 1110 l 381 974 q 381 967 385 972 q 374 964 376 963 l 224 1050 l 72 964 q 66 967 71 963 q 64 974 61 972 z "},"K":{"ha":901,"x_min":47,"x_max":886,"o":"m 175 113 l 175 756 q 166 816 175 796 q 131 844 157 836 q 51 851 104 851 q 49 860 49 851 q 51 868 49 868 q 126 866 85 868 q 211 864 167 864 q 300 866 260 864 q 372 868 340 868 q 375 860 375 868 q 372 851 375 851 q 293 843 319 851 q 258 814 267 835 q 249 753 249 793 l 249 113 q 257 51 249 72 q 292 24 265 31 q 372 17 319 17 q 375 8 375 17 q 372 0 375 0 q 299 1 339 0 q 211 3 260 3 q 125 1 167 3 q 50 0 83 0 q 47 8 47 0 q 50 17 47 17 q 130 24 103 17 q 166 51 157 31 q 175 113 175 72 m 518 201 l 290 485 l 349 526 l 549 275 q 659 142 614 193 q 735 65 704 92 q 789 28 765 39 q 834 17 813 18 q 882 17 856 17 q 886 8 886 17 q 882 0 886 0 q 782 0 819 0 q 726 0 744 0 q 685 1 699 0 q 662 9 671 1 q 639 38 653 17 q 597 98 625 58 q 518 201 569 138 m 197 408 l 554 764 q 601 834 607 817 q 521 851 594 851 q 518 860 518 851 q 521 868 518 868 q 588 866 554 868 q 678 864 622 864 q 759 866 729 864 q 817 868 789 868 q 821 860 821 868 q 817 851 821 851 q 707 832 769 851 q 586 756 644 813 l 231 410 l 197 408 z "},"Ḱ":{"ha":901,"x_min":47,"x_max":886,"o":"m 175 113 l 175 756 q 166 816 175 796 q 131 844 157 836 q 51 851 104 851 q 49 860 49 851 q 51 868 49 868 q 126 866 85 868 q 211 864 167 864 q 300 866 260 864 q 372 868 340 868 q 375 860 375 868 q 372 851 375 851 q 293 843 319 851 q 258 814 267 835 q 249 753 249 793 l 249 113 q 257 51 249 72 q 292 24 265 31 q 372 17 319 17 q 375 8 375 17 q 372 0 375 0 q 299 1 339 0 q 211 3 260 3 q 125 1 167 3 q 50 0 83 0 q 47 8 47 0 q 50 17 47 17 q 130 24 103 17 q 166 51 157 31 q 175 113 175 72 m 518 201 l 290 485 l 349 526 l 549 275 q 659 142 614 193 q 735 65 704 92 q 789 28 765 39 q 834 17 813 18 q 882 17 856 17 q 886 8 886 17 q 882 0 886 0 q 782 0 819 0 q 726 0 744 0 q 685 1 699 0 q 662 9 671 1 q 639 38 653 17 q 597 98 625 58 q 518 201 569 138 m 197 408 l 554 764 q 601 834 607 817 q 521 851 594 851 q 518 860 518 851 q 521 868 518 868 q 588 866 554 868 q 678 864 622 864 q 759 866 729 864 q 817 868 789 868 q 821 860 821 868 q 817 851 821 851 q 707 832 769 851 q 586 756 644 813 l 231 410 l 197 408 m 317 943 q 308 948 311 940 q 310 957 306 956 q 435 1022 379 989 q 549 1086 492 1056 q 568 1084 553 1089 q 599 1072 583 1079 q 624 1058 615 1064 q 625 1050 632 1051 q 460 1001 532 1028 q 317 943 388 975 z "},"Ǩ":{"ha":901,"x_min":47,"x_max":886,"o":"m 175 113 l 175 756 q 166 816 175 796 q 131 844 157 836 q 51 851 104 851 q 49 860 49 851 q 51 868 49 868 q 126 866 85 868 q 211 864 167 864 q 300 866 260 864 q 372 868 340 868 q 375 860 375 868 q 372 851 375 851 q 293 843 319 851 q 258 814 267 835 q 249 753 249 793 l 249 113 q 257 51 249 72 q 292 24 265 31 q 372 17 319 17 q 375 8 375 17 q 372 0 375 0 q 299 1 339 0 q 211 3 260 3 q 125 1 167 3 q 50 0 83 0 q 47 8 47 0 q 50 17 47 17 q 130 24 103 17 q 166 51 157 31 q 175 113 175 72 m 518 201 l 290 485 l 349 526 l 549 275 q 659 142 614 193 q 735 65 704 92 q 789 28 765 39 q 834 17 813 18 q 882 17 856 17 q 886 8 886 17 q 882 0 886 0 q 782 0 819 0 q 726 0 744 0 q 685 1 699 0 q 662 9 671 1 q 639 38 653 17 q 597 98 625 58 q 518 201 569 138 m 197 408 l 554 764 q 601 834 607 817 q 521 851 594 851 q 518 860 518 851 q 521 868 518 868 q 588 866 554 868 q 678 864 622 864 q 759 866 729 864 q 817 868 789 868 q 821 860 821 868 q 817 851 821 851 q 707 832 769 851 q 586 756 644 813 l 231 410 l 197 408 m 435 954 l 292 1082 q 294 1089 289 1085 q 300 1092 299 1093 l 451 1006 l 601 1092 q 608 1090 604 1094 q 608 1082 613 1085 l 467 954 q 451 949 461 949 q 435 954 442 949 z "},"Ķ":{"ha":901,"x_min":47,"x_max":886,"o":"m 175 113 l 175 756 q 166 816 175 796 q 131 844 157 836 q 51 851 104 851 q 49 860 49 851 q 51 868 49 868 q 126 866 85 868 q 211 864 167 864 q 300 866 260 864 q 372 868 340 868 q 375 860 375 868 q 372 851 375 851 q 293 843 319 851 q 258 814 267 835 q 249 753 249 793 l 249 113 q 257 51 249 72 q 292 24 265 31 q 372 17 319 17 q 375 8 375 17 q 372 0 375 0 q 299 1 339 0 q 211 3 260 3 q 125 1 167 3 q 50 0 83 0 q 47 8 47 0 q 50 17 47 17 q 130 24 103 17 q 166 51 157 31 q 175 113 175 72 m 518 201 l 290 485 l 349 526 l 549 275 q 659 142 614 193 q 735 65 704 92 q 789 28 765 39 q 834 17 813 18 q 882 17 856 17 q 886 8 886 17 q 882 0 886 0 q 782 0 819 0 q 726 0 744 0 q 685 1 699 0 q 662 9 671 1 q 639 38 653 17 q 597 98 625 58 q 518 201 569 138 m 197 408 l 554 764 q 601 834 607 817 q 521 851 594 851 q 518 860 518 851 q 521 868 518 868 q 588 866 554 868 q 678 864 622 864 q 759 866 729 864 q 817 868 789 868 q 821 860 821 868 q 817 851 821 851 q 707 832 769 851 q 586 756 644 813 l 231 410 l 197 408 m 461 -382 q 451 -380 456 -385 q 450 -372 446 -375 q 496 -308 482 -342 q 510 -240 510 -275 q 502 -199 510 -210 q 483 -181 494 -187 l 506 -176 q 497 -210 510 -199 q 464 -221 483 -221 q 427 -208 440 -221 q 414 -172 414 -194 q 429 -134 414 -144 q 467 -124 444 -124 q 522 -149 503 -124 q 540 -222 540 -174 q 519 -308 540 -269 q 461 -382 499 -346 z "},"L":{"ha":736,"x_min":47,"x_max":722,"o":"m 247 754 l 247 118 q 256 60 247 79 q 291 33 265 40 q 367 26 317 26 l 544 26 q 657 75 618 26 q 707 203 696 124 q 715 206 707 207 q 722 201 722 206 q 714 115 718 165 q 710 21 710 64 q 689 0 710 0 l 50 0 q 47 8 47 0 q 50 17 47 17 q 129 24 103 17 q 165 51 156 31 q 174 113 174 72 l 174 756 q 165 816 174 796 q 129 844 156 836 q 50 851 103 851 q 47 860 47 851 q 50 868 47 868 q 124 866 83 868 q 210 864 165 864 q 298 866 257 864 q 371 868 339 868 q 374 860 374 868 q 371 851 374 851 q 292 844 318 851 q 256 815 265 836 q 247 754 247 794 z "},"Ĺ":{"ha":736,"x_min":47,"x_max":722,"o":"m 247 754 l 247 118 q 256 60 247 79 q 291 33 265 40 q 367 26 317 26 l 544 26 q 657 75 618 26 q 707 203 696 124 q 715 206 707 207 q 722 201 722 206 q 714 115 718 165 q 710 21 710 64 q 689 0 710 0 l 50 0 q 47 8 47 0 q 50 17 47 17 q 129 24 103 17 q 165 51 156 31 q 174 113 174 72 l 174 756 q 165 816 174 796 q 129 844 156 836 q 50 851 103 851 q 47 860 47 851 q 50 868 47 868 q 124 866 83 868 q 210 864 165 864 q 298 866 257 864 q 371 868 339 868 q 374 860 374 868 q 371 851 374 851 q 292 844 318 851 q 256 815 265 836 q 247 754 247 794 m 83 943 q 75 948 78 940 q 76 957 72 956 q 202 1022 146 989 q 315 1086 258 1056 q 335 1084 319 1089 q 366 1072 350 1079 q 390 1058 382 1064 q 392 1050 399 1051 q 226 1001 299 1028 q 83 943 154 975 z "},"Ľ":{"ha":736,"x_min":47,"x_max":722,"o":"m 247 754 l 247 118 q 256 60 247 79 q 291 33 265 40 q 367 26 317 26 l 544 26 q 657 75 618 26 q 707 203 696 124 q 715 206 707 207 q 722 201 722 206 q 714 115 718 165 q 710 21 710 64 q 689 0 710 0 l 50 0 q 47 8 47 0 q 50 17 47 17 q 129 24 103 17 q 165 51 156 31 q 174 113 174 72 l 174 756 q 165 816 174 796 q 129 844 156 836 q 50 851 103 851 q 47 860 47 851 q 50 868 47 868 q 124 866 83 868 q 210 864 165 864 q 298 866 257 864 q 371 868 339 868 q 374 860 374 868 q 371 851 374 851 q 292 844 318 851 q 256 815 265 836 q 247 754 247 794 m 490 868 q 500 870 490 874 q 522 858 510 867 q 542 842 533 850 q 551 829 551 833 l 517 489 q 509 487 517 486 q 501 490 501 488 l 490 868 z "},"Ļ":{"ha":736,"x_min":47,"x_max":722,"o":"m 247 754 l 247 118 q 256 60 247 79 q 291 33 265 40 q 367 26 317 26 l 544 26 q 657 75 618 26 q 707 203 696 124 q 715 206 707 207 q 722 201 722 206 q 714 115 718 165 q 710 21 710 64 q 689 0 710 0 l 50 0 q 47 8 47 0 q 50 17 47 17 q 129 24 103 17 q 165 51 156 31 q 174 113 174 72 l 174 756 q 165 816 174 796 q 129 844 156 836 q 50 851 103 851 q 47 860 47 851 q 50 868 47 868 q 124 866 83 868 q 210 864 165 864 q 298 866 257 864 q 371 868 339 868 q 374 860 374 868 q 371 851 374 851 q 292 844 318 851 q 256 815 265 836 q 247 754 247 794 m 399 -382 q 388 -380 393 -385 q 388 -372 383 -375 q 433 -308 419 -342 q 447 -240 447 -275 q 440 -199 447 -210 q 421 -181 432 -187 l 443 -176 q 434 -210 447 -199 q 401 -221 421 -221 q 365 -208 378 -221 q 351 -172 351 -194 q 367 -134 351 -144 q 404 -124 382 -124 q 459 -149 440 -124 q 478 -222 478 -174 q 457 -308 478 -269 q 399 -382 436 -346 z "},"Ŀ":{"ha":736,"x_min":47,"x_max":722,"o":"m 247 754 l 247 118 q 256 60 247 79 q 291 33 265 40 q 367 26 317 26 l 544 26 q 657 75 618 26 q 707 203 696 124 q 715 206 707 207 q 722 201 722 206 q 714 115 718 165 q 710 21 710 64 q 689 0 710 0 l 50 0 q 47 8 47 0 q 50 17 47 17 q 129 24 103 17 q 165 51 156 31 q 174 113 174 72 l 174 756 q 165 816 174 796 q 129 844 156 836 q 50 851 103 851 q 47 860 47 851 q 50 868 47 868 q 124 866 83 868 q 210 864 165 864 q 298 866 257 864 q 371 868 339 868 q 374 860 374 868 q 371 851 374 851 q 292 844 318 851 q 256 815 265 836 q 247 754 247 794 m 596 394 q 556 409 571 394 q 540 449 540 424 q 556 486 540 472 q 596 500 571 500 q 636 486 622 500 q 650 449 650 472 q 636 409 650 424 q 596 394 622 394 z "},"Ḷ":{"ha":736,"x_min":47,"x_max":722,"o":"m 247 754 l 247 118 q 256 60 247 79 q 291 33 265 40 q 367 26 317 26 l 544 26 q 657 75 618 26 q 707 203 696 124 q 715 206 707 207 q 722 201 722 206 q 714 115 718 165 q 710 21 710 64 q 689 0 710 0 l 50 0 q 47 8 47 0 q 50 17 47 17 q 129 24 103 17 q 165 51 156 31 q 174 113 174 72 l 174 756 q 165 816 174 796 q 129 844 156 836 q 50 851 103 851 q 47 860 47 851 q 50 868 47 868 q 124 866 83 868 q 210 864 165 864 q 298 866 257 864 q 371 868 339 868 q 374 860 374 868 q 371 851 374 851 q 292 844 318 851 q 256 815 265 836 q 247 754 247 794 m 415 -258 q 374 -244 389 -258 q 360 -206 360 -231 q 374 -167 360 -181 q 415 -153 389 -153 q 454 -167 440 -153 q 468 -206 468 -181 q 415 -258 468 -258 z "},"Ḹ":{"ha":736,"x_min":35,"x_max":722,"o":"m 247 754 l 247 118 q 256 60 247 79 q 291 33 265 40 q 367 26 317 26 l 544 26 q 657 75 618 26 q 707 203 696 124 q 715 206 707 207 q 722 201 722 206 q 714 115 718 165 q 710 21 710 64 q 689 0 710 0 l 50 0 q 47 8 47 0 q 50 17 47 17 q 129 24 103 17 q 165 51 156 31 q 174 113 174 72 l 174 756 q 165 816 174 796 q 129 844 156 836 q 50 851 103 851 q 47 860 47 851 q 50 868 47 868 q 124 866 83 868 q 210 864 165 864 q 298 866 257 864 q 371 868 339 868 q 374 860 374 868 q 371 851 374 851 q 292 844 318 851 q 256 815 265 836 q 247 754 247 794 m 415 -258 q 374 -244 389 -258 q 360 -206 360 -231 q 374 -167 360 -181 q 415 -153 389 -153 q 454 -167 440 -153 q 468 -206 468 -181 q 415 -258 468 -258 m 43 1006 q 37 1015 39 1006 q 37 1033 35 1024 q 43 1042 39 1042 l 392 1042 q 399 1033 397 1042 q 399 1015 400 1024 q 392 1006 397 1006 l 43 1006 z "},"Ḻ":{"ha":736,"x_min":47,"x_max":722,"o":"m 247 754 l 247 118 q 256 60 247 79 q 291 33 265 40 q 367 26 317 26 l 544 26 q 657 75 618 26 q 707 203 696 124 q 715 206 707 207 q 722 201 722 206 q 714 115 718 165 q 710 21 710 64 q 689 0 710 0 l 50 0 q 47 8 47 0 q 50 17 47 17 q 129 24 103 17 q 165 51 156 31 q 174 113 174 72 l 174 756 q 165 816 174 796 q 129 844 156 836 q 50 851 103 851 q 47 860 47 851 q 50 868 47 868 q 124 866 83 868 q 210 864 165 864 q 298 866 257 864 q 371 868 339 868 q 374 860 374 868 q 371 851 374 851 q 292 844 318 851 q 256 815 265 836 q 247 754 247 794 m 239 -154 q 233 -145 235 -154 q 233 -127 231 -136 q 239 -118 235 -118 l 588 -118 q 594 -127 593 -118 q 594 -145 596 -136 q 588 -154 593 -154 l 239 -154 z "},"Ł":{"ha":719,"x_min":47,"x_max":722,"o":"m 103 333 q 95 337 100 332 q 88 348 90 342 q 89 356 86 354 l 393 531 q 401 528 397 533 q 408 516 406 522 q 406 508 410 510 l 103 333 m 247 754 l 247 118 q 256 60 247 79 q 291 33 265 40 q 367 26 317 26 l 544 26 q 657 75 618 26 q 707 203 696 124 q 715 206 707 207 q 722 201 722 206 q 714 115 718 165 q 710 21 710 64 q 689 0 710 0 l 50 0 q 47 8 47 0 q 50 17 47 17 q 129 24 103 17 q 165 51 156 31 q 174 113 174 72 l 174 756 q 165 816 174 796 q 129 844 156 836 q 50 851 103 851 q 47 860 47 851 q 50 868 47 868 q 124 866 83 868 q 210 864 165 864 q 298 866 257 864 q 371 868 339 868 q 374 860 374 868 q 371 851 374 851 q 292 844 318 851 q 256 815 265 836 q 247 754 247 794 z "},"M":{"ha":1153,"x_min":56,"x_max":1125,"o":"m 167 144 l 181 836 l 211 833 l 199 144 q 222 45 197 74 q 315 17 246 17 q 318 8 318 17 q 315 0 318 0 q 252 1 285 0 q 181 3 219 3 q 117 1 147 3 q 58 0 86 0 q 56 8 56 0 q 58 17 56 17 q 141 45 117 17 q 167 144 165 74 m 1121 17 q 1125 8 1125 17 q 1121 0 1125 0 q 1047 1 1088 0 q 960 3 1006 3 q 881 1 917 3 q 815 0 844 0 q 813 8 813 0 q 815 17 813 17 q 905 35 885 17 q 922 113 925 53 l 897 797 l 938 849 l 574 10 q 563 4 572 4 q 550 10 553 4 l 211 753 q 68 851 167 851 q 65 860 65 851 q 68 868 65 868 q 113 867 89 868 q 151 865 136 865 q 188 867 171 865 q 213 868 204 868 q 243 856 232 868 q 276 796 254 843 l 594 108 l 558 50 l 900 833 q 919 858 907 849 q 942 868 931 868 q 963 867 949 868 q 994 865 976 865 q 1053 867 1031 865 q 1100 868 1075 868 q 1103 860 1103 868 q 1100 851 1103 851 q 1000 834 1032 851 q 969 758 968 817 l 996 113 q 1006 51 997 72 q 1042 24 1015 31 q 1121 17 1068 17 z "},"Ḿ":{"ha":1153,"x_min":56,"x_max":1125,"o":"m 167 144 l 181 836 l 211 833 l 199 144 q 222 45 197 74 q 315 17 246 17 q 318 8 318 17 q 315 0 318 0 q 252 1 285 0 q 181 3 219 3 q 117 1 147 3 q 58 0 86 0 q 56 8 56 0 q 58 17 56 17 q 141 45 117 17 q 167 144 165 74 m 1121 17 q 1125 8 1125 17 q 1121 0 1125 0 q 1047 1 1088 0 q 960 3 1006 3 q 881 1 917 3 q 815 0 844 0 q 813 8 813 0 q 815 17 813 17 q 905 35 885 17 q 922 113 925 53 l 897 797 l 938 849 l 574 10 q 563 4 572 4 q 550 10 553 4 l 211 753 q 68 851 167 851 q 65 860 65 851 q 68 868 65 868 q 113 867 89 868 q 151 865 136 865 q 188 867 171 865 q 213 868 204 868 q 243 856 232 868 q 276 796 254 843 l 594 108 l 558 50 l 900 833 q 919 858 907 849 q 942 868 931 868 q 963 867 949 868 q 994 865 976 865 q 1053 867 1031 865 q 1100 868 1075 868 q 1103 860 1103 868 q 1100 851 1103 851 q 1000 834 1032 851 q 969 758 968 817 l 996 113 q 1006 51 997 72 q 1042 24 1015 31 q 1121 17 1068 17 m 442 942 q 433 948 436 940 q 435 957 431 956 q 560 1022 504 989 q 674 1085 617 1054 q 693 1083 678 1088 q 724 1072 708 1079 q 749 1058 740 1064 q 750 1050 757 1051 q 585 1000 657 1026 q 442 942 513 974 z "},"Ṁ":{"ha":1153,"x_min":56,"x_max":1125,"o":"m 167 144 l 181 836 l 211 833 l 199 144 q 222 45 197 74 q 315 17 246 17 q 318 8 318 17 q 315 0 318 0 q 252 1 285 0 q 181 3 219 3 q 117 1 147 3 q 58 0 86 0 q 56 8 56 0 q 58 17 56 17 q 141 45 117 17 q 167 144 165 74 m 1121 17 q 1125 8 1125 17 q 1121 0 1125 0 q 1047 1 1088 0 q 960 3 1006 3 q 881 1 917 3 q 815 0 844 0 q 813 8 813 0 q 815 17 813 17 q 905 35 885 17 q 922 113 925 53 l 897 797 l 938 849 l 574 10 q 563 4 572 4 q 550 10 553 4 l 211 753 q 68 851 167 851 q 65 860 65 851 q 68 868 65 868 q 113 867 89 868 q 151 865 136 865 q 188 867 171 865 q 213 868 204 868 q 243 856 232 868 q 276 796 254 843 l 594 108 l 558 50 l 900 833 q 919 858 907 849 q 942 868 931 868 q 963 867 949 868 q 994 865 976 865 q 1053 867 1031 865 q 1100 868 1075 868 q 1103 860 1103 868 q 1100 851 1103 851 q 1000 834 1032 851 q 969 758 968 817 l 996 113 q 1006 51 997 72 q 1042 24 1015 31 q 1121 17 1068 17 m 576 990 q 535 1004 550 990 q 521 1044 521 1018 q 535 1082 521 1068 q 576 1096 550 1096 q 615 1082 601 1096 q 629 1044 629 1068 q 615 1004 629 1018 q 576 990 601 990 z "},"Ṃ":{"ha":1153,"x_min":56,"x_max":1125,"o":"m 167 144 l 181 836 l 211 833 l 199 144 q 222 45 197 74 q 315 17 246 17 q 318 8 318 17 q 315 0 318 0 q 252 1 285 0 q 181 3 219 3 q 117 1 147 3 q 58 0 86 0 q 56 8 56 0 q 58 17 56 17 q 141 45 117 17 q 167 144 165 74 m 1121 17 q 1125 8 1125 17 q 1121 0 1125 0 q 1047 1 1088 0 q 960 3 1006 3 q 881 1 917 3 q 815 0 844 0 q 813 8 813 0 q 815 17 813 17 q 905 35 885 17 q 922 113 925 53 l 897 797 l 938 849 l 574 10 q 563 4 572 4 q 550 10 553 4 l 211 753 q 68 851 167 851 q 65 860 65 851 q 68 868 65 868 q 113 867 89 868 q 151 865 136 865 q 188 867 171 865 q 213 868 204 868 q 243 856 232 868 q 276 796 254 843 l 594 108 l 558 50 l 900 833 q 919 858 907 849 q 942 868 931 868 q 963 867 949 868 q 994 865 976 865 q 1053 867 1031 865 q 1100 868 1075 868 q 1103 860 1103 868 q 1100 851 1103 851 q 1000 834 1032 851 q 969 758 968 817 l 996 113 q 1006 51 997 72 q 1042 24 1015 31 q 1121 17 1068 17 m 565 -258 q 524 -244 539 -258 q 510 -206 510 -231 q 524 -167 510 -181 q 565 -153 539 -153 q 604 -167 590 -153 q 618 -206 618 -181 q 565 -258 618 -258 z "},"N":{"ha":1007,"x_min":57,"x_max":975,"o":"m 164 144 l 164 836 l 194 833 l 194 144 q 218 45 194 74 q 300 17 242 17 q 304 8 304 17 q 300 0 304 0 q 245 1 274 0 q 182 3 217 3 q 118 1 149 3 q 60 0 88 0 q 57 8 57 0 q 60 17 57 17 q 142 45 121 17 q 164 144 164 74 m 863 -15 q 856 -19 863 -18 q 846 -18 849 -19 l 218 754 q 134 831 171 811 q 64 851 97 851 q 60 860 60 851 q 64 868 60 868 q 113 867 88 868 q 157 865 138 865 q 194 867 176 865 q 219 868 211 868 q 244 852 238 868 q 283 796 251 836 l 851 90 l 863 -15 m 863 722 l 863 -15 l 832 28 l 832 722 q 810 822 832 793 q 729 851 788 851 q 726 860 726 851 q 729 868 726 868 q 785 866 757 868 q 849 864 814 864 q 913 866 881 864 q 971 868 944 868 q 975 860 975 868 q 971 851 975 851 q 887 822 911 851 q 863 722 863 793 z "},"Ń":{"ha":1007,"x_min":57,"x_max":975,"o":"m 164 144 l 164 836 l 194 833 l 194 144 q 218 45 194 74 q 300 17 242 17 q 304 8 304 17 q 300 0 304 0 q 245 1 274 0 q 182 3 217 3 q 118 1 149 3 q 60 0 88 0 q 57 8 57 0 q 60 17 57 17 q 142 45 121 17 q 164 144 164 74 m 863 -15 q 856 -19 863 -18 q 846 -18 849 -19 l 218 754 q 134 831 171 811 q 64 851 97 851 q 60 860 60 851 q 64 868 60 868 q 113 867 88 868 q 157 865 138 865 q 194 867 176 865 q 219 868 211 868 q 244 852 238 868 q 283 796 251 836 l 851 90 l 863 -15 m 863 722 l 863 -15 l 832 28 l 832 722 q 810 822 832 793 q 729 851 788 851 q 726 860 726 851 q 729 868 726 868 q 785 866 757 868 q 849 864 814 864 q 913 866 881 864 q 971 868 944 868 q 975 860 975 868 q 971 851 975 851 q 887 822 911 851 q 863 722 863 793 m 385 943 q 376 948 379 940 q 378 957 374 956 q 503 1022 447 989 q 617 1086 560 1056 q 636 1084 621 1089 q 667 1072 651 1079 q 692 1058 683 1064 q 693 1050 700 1051 q 528 1001 600 1028 q 385 943 456 975 z "},"Ň":{"ha":1007,"x_min":57,"x_max":975,"o":"m 164 144 l 164 836 l 194 833 l 194 144 q 218 45 194 74 q 300 17 242 17 q 304 8 304 17 q 300 0 304 0 q 245 1 274 0 q 182 3 217 3 q 118 1 149 3 q 60 0 88 0 q 57 8 57 0 q 60 17 57 17 q 142 45 121 17 q 164 144 164 74 m 863 -15 q 856 -19 863 -18 q 846 -18 849 -19 l 218 754 q 134 831 171 811 q 64 851 97 851 q 60 860 60 851 q 64 868 60 868 q 113 867 88 868 q 157 865 138 865 q 194 867 176 865 q 219 868 211 868 q 244 852 238 868 q 283 796 251 836 l 851 90 l 863 -15 m 863 722 l 863 -15 l 832 28 l 832 722 q 810 822 832 793 q 729 851 788 851 q 726 860 726 851 q 729 868 726 868 q 785 866 757 868 q 849 864 814 864 q 913 866 881 864 q 971 868 944 868 q 975 860 975 868 q 971 851 975 851 q 887 822 911 851 q 863 722 863 793 m 503 954 l 360 1082 q 362 1089 357 1085 q 368 1092 367 1093 l 519 1006 l 669 1092 q 676 1090 672 1094 q 676 1082 681 1085 l 535 954 q 519 949 529 949 q 503 954 510 949 z "},"Ṋ":{"ha":1007,"x_min":57,"x_max":975,"o":"m 164 144 l 164 836 l 194 833 l 194 144 q 218 45 194 74 q 300 17 242 17 q 304 8 304 17 q 300 0 304 0 q 245 1 274 0 q 182 3 217 3 q 118 1 149 3 q 60 0 88 0 q 57 8 57 0 q 60 17 57 17 q 142 45 121 17 q 164 144 164 74 m 863 -15 q 856 -19 863 -18 q 846 -18 849 -19 l 218 754 q 134 831 171 811 q 64 851 97 851 q 60 860 60 851 q 64 868 60 868 q 113 867 88 868 q 157 865 138 865 q 194 867 176 865 q 219 868 211 868 q 244 852 238 868 q 283 796 251 836 l 851 90 l 863 -15 m 863 722 l 863 -15 l 832 28 l 832 722 q 810 822 832 793 q 729 851 788 851 q 726 860 726 851 q 729 868 726 868 q 785 866 757 868 q 849 864 814 864 q 913 866 881 864 q 971 868 944 868 q 975 860 975 868 q 971 851 975 851 q 887 822 911 851 q 863 722 863 793 m 369 -253 q 363 -249 368 -254 q 361 -243 358 -244 l 504 -114 q 521 -107 511 -107 q 536 -114 531 -107 l 678 -243 q 678 -249 682 -244 q 671 -253 674 -254 l 521 -167 l 369 -253 z "},"Ņ":{"ha":1007,"x_min":57,"x_max":975,"o":"m 164 144 l 164 836 l 194 833 l 194 144 q 218 45 194 74 q 300 17 242 17 q 304 8 304 17 q 300 0 304 0 q 245 1 274 0 q 182 3 217 3 q 118 1 149 3 q 60 0 88 0 q 57 8 57 0 q 60 17 57 17 q 142 45 121 17 q 164 144 164 74 m 863 -15 q 856 -19 863 -18 q 846 -18 849 -19 l 218 754 q 134 831 171 811 q 64 851 97 851 q 60 860 60 851 q 64 868 60 868 q 113 867 88 868 q 157 865 138 865 q 194 867 176 865 q 219 868 211 868 q 244 852 238 868 q 283 796 251 836 l 851 90 l 863 -15 m 863 722 l 863 -15 l 832 28 l 832 722 q 810 822 832 793 q 729 851 788 851 q 726 860 726 851 q 729 868 726 868 q 785 866 757 868 q 849 864 814 864 q 913 866 881 864 q 971 868 944 868 q 975 860 975 868 q 971 851 975 851 q 887 822 911 851 q 863 722 863 793 m 504 -382 q 494 -380 499 -385 q 493 -372 489 -375 q 539 -308 525 -342 q 553 -240 553 -275 q 545 -199 553 -210 q 526 -181 538 -187 l 549 -176 q 540 -210 553 -199 q 507 -221 526 -221 q 470 -208 483 -221 q 457 -172 457 -194 q 472 -134 457 -144 q 510 -124 488 -124 q 565 -149 546 -124 q 583 -222 583 -174 q 563 -308 583 -269 q 504 -382 542 -346 z "},"Ṅ":{"ha":1007,"x_min":57,"x_max":975,"o":"m 164 144 l 164 836 l 194 833 l 194 144 q 218 45 194 74 q 300 17 242 17 q 304 8 304 17 q 300 0 304 0 q 245 1 274 0 q 182 3 217 3 q 118 1 149 3 q 60 0 88 0 q 57 8 57 0 q 60 17 57 17 q 142 45 121 17 q 164 144 164 74 m 863 -15 q 856 -19 863 -18 q 846 -18 849 -19 l 218 754 q 134 831 171 811 q 64 851 97 851 q 60 860 60 851 q 64 868 60 868 q 113 867 88 868 q 157 865 138 865 q 194 867 176 865 q 219 868 211 868 q 244 852 238 868 q 283 796 251 836 l 851 90 l 863 -15 m 863 722 l 863 -15 l 832 28 l 832 722 q 810 822 832 793 q 729 851 788 851 q 726 860 726 851 q 729 868 726 868 q 785 866 757 868 q 849 864 814 864 q 913 866 881 864 q 971 868 944 868 q 975 860 975 868 q 971 851 975 851 q 887 822 911 851 q 863 722 863 793 m 519 990 q 478 1004 493 990 q 464 1044 464 1018 q 478 1082 464 1068 q 519 1096 493 1096 q 558 1082 544 1096 q 572 1044 572 1068 q 558 1004 572 1018 q 519 990 544 990 z "},"Ṇ":{"ha":1007,"x_min":57,"x_max":975,"o":"m 164 144 l 164 836 l 194 833 l 194 144 q 218 45 194 74 q 300 17 242 17 q 304 8 304 17 q 300 0 304 0 q 245 1 274 0 q 182 3 217 3 q 118 1 149 3 q 60 0 88 0 q 57 8 57 0 q 60 17 57 17 q 142 45 121 17 q 164 144 164 74 m 863 -15 q 856 -19 863 -18 q 846 -18 849 -19 l 218 754 q 134 831 171 811 q 64 851 97 851 q 60 860 60 851 q 64 868 60 868 q 113 867 88 868 q 157 865 138 865 q 194 867 176 865 q 219 868 211 868 q 244 852 238 868 q 283 796 251 836 l 851 90 l 863 -15 m 863 722 l 863 -15 l 832 28 l 832 722 q 810 822 832 793 q 729 851 788 851 q 726 860 726 851 q 729 868 726 868 q 785 866 757 868 q 849 864 814 864 q 913 866 881 864 q 971 868 944 868 q 975 860 975 868 q 971 851 975 851 q 887 822 911 851 q 863 722 863 793 m 521 -258 q 480 -244 494 -258 q 465 -206 465 -231 q 480 -167 465 -181 q 521 -153 494 -153 q 560 -167 546 -153 q 574 -206 574 -181 q 521 -258 574 -258 z "},"Ǹ":{"ha":1007,"x_min":57,"x_max":975,"o":"m 164 144 l 164 836 l 194 833 l 194 144 q 218 45 194 74 q 300 17 242 17 q 304 8 304 17 q 300 0 304 0 q 245 1 274 0 q 182 3 217 3 q 118 1 149 3 q 60 0 88 0 q 57 8 57 0 q 60 17 57 17 q 142 45 121 17 q 164 144 164 74 m 863 -15 q 856 -19 863 -18 q 846 -18 849 -19 l 218 754 q 134 831 171 811 q 64 851 97 851 q 60 860 60 851 q 64 868 60 868 q 113 867 88 868 q 157 865 138 865 q 194 867 176 865 q 219 868 211 868 q 244 852 238 868 q 283 796 251 836 l 851 90 l 863 -15 m 863 722 l 863 -15 l 832 28 l 832 722 q 810 822 832 793 q 729 851 788 851 q 726 860 726 851 q 729 868 726 868 q 785 866 757 868 q 849 864 814 864 q 913 866 881 864 q 971 868 944 868 q 975 860 975 868 q 971 851 975 851 q 887 822 911 851 q 863 722 863 793 m 657 943 q 513 1001 586 975 q 347 1050 440 1028 q 349 1058 340 1051 q 374 1072 358 1064 q 405 1084 390 1079 q 424 1086 419 1089 q 538 1022 481 1054 q 663 957 594 989 q 665 948 668 956 q 657 943 663 940 z "},"Ṉ":{"ha":1007,"x_min":57,"x_max":975,"o":"m 164 144 l 164 836 l 194 833 l 194 144 q 218 45 194 74 q 300 17 242 17 q 304 8 304 17 q 300 0 304 0 q 245 1 274 0 q 182 3 217 3 q 118 1 149 3 q 60 0 88 0 q 57 8 57 0 q 60 17 57 17 q 142 45 121 17 q 164 144 164 74 m 863 -15 q 856 -19 863 -18 q 846 -18 849 -19 l 218 754 q 134 831 171 811 q 64 851 97 851 q 60 860 60 851 q 64 868 60 868 q 113 867 88 868 q 157 865 138 865 q 194 867 176 865 q 219 868 211 868 q 244 852 238 868 q 283 796 251 836 l 851 90 l 863 -15 m 863 722 l 863 -15 l 832 28 l 832 722 q 810 822 832 793 q 729 851 788 851 q 726 860 726 851 q 729 868 726 868 q 785 866 757 868 q 849 864 814 864 q 913 866 881 864 q 971 868 944 868 q 975 860 975 868 q 971 851 975 851 q 887 822 911 851 q 863 722 863 793 m 344 -154 q 338 -145 340 -154 q 338 -127 336 -136 q 344 -118 340 -118 l 693 -118 q 700 -127 699 -118 q 700 -145 701 -136 q 693 -154 699 -154 l 344 -154 z "},"Ñ":{"ha":1007,"x_min":57,"x_max":975,"o":"m 164 144 l 164 836 l 194 833 l 194 144 q 218 45 194 74 q 300 17 242 17 q 304 8 304 17 q 300 0 304 0 q 245 1 274 0 q 182 3 217 3 q 118 1 149 3 q 60 0 88 0 q 57 8 57 0 q 60 17 57 17 q 142 45 121 17 q 164 144 164 74 m 863 -15 q 856 -19 863 -18 q 846 -18 849 -19 l 218 754 q 134 831 171 811 q 64 851 97 851 q 60 860 60 851 q 64 868 60 868 q 113 867 88 868 q 157 865 138 865 q 194 867 176 865 q 219 868 211 868 q 244 852 238 868 q 283 796 251 836 l 851 90 l 863 -15 m 863 722 l 863 -15 l 832 28 l 832 722 q 810 822 832 793 q 729 851 788 851 q 726 860 726 851 q 729 868 726 868 q 785 866 757 868 q 849 864 814 864 q 913 866 881 864 q 971 868 944 868 q 975 860 975 868 q 971 851 975 851 q 887 822 911 851 q 863 722 863 793 m 626 1044 q 669 1056 654 1044 q 694 1082 683 1068 q 702 1080 697 1085 q 704 1072 707 1075 q 643 1008 667 1024 q 596 992 619 992 q 535 1001 564 992 q 478 1018 507 1010 q 413 1026 449 1026 q 372 1015 385 1026 q 344 989 358 1003 q 337 991 342 988 q 335 999 332 994 q 365 1032 346 1014 q 406 1064 383 1050 q 451 1078 428 1078 q 503 1069 476 1078 q 561 1053 531 1061 q 626 1044 592 1044 z "},"Ŋ":{"ha":1007,"x_min":57,"x_max":975,"o":"m 846 -18 l 218 754 q 134 831 171 811 q 64 851 97 851 q 60 860 60 851 q 64 868 60 868 q 113 867 88 868 q 157 865 138 865 q 194 867 176 865 q 219 868 211 868 q 244 852 238 868 q 283 796 251 836 l 851 90 l 863 -15 l 846 -18 m 688 -265 q 611 -242 640 -265 q 582 -189 582 -219 q 592 -156 582 -168 q 619 -144 601 -144 q 647 -154 638 -144 q 660 -178 656 -164 q 672 -206 665 -192 q 690 -231 678 -221 q 722 -240 701 -240 q 806 -178 776 -240 q 835 -19 835 -117 l 863 -15 q 818 -201 863 -137 q 688 -265 774 -265 m 60 0 q 57 8 57 0 q 60 17 57 17 q 144 45 121 17 q 167 144 167 74 l 167 836 l 194 833 l 194 144 q 218 45 194 74 q 300 17 242 17 q 304 8 304 17 q 300 0 304 0 q 245 1 274 0 q 182 3 217 3 q 118 1 149 3 q 60 0 88 0 m 835 -19 l 835 722 q 811 822 835 793 q 729 851 788 851 q 726 860 726 851 q 729 868 726 868 q 785 866 757 868 q 849 864 814 864 q 913 866 881 864 q 971 868 944 868 q 975 860 975 868 q 971 851 975 851 q 887 822 911 851 q 863 722 863 793 l 863 -15 l 835 -19 z "},"O":{"ha":1064,"x_min":68,"x_max":996,"o":"m 508 -17 q 327 19 408 -17 q 188 117 246 54 q 99 260 131 179 q 68 433 68 342 q 112 631 68 546 q 228 772 156 715 q 386 856 300 828 q 557 883 472 883 q 741 847 660 883 q 879 747 822 810 q 966 606 936 685 q 996 443 996 526 q 957 263 996 346 q 851 117 918 179 q 695 19 783 54 q 508 -17 607 -17 m 558 11 q 735 56 656 11 q 860 190 814 101 q 907 404 907 278 q 856 637 907 536 q 714 795 806 738 q 499 853 622 853 q 247 753 338 853 q 157 481 157 653 q 185 298 157 383 q 267 148 214 213 q 394 47 321 83 q 558 11 468 11 z "},"Ó":{"ha":1064,"x_min":68,"x_max":996,"o":"m 508 -17 q 327 19 408 -17 q 188 117 246 54 q 99 260 131 179 q 68 433 68 342 q 112 631 68 546 q 228 772 156 715 q 386 856 300 828 q 557 883 472 883 q 741 847 660 883 q 879 747 822 810 q 966 606 936 685 q 996 443 996 526 q 957 263 996 346 q 851 117 918 179 q 695 19 783 54 q 508 -17 607 -17 m 558 11 q 735 56 656 11 q 860 190 814 101 q 907 404 907 278 q 856 637 907 536 q 714 795 806 738 q 499 853 622 853 q 247 753 338 853 q 157 481 157 653 q 185 298 157 383 q 267 148 214 213 q 394 47 321 83 q 558 11 468 11 m 399 943 q 390 948 393 940 q 392 957 388 956 q 517 1022 461 989 q 631 1086 574 1056 q 650 1084 635 1089 q 681 1072 665 1079 q 706 1058 697 1064 q 707 1050 714 1051 q 542 1001 614 1028 q 399 943 469 975 z "},"Ŏ":{"ha":1064,"x_min":68,"x_max":996,"o":"m 508 -17 q 327 19 408 -17 q 188 117 246 54 q 99 260 131 179 q 68 433 68 342 q 112 631 68 546 q 228 772 156 715 q 386 856 300 828 q 557 883 472 883 q 741 847 660 883 q 879 747 822 810 q 966 606 936 685 q 996 443 996 526 q 957 263 996 346 q 851 117 918 179 q 695 19 783 54 q 508 -17 607 -17 m 558 11 q 735 56 656 11 q 860 190 814 101 q 907 404 907 278 q 856 637 907 536 q 714 795 806 738 q 499 853 622 853 q 247 753 338 853 q 157 481 157 653 q 185 298 157 383 q 267 148 214 213 q 394 47 321 83 q 558 11 468 11 m 533 958 q 440 995 476 958 q 390 1100 403 1032 q 397 1106 389 1106 q 406 1104 404 1107 q 453 1035 417 1064 q 533 1006 490 1006 q 612 1035 575 1006 q 660 1104 649 1064 q 669 1106 661 1107 q 675 1100 676 1106 q 626 995 663 1032 q 533 958 590 958 z "},"Ǒ":{"ha":1064,"x_min":68,"x_max":996,"o":"m 508 -17 q 327 19 408 -17 q 188 117 246 54 q 99 260 131 179 q 68 433 68 342 q 112 631 68 546 q 228 772 156 715 q 386 856 300 828 q 557 883 472 883 q 741 847 660 883 q 879 747 822 810 q 966 606 936 685 q 996 443 996 526 q 957 263 996 346 q 851 117 918 179 q 695 19 783 54 q 508 -17 607 -17 m 558 11 q 735 56 656 11 q 860 190 814 101 q 907 404 907 278 q 856 637 907 536 q 714 795 806 738 q 499 853 622 853 q 247 753 338 853 q 157 481 157 653 q 185 298 157 383 q 267 148 214 213 q 394 47 321 83 q 558 11 468 11 m 517 954 l 374 1082 q 376 1089 371 1085 q 382 1092 381 1093 l 533 1006 l 683 1092 q 690 1090 686 1094 q 690 1082 694 1085 l 549 954 q 533 949 543 949 q 517 954 524 949 z "},"Ô":{"ha":1064,"x_min":68,"x_max":996,"o":"m 508 -17 q 327 19 408 -17 q 188 117 246 54 q 99 260 131 179 q 68 433 68 342 q 112 631 68 546 q 228 772 156 715 q 386 856 300 828 q 557 883 472 883 q 741 847 660 883 q 879 747 822 810 q 966 606 936 685 q 996 443 996 526 q 957 263 996 346 q 851 117 918 179 q 695 19 783 54 q 508 -17 607 -17 m 558 11 q 735 56 656 11 q 860 190 814 101 q 907 404 907 278 q 856 637 907 536 q 714 795 806 738 q 499 853 622 853 q 247 753 338 853 q 157 481 157 653 q 185 298 157 383 q 267 148 214 213 q 394 47 321 83 q 558 11 468 11 m 375 958 l 518 1088 q 535 1094 525 1094 q 550 1088 544 1094 l 692 958 q 692 952 696 957 q 685 949 688 947 l 535 1035 l 383 949 q 377 952 382 947 q 375 958 372 957 z "},"Ố":{"ha":1064,"x_min":68,"x_max":996,"o":"m 508 -17 q 327 19 408 -17 q 188 117 246 54 q 99 260 131 179 q 68 433 68 342 q 112 631 68 546 q 228 772 156 715 q 386 856 300 828 q 557 883 472 883 q 741 847 660 883 q 879 747 822 810 q 966 606 936 685 q 996 443 996 526 q 957 263 996 346 q 851 117 918 179 q 695 19 783 54 q 508 -17 607 -17 m 558 11 q 735 56 656 11 q 860 190 814 101 q 907 404 907 278 q 856 637 907 536 q 714 795 806 738 q 499 853 622 853 q 247 753 338 853 q 157 481 157 653 q 185 298 157 383 q 267 148 214 213 q 394 47 321 83 q 558 11 468 11 m 374 956 l 517 1083 q 533 1090 524 1090 q 549 1083 543 1090 l 690 956 q 690 949 694 954 q 683 946 686 944 l 533 1032 l 382 946 q 376 949 381 944 q 374 956 371 954 m 625 997 q 616 999 619 994 q 615 1008 613 1004 q 675 1074 647 1040 q 728 1140 703 1107 q 741 1141 731 1143 q 764 1133 751 1139 q 788 1122 776 1128 q 805 1110 800 1115 q 804 1104 810 1106 q 708 1056 750 1082 q 625 997 667 1029 z "},"Ộ":{"ha":1064,"x_min":68,"x_max":996,"o":"m 508 -17 q 327 19 408 -17 q 188 117 246 54 q 99 260 131 179 q 68 433 68 342 q 112 631 68 546 q 228 772 156 715 q 386 856 300 828 q 557 883 472 883 q 741 847 660 883 q 879 747 822 810 q 966 606 936 685 q 996 443 996 526 q 957 263 996 346 q 851 117 918 179 q 695 19 783 54 q 508 -17 607 -17 m 558 11 q 735 56 656 11 q 860 190 814 101 q 907 404 907 278 q 856 637 907 536 q 714 795 806 738 q 499 853 622 853 q 247 753 338 853 q 157 481 157 653 q 185 298 157 383 q 267 148 214 213 q 394 47 321 83 q 558 11 468 11 m 550 -258 q 509 -244 524 -258 q 494 -206 494 -231 q 509 -167 494 -181 q 550 -153 524 -153 q 589 -167 575 -153 q 603 -206 603 -181 q 550 -258 603 -258 m 374 956 l 517 1083 q 533 1090 524 1090 q 549 1083 543 1090 l 690 956 q 690 949 694 954 q 683 946 686 944 l 533 1032 l 382 946 q 376 949 381 944 q 374 956 371 954 z "},"Ồ":{"ha":1064,"x_min":68,"x_max":996,"o":"m 508 -17 q 327 19 408 -17 q 188 117 246 54 q 99 260 131 179 q 68 433 68 342 q 112 631 68 546 q 228 772 156 715 q 386 856 300 828 q 557 883 472 883 q 741 847 660 883 q 879 747 822 810 q 966 606 936 685 q 996 443 996 526 q 957 263 996 346 q 851 117 918 179 q 695 19 783 54 q 508 -17 607 -17 m 558 11 q 735 56 656 11 q 860 190 814 101 q 907 404 907 278 q 856 637 907 536 q 714 795 806 738 q 499 853 622 853 q 247 753 338 853 q 157 481 157 653 q 185 298 157 383 q 267 148 214 213 q 394 47 321 83 q 558 11 468 11 m 374 956 l 517 1083 q 533 1090 524 1090 q 549 1083 543 1090 l 690 956 q 690 949 694 954 q 683 946 686 944 l 533 1032 l 382 946 q 376 949 381 944 q 374 956 371 954 m 771 965 q 688 1024 729 997 q 592 1072 646 1050 q 592 1078 586 1074 q 608 1090 597 1083 q 633 1101 619 1096 q 656 1109 646 1107 q 668 1108 667 1111 q 722 1042 693 1075 q 781 978 750 1010 q 782 967 786 972 q 771 965 778 963 z "},"Ổ":{"ha":1064,"x_min":68,"x_max":996,"o":"m 508 -17 q 327 19 408 -17 q 188 117 246 54 q 99 260 131 179 q 68 433 68 342 q 112 631 68 546 q 228 772 156 715 q 386 856 300 828 q 557 883 472 883 q 741 847 660 883 q 879 747 822 810 q 966 606 936 685 q 996 443 996 526 q 957 263 996 346 q 851 117 918 179 q 695 19 783 54 q 508 -17 607 -17 m 558 11 q 735 56 656 11 q 860 190 814 101 q 907 404 907 278 q 856 637 907 536 q 714 795 806 738 q 499 853 622 853 q 247 753 338 853 q 157 481 157 653 q 185 298 157 383 q 267 148 214 213 q 394 47 321 83 q 558 11 468 11 m 374 956 l 517 1083 q 533 1090 524 1090 q 549 1083 543 1090 l 690 956 q 690 949 694 954 q 683 946 686 944 l 533 1032 l 382 946 q 376 949 381 944 q 374 956 371 954 m 642 1003 q 644 1046 633 1026 q 668 1085 654 1065 q 682 1126 682 1104 q 666 1159 682 1149 q 633 1169 650 1169 q 599 1161 614 1169 q 590 1165 596 1160 q 589 1172 585 1171 q 634 1192 611 1186 q 672 1199 657 1199 q 720 1180 704 1199 q 736 1140 736 1161 q 722 1101 736 1118 q 691 1067 708 1083 q 663 1036 674 1051 q 657 1003 651 1021 q 651 999 660 1000 q 642 1003 643 999 z "},"Ỗ":{"ha":1064,"x_min":68,"x_max":996,"o":"m 508 -17 q 327 19 408 -17 q 188 117 246 54 q 99 260 131 179 q 68 433 68 342 q 112 631 68 546 q 228 772 156 715 q 386 856 300 828 q 557 883 472 883 q 741 847 660 883 q 879 747 822 810 q 966 606 936 685 q 996 443 996 526 q 957 263 996 346 q 851 117 918 179 q 695 19 783 54 q 508 -17 607 -17 m 558 11 q 735 56 656 11 q 860 190 814 101 q 907 404 907 278 q 856 637 907 536 q 714 795 806 738 q 499 853 622 853 q 247 753 338 853 q 157 481 157 653 q 185 298 157 383 q 267 148 214 213 q 394 47 321 83 q 558 11 468 11 m 374 956 l 517 1083 q 533 1090 524 1090 q 549 1083 543 1090 l 690 956 q 690 949 694 954 q 683 946 686 944 l 533 1032 l 382 946 q 376 949 381 944 q 374 956 371 954 m 647 1153 q 690 1165 675 1153 q 715 1190 704 1176 q 723 1188 718 1193 q 725 1181 728 1183 q 664 1116 688 1132 q 617 1100 640 1100 q 556 1109 585 1100 q 499 1126 528 1118 q 433 1135 469 1135 q 392 1123 406 1135 q 365 1097 379 1111 q 358 1099 363 1096 q 356 1107 353 1103 q 385 1140 367 1122 q 426 1172 404 1158 q 472 1186 449 1186 q 524 1178 497 1186 q 582 1161 551 1169 q 647 1153 613 1153 z "},"Ȍ":{"ha":1064,"x_min":68,"x_max":996,"o":"m 672 944 q 581 1001 625 976 q 478 1050 536 1026 q 481 1059 471 1053 q 507 1071 490 1065 q 539 1079 524 1076 q 558 1078 554 1082 q 617 1018 588 1047 q 683 957 647 989 q 682 947 686 954 q 672 944 678 940 m 510 944 q 419 1002 463 976 q 319 1050 375 1028 q 322 1059 313 1053 q 347 1071 331 1065 q 378 1079 364 1076 q 396 1078 392 1082 q 455 1018 425 1047 q 521 957 485 989 q 519 947 524 954 q 510 944 515 940 m 508 -17 q 327 19 408 -17 q 188 117 246 54 q 99 260 131 179 q 68 433 68 342 q 112 631 68 546 q 228 772 156 715 q 386 856 300 828 q 557 883 472 883 q 741 847 660 883 q 879 747 822 810 q 966 606 936 685 q 996 443 996 526 q 957 263 996 346 q 851 117 918 179 q 695 19 783 54 q 508 -17 607 -17 m 558 11 q 735 56 656 11 q 860 190 814 101 q 907 404 907 278 q 856 637 907 536 q 714 795 806 738 q 499 853 622 853 q 247 753 338 853 q 157 481 157 653 q 185 298 157 383 q 267 148 214 213 q 394 47 321 83 q 558 11 468 11 z "},"Ö":{"ha":1064,"x_min":68,"x_max":996,"o":"m 508 -17 q 327 19 408 -17 q 188 117 246 54 q 99 260 131 179 q 68 433 68 342 q 112 631 68 546 q 228 772 156 715 q 386 856 300 828 q 557 883 472 883 q 741 847 660 883 q 879 747 822 810 q 966 606 936 685 q 996 443 996 526 q 957 263 996 346 q 851 117 918 179 q 695 19 783 54 q 508 -17 607 -17 m 558 11 q 735 56 656 11 q 860 190 814 101 q 907 404 907 278 q 856 637 907 536 q 714 795 806 738 q 499 853 622 853 q 247 753 338 853 q 157 481 157 653 q 185 298 157 383 q 267 148 214 213 q 394 47 321 83 q 558 11 468 11 m 413 1000 q 372 1014 386 1000 q 357 1053 357 1028 q 372 1092 357 1078 q 413 1106 386 1106 q 451 1092 438 1106 q 465 1053 465 1078 q 413 1000 465 1000 m 656 1000 q 615 1014 631 1000 q 600 1053 600 1028 q 615 1092 600 1078 q 656 1106 631 1106 q 710 1053 710 1106 q 656 1000 710 1000 z "},"Ọ":{"ha":1064,"x_min":68,"x_max":996,"o":"m 508 -17 q 327 19 408 -17 q 188 117 246 54 q 99 260 131 179 q 68 433 68 342 q 112 631 68 546 q 228 772 156 715 q 386 856 300 828 q 557 883 472 883 q 741 847 660 883 q 879 747 822 810 q 966 606 936 685 q 996 443 996 526 q 957 263 996 346 q 851 117 918 179 q 695 19 783 54 q 508 -17 607 -17 m 558 11 q 735 56 656 11 q 860 190 814 101 q 907 404 907 278 q 856 637 907 536 q 714 795 806 738 q 499 853 622 853 q 247 753 338 853 q 157 481 157 653 q 185 298 157 383 q 267 148 214 213 q 394 47 321 83 q 558 11 468 11 m 550 -258 q 509 -244 524 -258 q 494 -206 494 -231 q 509 -167 494 -181 q 550 -153 524 -153 q 589 -167 575 -153 q 603 -206 603 -181 q 550 -258 603 -258 z "},"Ò":{"ha":1064,"x_min":68,"x_max":996,"o":"m 508 -17 q 327 19 408 -17 q 188 117 246 54 q 99 260 131 179 q 68 433 68 342 q 112 631 68 546 q 228 772 156 715 q 386 856 300 828 q 557 883 472 883 q 741 847 660 883 q 879 747 822 810 q 966 606 936 685 q 996 443 996 526 q 957 263 996 346 q 851 117 918 179 q 695 19 783 54 q 508 -17 607 -17 m 558 11 q 735 56 656 11 q 860 190 814 101 q 907 404 907 278 q 856 637 907 536 q 714 795 806 738 q 499 853 622 853 q 247 753 338 853 q 157 481 157 653 q 185 298 157 383 q 267 148 214 213 q 394 47 321 83 q 558 11 468 11 m 671 943 q 527 1001 600 975 q 361 1050 454 1028 q 363 1058 354 1051 q 388 1072 372 1064 q 419 1084 404 1079 q 438 1086 433 1089 q 551 1022 494 1054 q 676 957 608 989 q 679 948 682 956 q 671 943 676 940 z "},"Ỏ":{"ha":1064,"x_min":68,"x_max":996,"o":"m 508 -17 q 327 19 408 -17 q 188 117 246 54 q 99 260 131 179 q 68 433 68 342 q 112 631 68 546 q 228 772 156 715 q 386 856 300 828 q 557 883 472 883 q 741 847 660 883 q 879 747 822 810 q 966 606 936 685 q 996 443 996 526 q 957 263 996 346 q 851 117 918 179 q 695 19 783 54 q 508 -17 607 -17 m 558 11 q 735 56 656 11 q 860 190 814 101 q 907 404 907 278 q 856 637 907 536 q 714 795 806 738 q 499 853 622 853 q 247 753 338 853 q 157 481 157 653 q 185 298 157 383 q 267 148 214 213 q 394 47 321 83 q 558 11 468 11 m 538 904 q 531 902 539 903 q 522 904 524 901 q 520 957 513 933 q 542 1000 528 981 q 567 1039 556 1019 q 579 1081 579 1058 q 559 1123 579 1108 q 515 1138 539 1138 q 496 1135 506 1138 q 479 1129 486 1132 q 470 1133 476 1128 q 469 1140 464 1139 q 514 1160 492 1154 q 554 1167 536 1167 q 619 1144 597 1167 q 640 1094 640 1122 q 622 1042 640 1065 q 582 999 604 1019 q 545 956 560 978 q 538 904 531 933 z "},"Ơ":{"ha":1064,"x_min":68,"x_max":1014,"o":"m 508 -17 q 327 19 408 -17 q 188 117 246 54 q 99 260 131 179 q 68 433 68 342 q 112 631 68 546 q 228 772 156 715 q 386 856 300 828 q 557 883 472 883 q 741 847 660 883 q 879 747 822 810 q 966 606 936 685 q 996 443 996 526 q 957 263 996 346 q 851 117 918 179 q 695 19 783 54 q 508 -17 607 -17 m 558 11 q 735 56 656 11 q 860 190 814 101 q 907 404 907 278 q 856 637 907 536 q 714 795 806 738 q 499 853 622 853 q 247 753 338 853 q 157 481 157 653 q 185 298 157 383 q 267 148 214 213 q 394 47 321 83 q 558 11 468 11 m 839 739 l 835 758 q 938 858 938 803 q 931 881 938 874 q 917 898 924 889 q 910 926 910 907 q 927 963 910 950 q 963 975 944 975 q 1001 956 989 975 q 1014 915 1014 938 q 988 839 1014 872 q 921 781 961 806 q 839 739 881 756 z "},"Ớ":{"ha":1064,"x_min":68,"x_max":1014,"o":"m 508 -17 q 327 19 408 -17 q 188 117 246 54 q 99 260 131 179 q 68 433 68 342 q 112 631 68 546 q 228 772 156 715 q 386 856 300 828 q 557 883 472 883 q 741 847 660 883 q 879 747 822 810 q 966 606 936 685 q 996 443 996 526 q 957 263 996 346 q 851 117 918 179 q 695 19 783 54 q 508 -17 607 -17 m 558 11 q 735 56 656 11 q 860 190 814 101 q 907 404 907 278 q 856 637 907 536 q 714 795 806 738 q 499 853 622 853 q 247 753 338 853 q 157 481 157 653 q 185 298 157 383 q 267 148 214 213 q 394 47 321 83 q 558 11 468 11 m 839 739 l 835 758 q 938 858 938 803 q 931 881 938 874 q 917 898 924 889 q 910 926 910 907 q 927 963 910 950 q 963 975 944 975 q 1001 956 989 975 q 1014 915 1014 938 q 988 839 1014 872 q 921 781 961 806 q 839 739 881 756 m 399 942 q 390 948 393 940 q 392 957 388 956 q 517 1022 461 989 q 631 1085 574 1054 q 650 1083 635 1088 q 681 1072 665 1079 q 706 1058 697 1064 q 707 1050 714 1051 q 542 1000 614 1026 q 399 942 469 974 z "},"Ợ":{"ha":1064,"x_min":68,"x_max":1014,"o":"m 508 -17 q 327 19 408 -17 q 188 117 246 54 q 99 260 131 179 q 68 433 68 342 q 112 631 68 546 q 228 772 156 715 q 386 856 300 828 q 557 883 472 883 q 741 847 660 883 q 879 747 822 810 q 966 606 936 685 q 996 443 996 526 q 957 263 996 346 q 851 117 918 179 q 695 19 783 54 q 508 -17 607 -17 m 558 11 q 735 56 656 11 q 860 190 814 101 q 907 404 907 278 q 856 637 907 536 q 714 795 806 738 q 499 853 622 853 q 247 753 338 853 q 157 481 157 653 q 185 298 157 383 q 267 148 214 213 q 394 47 321 83 q 558 11 468 11 m 839 739 l 835 758 q 938 858 938 803 q 931 881 938 874 q 917 898 924 889 q 910 926 910 907 q 927 963 910 950 q 963 975 944 975 q 1001 956 989 975 q 1014 915 1014 938 q 988 839 1014 872 q 921 781 961 806 q 839 739 881 756 m 535 -258 q 494 -244 508 -258 q 479 -206 479 -231 q 494 -167 479 -181 q 535 -153 508 -153 q 574 -167 560 -153 q 588 -206 588 -181 q 535 -258 588 -258 z "},"Ờ":{"ha":1064,"x_min":68,"x_max":1014,"o":"m 508 -17 q 327 19 408 -17 q 188 117 246 54 q 99 260 131 179 q 68 433 68 342 q 112 631 68 546 q 228 772 156 715 q 386 856 300 828 q 557 883 472 883 q 741 847 660 883 q 879 747 822 810 q 966 606 936 685 q 996 443 996 526 q 957 263 996 346 q 851 117 918 179 q 695 19 783 54 q 508 -17 607 -17 m 558 11 q 735 56 656 11 q 860 190 814 101 q 907 404 907 278 q 856 637 907 536 q 714 795 806 738 q 499 853 622 853 q 247 753 338 853 q 157 481 157 653 q 185 298 157 383 q 267 148 214 213 q 394 47 321 83 q 558 11 468 11 m 839 739 l 835 758 q 938 858 938 803 q 931 881 938 874 q 917 898 924 889 q 910 926 910 907 q 927 963 910 950 q 963 975 944 975 q 1001 956 989 975 q 1014 915 1014 938 q 988 839 1014 872 q 921 781 961 806 q 839 739 881 756 m 671 943 q 527 1001 600 975 q 361 1050 454 1028 q 363 1058 354 1051 q 388 1072 372 1064 q 419 1084 404 1079 q 438 1086 433 1089 q 551 1022 494 1054 q 676 957 608 989 q 679 948 682 956 q 671 943 676 940 z "},"Ở":{"ha":1064,"x_min":68,"x_max":1014,"o":"m 508 -17 q 327 19 408 -17 q 188 117 246 54 q 99 260 131 179 q 68 433 68 342 q 112 631 68 546 q 228 772 156 715 q 386 856 300 828 q 557 883 472 883 q 741 847 660 883 q 879 747 822 810 q 966 606 936 685 q 996 443 996 526 q 957 263 996 346 q 851 117 918 179 q 695 19 783 54 q 508 -17 607 -17 m 558 11 q 735 56 656 11 q 860 190 814 101 q 907 404 907 278 q 856 637 907 536 q 714 795 806 738 q 499 853 622 853 q 247 753 338 853 q 157 481 157 653 q 185 298 157 383 q 267 148 214 213 q 394 47 321 83 q 558 11 468 11 m 839 739 l 835 758 q 938 858 938 803 q 931 881 938 874 q 917 898 924 889 q 910 926 910 907 q 927 963 910 950 q 963 975 944 975 q 1001 956 989 975 q 1014 915 1014 938 q 988 839 1014 872 q 921 781 961 806 q 839 739 881 756 m 522 918 q 517 915 525 915 q 507 918 508 914 q 505 970 497 947 q 526 1013 513 993 q 552 1051 540 1032 q 564 1093 564 1071 q 544 1135 564 1121 q 500 1150 524 1150 q 481 1147 490 1150 q 464 1142 471 1144 q 456 1146 461 1140 q 454 1153 450 1151 q 499 1173 476 1167 q 539 1179 521 1179 q 603 1157 582 1179 q 625 1107 625 1135 q 607 1055 625 1078 q 567 1012 589 1032 q 530 969 544 992 q 522 918 515 947 z "},"Ỡ":{"ha":1064,"x_min":68,"x_max":1014,"o":"m 508 -17 q 327 19 408 -17 q 188 117 246 54 q 99 260 131 179 q 68 433 68 342 q 112 631 68 546 q 228 772 156 715 q 386 856 300 828 q 557 883 472 883 q 741 847 660 883 q 879 747 822 810 q 966 606 936 685 q 996 443 996 526 q 957 263 996 346 q 851 117 918 179 q 695 19 783 54 q 508 -17 607 -17 m 558 11 q 735 56 656 11 q 860 190 814 101 q 907 404 907 278 q 856 637 907 536 q 714 795 806 738 q 499 853 622 853 q 247 753 338 853 q 157 481 157 653 q 185 298 157 383 q 267 148 214 213 q 394 47 321 83 q 558 11 468 11 m 839 739 l 835 758 q 938 858 938 803 q 931 881 938 874 q 917 898 924 889 q 910 926 910 907 q 927 963 910 950 q 963 975 944 975 q 1001 956 989 975 q 1014 915 1014 938 q 988 839 1014 872 q 921 781 961 806 q 839 739 881 756 m 640 1044 q 683 1056 668 1044 q 708 1082 697 1068 q 716 1080 711 1085 q 718 1072 721 1075 q 657 1008 681 1024 q 610 992 633 992 q 549 1001 578 992 q 492 1018 521 1010 q 426 1026 463 1026 q 385 1015 399 1026 q 358 989 372 1003 q 351 991 356 988 q 349 999 346 994 q 378 1032 360 1014 q 419 1064 397 1050 q 465 1078 442 1078 q 517 1069 490 1078 q 575 1053 544 1061 q 640 1044 606 1044 z "},"Ő":{"ha":1064,"x_min":68,"x_max":996,"o":"m 508 -17 q 327 19 408 -17 q 188 117 246 54 q 99 260 131 179 q 68 433 68 342 q 112 631 68 546 q 228 772 156 715 q 386 856 300 828 q 557 883 472 883 q 741 847 660 883 q 879 747 822 810 q 966 606 936 685 q 996 443 996 526 q 957 263 996 346 q 851 117 918 179 q 695 19 783 54 q 508 -17 607 -17 m 558 11 q 735 56 656 11 q 860 190 814 101 q 907 404 907 278 q 856 637 907 536 q 714 795 806 738 q 499 853 622 853 q 247 753 338 853 q 157 481 157 653 q 185 298 157 383 q 267 148 214 213 q 394 47 321 83 q 558 11 468 11 m 390 943 q 383 947 385 939 q 383 957 381 954 q 449 1018 419 989 q 508 1078 479 1047 q 528 1079 513 1082 q 560 1071 543 1076 q 586 1059 576 1065 q 589 1050 596 1053 q 485 1001 531 1026 q 390 943 439 975 m 553 943 q 545 947 547 939 q 546 957 543 954 q 612 1018 582 989 q 671 1078 642 1047 q 689 1079 675 1082 q 719 1071 703 1076 q 745 1059 736 1065 q 747 1050 754 1053 q 647 1001 692 1028 q 553 943 601 975 z "},"Ȏ":{"ha":1064,"x_min":68,"x_max":996,"o":"m 508 -17 q 327 19 408 -17 q 188 117 246 54 q 99 260 131 179 q 68 433 68 342 q 112 631 68 546 q 228 772 156 715 q 386 856 300 828 q 557 883 472 883 q 741 847 660 883 q 879 747 822 810 q 966 606 936 685 q 996 443 996 526 q 957 263 996 346 q 851 117 918 179 q 695 19 783 54 q 508 -17 607 -17 m 558 11 q 735 56 656 11 q 860 190 814 101 q 907 404 907 278 q 856 637 907 536 q 714 795 806 738 q 499 853 622 853 q 247 753 338 853 q 157 481 157 653 q 185 298 157 383 q 267 148 214 213 q 394 47 321 83 q 558 11 468 11 m 406 947 q 397 944 404 943 q 390 950 389 946 q 533 1092 417 1092 q 675 950 649 1092 q 669 944 676 946 q 660 947 661 943 q 612 1016 649 988 q 533 1044 575 1044 q 453 1016 490 1044 q 406 947 417 988 z "},"Ō":{"ha":1064,"x_min":68,"x_max":996,"o":"m 508 -17 q 327 19 408 -17 q 188 117 246 54 q 99 260 131 179 q 68 433 68 342 q 112 631 68 546 q 228 772 156 715 q 386 856 300 828 q 557 883 472 883 q 741 847 660 883 q 879 747 822 810 q 966 606 936 685 q 996 443 996 526 q 957 263 996 346 q 851 117 918 179 q 695 19 783 54 q 508 -17 607 -17 m 558 11 q 735 56 656 11 q 860 190 814 101 q 907 404 907 278 q 856 637 907 536 q 714 795 806 738 q 499 853 622 853 q 247 753 338 853 q 157 481 157 653 q 185 298 157 383 q 267 148 214 213 q 394 47 321 83 q 558 11 468 11 m 358 1006 q 352 1015 354 1006 q 352 1033 350 1024 q 358 1042 354 1042 l 707 1042 q 714 1033 713 1042 q 714 1015 715 1024 q 707 1006 713 1006 l 358 1006 z "},"Ǫ":{"ha":1064,"x_min":68,"x_max":996,"o":"m 508 -17 q 327 19 408 -17 q 188 117 246 54 q 99 260 131 179 q 68 433 68 342 q 112 631 68 546 q 228 772 156 715 q 386 856 300 828 q 557 883 472 883 q 741 847 660 883 q 879 747 822 810 q 966 606 936 685 q 996 443 996 526 q 957 263 996 346 q 851 117 918 179 q 695 19 783 54 q 508 -17 607 -17 m 558 11 q 735 56 656 11 q 860 190 814 101 q 907 404 907 278 q 856 637 907 536 q 714 795 806 738 q 499 853 622 853 q 247 753 338 853 q 157 481 157 653 q 185 298 157 383 q 267 148 214 213 q 394 47 321 83 q 558 11 468 11 m 603 8 l 618 1 q 531 -101 558 -51 q 504 -208 504 -151 q 536 -308 504 -272 q 632 -344 568 -344 q 690 -333 668 -344 q 731 -308 713 -322 q 740 -311 735 -306 q 740 -319 744 -317 q 667 -367 703 -353 q 592 -382 631 -382 q 476 -345 515 -382 q 438 -249 438 -308 q 479 -121 438 -185 q 603 8 521 -57 z "},"Ø":{"ha":1064,"x_min":68,"x_max":996,"o":"m 107 -10 q 100 -9 106 -12 q 90 1 94 -6 q 89 10 86 7 l 940 874 q 955 870 944 878 q 960 858 965 863 l 107 -10 m 508 -17 q 327 19 408 -17 q 188 117 246 54 q 99 260 131 179 q 68 433 68 342 q 112 631 68 546 q 228 772 156 715 q 386 856 300 828 q 557 883 472 883 q 741 847 660 883 q 879 747 822 810 q 966 606 936 685 q 996 443 996 526 q 957 263 996 346 q 851 117 918 179 q 695 19 783 54 q 508 -17 607 -17 m 558 11 q 735 56 656 11 q 860 190 814 101 q 907 404 907 278 q 856 637 907 536 q 714 795 806 738 q 499 853 622 853 q 247 753 338 853 q 157 481 157 653 q 185 298 157 383 q 267 148 214 213 q 394 47 321 83 q 558 11 468 11 z "},"Ǿ":{"ha":1064,"x_min":68,"x_max":996,"o":"m 107 -10 q 100 -9 106 -12 q 90 1 94 -6 q 89 10 86 7 l 940 874 q 955 870 944 878 q 960 858 965 863 l 107 -10 m 508 -17 q 327 19 408 -17 q 188 117 246 54 q 99 260 131 179 q 68 433 68 342 q 112 631 68 546 q 228 772 156 715 q 386 856 300 828 q 557 883 472 883 q 741 847 660 883 q 879 747 822 810 q 966 606 936 685 q 996 443 996 526 q 957 263 996 346 q 851 117 918 179 q 695 19 783 54 q 508 -17 607 -17 m 558 11 q 735 56 656 11 q 860 190 814 101 q 907 404 907 278 q 856 637 907 536 q 714 795 806 738 q 499 853 622 853 q 247 753 338 853 q 157 481 157 653 q 185 298 157 383 q 267 148 214 213 q 394 47 321 83 q 558 11 468 11 m 399 943 q 390 948 393 940 q 392 957 388 956 q 517 1022 461 989 q 631 1086 574 1056 q 650 1084 635 1089 q 681 1072 665 1079 q 706 1058 697 1064 q 707 1050 714 1051 q 542 1001 614 1028 q 399 943 469 975 z "},"Õ":{"ha":1064,"x_min":68,"x_max":996,"o":"m 508 -17 q 327 19 408 -17 q 188 117 246 54 q 99 260 131 179 q 68 433 68 342 q 112 631 68 546 q 228 772 156 715 q 386 856 300 828 q 557 883 472 883 q 741 847 660 883 q 879 747 822 810 q 966 606 936 685 q 996 443 996 526 q 957 263 996 346 q 851 117 918 179 q 695 19 783 54 q 508 -17 607 -17 m 558 11 q 735 56 656 11 q 860 190 814 101 q 907 404 907 278 q 856 637 907 536 q 714 795 806 738 q 499 853 622 853 q 247 753 338 853 q 157 481 157 653 q 185 298 157 383 q 267 148 214 213 q 394 47 321 83 q 558 11 468 11 m 640 1044 q 683 1056 668 1044 q 708 1082 697 1068 q 716 1080 711 1085 q 718 1072 721 1075 q 657 1008 681 1024 q 610 992 633 992 q 549 1001 578 992 q 492 1018 521 1010 q 426 1026 463 1026 q 385 1015 399 1026 q 358 989 372 1003 q 351 991 356 988 q 349 999 346 994 q 378 1032 360 1014 q 419 1064 397 1050 q 465 1078 442 1078 q 517 1069 490 1078 q 575 1053 544 1061 q 640 1044 606 1044 z "},"Œ":{"ha":1264,"x_min":68,"x_max":1192,"o":"m 546 -6 q 298 51 406 -6 q 129 203 190 107 q 68 418 68 299 q 106 606 68 522 q 209 749 143 689 q 361 840 275 808 q 543 871 447 871 q 640 869 582 871 q 744 868 697 868 l 1133 868 q 1147 856 1147 868 l 1150 688 q 1142 683 1150 683 q 1133 688 1133 683 q 1117 768 1133 733 q 1069 822 1100 803 q 997 842 1039 842 l 901 842 q 824 835 850 842 q 790 810 799 829 q 782 754 782 792 l 782 118 q 790 60 782 81 q 824 33 799 40 q 901 26 850 26 l 1031 26 q 1097 49 1067 26 q 1149 110 1128 71 q 1176 201 1169 150 q 1184 206 1176 206 q 1192 201 1192 206 q 1183 115 1188 165 q 1179 21 1179 64 q 1158 0 1179 0 l 753 0 q 651 -3 706 0 q 546 -6 596 -6 m 1081 326 q 1054 414 1081 389 q 960 439 1028 439 l 747 439 l 747 465 l 965 465 q 1054 487 1029 465 q 1079 561 1079 508 q 1087 564 1079 564 q 1094 561 1094 564 q 1094 499 1094 521 q 1093 451 1093 476 q 1094 391 1093 421 q 1096 326 1096 361 q 1088 324 1096 324 q 1081 326 1081 324 m 549 13 q 641 19 606 13 q 692 49 676 26 q 708 114 708 71 l 708 738 q 697 803 708 778 q 652 840 685 828 q 557 853 619 853 q 351 806 442 853 q 208 669 260 760 q 157 449 157 579 q 205 228 157 326 q 341 71 253 129 q 549 13 429 13 z "},"P":{"ha":750,"x_min":58,"x_max":690,"o":"m 258 118 q 270 55 258 76 q 319 25 282 33 q 432 17 357 17 q 436 8 436 17 q 432 0 436 0 q 335 1 388 0 q 222 3 283 3 q 136 1 178 3 q 61 0 94 0 q 58 8 58 0 q 61 17 58 17 q 140 24 114 17 q 176 51 167 31 q 185 113 185 72 l 185 756 q 176 816 185 796 q 140 844 167 836 q 61 851 114 851 q 58 860 58 851 q 61 868 58 868 q 135 866 94 868 q 221 864 176 864 q 308 868 257 864 q 415 872 360 872 q 554 849 492 872 q 653 775 617 825 q 690 644 690 725 q 663 518 690 571 q 590 431 635 465 q 490 381 544 397 q 383 364 436 364 q 348 365 365 364 q 315 371 331 367 q 312 381 310 372 q 318 389 314 390 q 344 385 331 386 q 368 383 357 383 q 483 408 429 383 q 571 485 538 433 q 604 617 604 538 q 574 746 604 693 q 494 826 544 799 q 383 854 444 854 q 306 849 333 854 q 269 824 279 844 q 258 753 258 803 l 258 118 z "},"Þ":{"ha":743,"x_min":58,"x_max":693,"o":"m 185 756 q 176 816 185 796 q 140 844 167 836 q 61 851 114 851 q 58 860 58 851 q 61 868 58 868 q 136 866 94 868 q 222 864 178 864 q 335 866 283 864 q 432 868 388 868 q 436 860 436 868 q 432 851 436 851 q 319 843 357 851 q 270 813 282 835 q 258 749 258 792 l 258 118 q 270 55 258 76 q 319 25 282 33 q 432 17 357 17 q 436 8 436 17 q 432 0 436 0 q 335 1 388 0 q 222 3 283 3 q 136 1 178 3 q 61 0 94 0 q 58 8 58 0 q 61 17 58 17 q 140 24 114 17 q 176 51 167 31 q 185 113 185 72 l 185 756 m 210 671 q 301 688 253 683 q 390 693 349 693 q 540 672 472 693 q 648 601 607 650 q 690 467 689 551 q 665 340 693 393 q 592 252 638 286 q 491 201 546 218 q 383 185 436 185 q 348 187 365 185 q 315 192 331 189 q 312 202 310 193 q 318 210 314 211 q 344 206 331 208 q 368 204 357 204 q 483 229 429 204 q 571 306 538 254 q 604 439 604 358 q 535 615 604 553 q 356 676 465 676 q 285 670 319 676 q 221 654 250 664 l 210 671 z "},"Q":{"ha":1064,"x_min":68,"x_max":1043,"o":"m 633 8 q 733 -110 674 -58 q 858 -192 792 -162 q 985 -221 925 -221 q 1010 -219 996 -221 q 1035 -217 1025 -218 q 1041 -222 1039 -214 q 1040 -231 1043 -229 q 978 -242 1008 -237 q 921 -247 947 -247 q 788 -219 858 -247 q 650 -134 717 -190 q 531 3 583 -78 l 633 8 m 508 -17 q 327 19 408 -17 q 188 117 246 54 q 99 260 131 179 q 68 433 68 342 q 112 631 68 546 q 228 772 156 715 q 386 856 300 828 q 557 883 472 883 q 741 847 660 883 q 879 747 822 810 q 966 606 936 685 q 996 443 996 526 q 957 263 996 346 q 851 117 918 179 q 695 19 783 54 q 508 -17 607 -17 m 558 11 q 735 56 656 11 q 860 190 814 101 q 907 404 907 278 q 856 637 907 536 q 714 795 806 738 q 499 853 622 853 q 247 753 338 853 q 157 481 157 653 q 185 298 157 383 q 267 148 214 213 q 394 47 321 83 q 558 11 468 11 z "},"R":{"ha":926,"x_min":58,"x_max":943,"o":"m 778 0 q 700 56 754 0 q 569 216 646 113 q 399 463 493 319 l 465 485 q 668 208 585 310 q 815 61 751 106 q 939 17 879 17 q 943 8 943 17 q 939 0 943 0 q 837 0 876 0 q 778 0 797 0 m 385 872 q 553 826 496 872 q 611 699 611 779 q 588 601 611 647 q 525 519 565 554 q 432 463 485 483 q 319 442 379 442 q 290 442 307 442 q 260 444 274 443 l 260 113 q 268 51 260 72 q 303 24 276 31 q 383 17 331 17 q 388 8 388 17 q 383 0 388 0 q 310 1 350 0 q 222 3 271 3 q 136 1 178 3 q 61 0 94 0 q 58 8 58 0 q 61 17 58 17 q 141 24 114 17 q 178 51 168 31 q 188 113 188 72 l 188 756 q 178 816 188 796 q 143 844 169 836 q 64 851 117 851 q 60 860 60 851 q 64 868 60 868 q 137 866 96 868 q 222 864 178 864 q 306 868 258 864 q 385 872 354 872 m 533 651 q 509 771 533 726 q 444 835 485 815 q 353 854 404 854 q 299 849 319 854 q 269 824 278 844 q 260 753 260 803 l 260 478 q 302 474 279 476 q 343 472 325 472 q 489 515 444 472 q 533 651 533 557 z "},"Ŕ":{"ha":926,"x_min":58,"x_max":943,"o":"m 778 0 q 700 56 754 0 q 569 216 646 113 q 399 463 493 319 l 465 485 q 668 208 585 310 q 815 61 751 106 q 939 17 879 17 q 943 8 943 17 q 939 0 943 0 q 837 0 876 0 q 778 0 797 0 m 385 872 q 553 826 496 872 q 611 699 611 779 q 588 601 611 647 q 525 519 565 554 q 432 463 485 483 q 319 442 379 442 q 290 442 307 442 q 260 444 274 443 l 260 113 q 268 51 260 72 q 303 24 276 31 q 383 17 331 17 q 388 8 388 17 q 383 0 388 0 q 310 1 350 0 q 222 3 271 3 q 136 1 178 3 q 61 0 94 0 q 58 8 58 0 q 61 17 58 17 q 141 24 114 17 q 178 51 168 31 q 188 113 188 72 l 188 756 q 178 816 188 796 q 143 844 169 836 q 64 851 117 851 q 60 860 60 851 q 64 868 60 868 q 137 866 96 868 q 222 864 178 864 q 306 868 258 864 q 385 872 354 872 m 533 651 q 509 771 533 726 q 444 835 485 815 q 353 854 404 854 q 299 849 319 854 q 269 824 278 844 q 260 753 260 803 l 260 478 q 302 474 279 476 q 343 472 325 472 q 489 515 444 472 q 533 651 533 557 m 222 943 q 214 948 217 940 q 215 957 211 956 q 341 1022 285 989 q 454 1086 397 1056 q 474 1084 458 1089 q 505 1072 489 1079 q 529 1058 521 1064 q 531 1050 538 1051 q 365 1001 438 1028 q 222 943 293 975 z "},"Ř":{"ha":926,"x_min":58,"x_max":943,"o":"m 778 0 q 700 56 754 0 q 569 216 646 113 q 399 463 493 319 l 465 485 q 668 208 585 310 q 815 61 751 106 q 939 17 879 17 q 943 8 943 17 q 939 0 943 0 q 837 0 876 0 q 778 0 797 0 m 385 872 q 553 826 496 872 q 611 699 611 779 q 588 601 611 647 q 525 519 565 554 q 432 463 485 483 q 319 442 379 442 q 290 442 307 442 q 260 444 274 443 l 260 113 q 268 51 260 72 q 303 24 276 31 q 383 17 331 17 q 388 8 388 17 q 383 0 388 0 q 310 1 350 0 q 222 3 271 3 q 136 1 178 3 q 61 0 94 0 q 58 8 58 0 q 61 17 58 17 q 141 24 114 17 q 178 51 168 31 q 188 113 188 72 l 188 756 q 178 816 188 796 q 143 844 169 836 q 64 851 117 851 q 60 860 60 851 q 64 868 60 868 q 137 866 96 868 q 222 864 178 864 q 306 868 258 864 q 385 872 354 872 m 533 651 q 509 771 533 726 q 444 835 485 815 q 353 854 404 854 q 299 849 319 854 q 269 824 278 844 q 260 753 260 803 l 260 478 q 302 474 279 476 q 343 472 325 472 q 489 515 444 472 q 533 651 533 557 m 340 954 l 197 1082 q 199 1089 194 1085 q 206 1092 204 1093 l 357 1006 l 507 1092 q 514 1090 510 1094 q 514 1082 518 1085 l 372 954 q 357 949 367 949 q 340 954 347 949 z "},"Ŗ":{"ha":926,"x_min":58,"x_max":943,"o":"m 778 0 q 700 56 754 0 q 569 216 646 113 q 399 463 493 319 l 465 485 q 668 208 585 310 q 815 61 751 106 q 939 17 879 17 q 943 8 943 17 q 939 0 943 0 q 837 0 876 0 q 778 0 797 0 m 385 872 q 553 826 496 872 q 611 699 611 779 q 588 601 611 647 q 525 519 565 554 q 432 463 485 483 q 319 442 379 442 q 290 442 307 442 q 260 444 274 443 l 260 113 q 268 51 260 72 q 303 24 276 31 q 383 17 331 17 q 388 8 388 17 q 383 0 388 0 q 310 1 350 0 q 222 3 271 3 q 136 1 178 3 q 61 0 94 0 q 58 8 58 0 q 61 17 58 17 q 141 24 114 17 q 178 51 168 31 q 188 113 188 72 l 188 756 q 178 816 188 796 q 143 844 169 836 q 64 851 117 851 q 60 860 60 851 q 64 868 60 868 q 137 866 96 868 q 222 864 178 864 q 306 868 258 864 q 385 872 354 872 m 533 651 q 509 771 533 726 q 444 835 485 815 q 353 854 404 854 q 299 849 319 854 q 269 824 278 844 q 260 753 260 803 l 260 478 q 302 474 279 476 q 343 472 325 472 q 489 515 444 472 q 533 651 533 557 m 457 -382 q 447 -380 451 -385 q 446 -372 442 -375 q 492 -308 478 -342 q 506 -240 506 -275 q 498 -199 506 -210 q 479 -181 490 -187 l 501 -176 q 492 -210 506 -199 q 460 -221 479 -221 q 423 -208 436 -221 q 410 -172 410 -194 q 425 -134 410 -144 q 463 -124 440 -124 q 517 -149 499 -124 q 536 -222 536 -174 q 515 -308 536 -269 q 457 -382 494 -346 z "},"Ȑ":{"ha":926,"x_min":58,"x_max":943,"o":"m 496 944 q 404 1001 449 976 q 301 1050 360 1026 q 304 1059 294 1053 q 331 1071 314 1065 q 363 1079 347 1076 q 382 1078 378 1082 q 441 1018 411 1047 q 507 957 471 989 q 506 947 510 954 q 496 944 501 940 m 333 944 q 242 1002 286 976 q 143 1050 199 1028 q 145 1059 136 1053 q 171 1071 154 1065 q 201 1079 188 1076 q 219 1078 215 1082 q 278 1018 249 1047 q 344 957 308 989 q 343 947 347 954 q 333 944 339 940 m 778 0 q 700 56 754 0 q 569 216 646 113 q 399 463 493 319 l 465 485 q 668 208 585 310 q 815 61 751 106 q 939 17 879 17 q 943 8 943 17 q 939 0 943 0 q 837 0 876 0 q 778 0 797 0 m 385 872 q 553 826 496 872 q 611 699 611 779 q 588 601 611 647 q 525 519 565 554 q 432 463 485 483 q 319 442 379 442 q 290 442 307 442 q 260 444 274 443 l 260 113 q 268 51 260 72 q 303 24 276 31 q 383 17 331 17 q 388 8 388 17 q 383 0 388 0 q 310 1 350 0 q 222 3 271 3 q 136 1 178 3 q 61 0 94 0 q 58 8 58 0 q 61 17 58 17 q 141 24 114 17 q 178 51 168 31 q 188 113 188 72 l 188 756 q 178 816 188 796 q 143 844 169 836 q 64 851 117 851 q 60 860 60 851 q 64 868 60 868 q 137 866 96 868 q 222 864 178 864 q 306 868 258 864 q 385 872 354 872 m 533 651 q 509 771 533 726 q 444 835 485 815 q 353 854 404 854 q 299 849 319 854 q 269 824 278 844 q 260 753 260 803 l 260 478 q 302 474 279 476 q 343 472 325 472 q 489 515 444 472 q 533 651 533 557 z "},"Ṛ":{"ha":926,"x_min":58,"x_max":943,"o":"m 778 0 q 700 56 754 0 q 569 216 646 113 q 399 463 493 319 l 465 485 q 668 208 585 310 q 815 61 751 106 q 939 17 879 17 q 943 8 943 17 q 939 0 943 0 q 837 0 876 0 q 778 0 797 0 m 385 872 q 553 826 496 872 q 611 699 611 779 q 588 601 611 647 q 525 519 565 554 q 432 463 485 483 q 319 442 379 442 q 290 442 307 442 q 260 444 274 443 l 260 113 q 268 51 260 72 q 303 24 276 31 q 383 17 331 17 q 388 8 388 17 q 383 0 388 0 q 310 1 350 0 q 222 3 271 3 q 136 1 178 3 q 61 0 94 0 q 58 8 58 0 q 61 17 58 17 q 141 24 114 17 q 178 51 168 31 q 188 113 188 72 l 188 756 q 178 816 188 796 q 143 844 169 836 q 64 851 117 851 q 60 860 60 851 q 64 868 60 868 q 137 866 96 868 q 222 864 178 864 q 306 868 258 864 q 385 872 354 872 m 533 651 q 509 771 533 726 q 444 835 485 815 q 353 854 404 854 q 299 849 319 854 q 269 824 278 844 q 260 753 260 803 l 260 478 q 302 474 279 476 q 343 472 325 472 q 489 515 444 472 q 533 651 533 557 m 474 -258 q 433 -244 447 -258 q 418 -206 418 -231 q 433 -167 418 -181 q 474 -153 447 -153 q 513 -167 499 -153 q 526 -206 526 -181 q 474 -258 526 -258 z "},"Ṝ":{"ha":926,"x_min":58,"x_max":943,"o":"m 778 0 q 700 56 754 0 q 569 216 646 113 q 399 463 493 319 l 465 485 q 668 208 585 310 q 815 61 751 106 q 939 17 879 17 q 943 8 943 17 q 939 0 943 0 q 837 0 876 0 q 778 0 797 0 m 385 872 q 553 826 496 872 q 611 699 611 779 q 588 601 611 647 q 525 519 565 554 q 432 463 485 483 q 319 442 379 442 q 290 442 307 442 q 260 444 274 443 l 260 113 q 268 51 260 72 q 303 24 276 31 q 383 17 331 17 q 388 8 388 17 q 383 0 388 0 q 310 1 350 0 q 222 3 271 3 q 136 1 178 3 q 61 0 94 0 q 58 8 58 0 q 61 17 58 17 q 141 24 114 17 q 178 51 168 31 q 188 113 188 72 l 188 756 q 178 816 188 796 q 143 844 169 836 q 64 851 117 851 q 60 860 60 851 q 64 868 60 868 q 137 866 96 868 q 222 864 178 864 q 306 868 258 864 q 385 872 354 872 m 533 651 q 509 771 533 726 q 444 835 485 815 q 353 854 404 854 q 299 849 319 854 q 269 824 278 844 q 260 753 260 803 l 260 478 q 302 474 279 476 q 343 472 325 472 q 489 515 444 472 q 533 651 533 557 m 474 -258 q 433 -244 447 -258 q 418 -206 418 -231 q 433 -167 418 -181 q 474 -153 447 -153 q 513 -167 499 -153 q 526 -206 526 -181 q 474 -258 526 -258 m 182 1006 q 176 1015 178 1006 q 176 1033 174 1024 q 182 1042 178 1042 l 531 1042 q 538 1033 536 1042 q 538 1015 539 1024 q 531 1006 536 1006 l 182 1006 z "},"Ȓ":{"ha":926,"x_min":58,"x_max":943,"o":"m 778 0 q 700 56 754 0 q 569 216 646 113 q 399 463 493 319 l 465 485 q 668 208 585 310 q 815 61 751 106 q 939 17 879 17 q 943 8 943 17 q 939 0 943 0 q 837 0 876 0 q 778 0 797 0 m 385 872 q 553 826 496 872 q 611 699 611 779 q 588 601 611 647 q 525 519 565 554 q 432 463 485 483 q 319 442 379 442 q 290 442 307 442 q 260 444 274 443 l 260 113 q 268 51 260 72 q 303 24 276 31 q 383 17 331 17 q 388 8 388 17 q 383 0 388 0 q 310 1 350 0 q 222 3 271 3 q 136 1 178 3 q 61 0 94 0 q 58 8 58 0 q 61 17 58 17 q 141 24 114 17 q 178 51 168 31 q 188 113 188 72 l 188 756 q 178 816 188 796 q 143 844 169 836 q 64 851 117 851 q 60 860 60 851 q 64 868 60 868 q 137 866 96 868 q 222 864 178 864 q 306 868 258 864 q 385 872 354 872 m 533 651 q 509 771 533 726 q 444 835 485 815 q 353 854 404 854 q 299 849 319 854 q 269 824 278 844 q 260 753 260 803 l 260 478 q 302 474 279 476 q 343 472 325 472 q 489 515 444 472 q 533 651 533 557 m 229 947 q 220 944 228 943 q 214 950 213 946 q 357 1092 240 1092 q 499 950 472 1092 q 492 944 500 946 q 483 947 485 943 q 435 1016 472 988 q 357 1044 399 1044 q 277 1016 314 1044 q 229 947 240 988 z "},"Ṟ":{"ha":926,"x_min":58,"x_max":943,"o":"m 778 0 q 700 56 754 0 q 569 216 646 113 q 399 463 493 319 l 465 485 q 668 208 585 310 q 815 61 751 106 q 939 17 879 17 q 943 8 943 17 q 939 0 943 0 q 837 0 876 0 q 778 0 797 0 m 385 872 q 553 826 496 872 q 611 699 611 779 q 588 601 611 647 q 525 519 565 554 q 432 463 485 483 q 319 442 379 442 q 290 442 307 442 q 260 444 274 443 l 260 113 q 268 51 260 72 q 303 24 276 31 q 383 17 331 17 q 388 8 388 17 q 383 0 388 0 q 310 1 350 0 q 222 3 271 3 q 136 1 178 3 q 61 0 94 0 q 58 8 58 0 q 61 17 58 17 q 141 24 114 17 q 178 51 168 31 q 188 113 188 72 l 188 756 q 178 816 188 796 q 143 844 169 836 q 64 851 117 851 q 60 860 60 851 q 64 868 60 868 q 137 866 96 868 q 222 864 178 864 q 306 868 258 864 q 385 872 354 872 m 533 651 q 509 771 533 726 q 444 835 485 815 q 353 854 404 854 q 299 849 319 854 q 269 824 278 844 q 260 753 260 803 l 260 478 q 302 474 279 476 q 343 472 325 472 q 489 515 444 472 q 533 651 533 557 m 297 -154 q 291 -145 293 -154 q 291 -127 289 -136 q 297 -118 293 -118 l 646 -118 q 653 -127 651 -118 q 653 -145 654 -136 q 646 -154 651 -154 l 297 -154 z "},"S":{"ha":674,"x_min":92,"x_max":597,"o":"m 192 700 q 220 601 192 642 q 294 529 249 560 q 389 469 339 499 q 488 408 440 440 q 566 330 535 375 q 597 218 597 285 q 566 101 597 154 q 472 15 535 47 q 315 -17 410 -17 q 255 -12 285 -17 q 194 2 225 -8 q 126 31 163 13 q 117 41 119 35 q 114 57 115 47 l 93 238 q 99 245 92 244 q 108 240 107 246 q 131 157 114 199 q 176 81 147 115 q 247 24 204 46 q 346 3 289 3 q 429 19 389 3 q 495 71 469 35 q 521 169 521 107 q 491 283 521 238 q 415 360 461 328 q 318 422 369 393 q 224 483 269 451 q 149 559 178 515 q 121 668 121 603 q 157 788 121 740 q 251 860 193 836 q 371 883 308 883 q 447 876 407 883 q 529 850 486 868 q 545 840 540 846 q 550 826 550 833 l 563 679 q 555 674 563 674 q 546 679 547 674 q 531 742 543 710 q 497 803 519 775 q 438 848 474 831 q 353 865 403 865 q 258 840 293 865 q 207 778 222 815 q 192 700 192 740 z "},"Ś":{"ha":674,"x_min":92,"x_max":597,"o":"m 192 700 q 220 601 192 642 q 294 529 249 560 q 389 469 339 499 q 488 408 440 440 q 566 330 535 375 q 597 218 597 285 q 566 101 597 154 q 472 15 535 47 q 315 -17 410 -17 q 255 -12 285 -17 q 194 2 225 -8 q 126 31 163 13 q 117 41 119 35 q 114 57 115 47 l 93 238 q 99 245 92 244 q 108 240 107 246 q 131 157 114 199 q 176 81 147 115 q 247 24 204 46 q 346 3 289 3 q 429 19 389 3 q 495 71 469 35 q 521 169 521 107 q 491 283 521 238 q 415 360 461 328 q 318 422 369 393 q 224 483 269 451 q 149 559 178 515 q 121 668 121 603 q 157 788 121 740 q 251 860 193 836 q 371 883 308 883 q 447 876 407 883 q 529 850 486 868 q 545 840 540 846 q 550 826 550 833 l 563 679 q 555 674 563 674 q 546 679 547 674 q 531 742 543 710 q 497 803 519 775 q 438 848 474 831 q 353 865 403 865 q 258 840 293 865 q 207 778 222 815 q 192 700 192 740 m 214 943 q 206 948 208 940 q 207 957 203 956 q 333 1022 276 989 q 446 1086 389 1056 q 465 1084 450 1089 q 497 1072 481 1079 q 521 1058 513 1064 q 522 1050 529 1051 q 357 1001 429 1028 q 214 943 285 975 z "},"Ꞌ":{"ha":338,"x_min":114,"x_max":225,"o":"m 114 1001 q 122 1007 114 1004 q 143 1011 131 1010 q 169 1013 156 1013 q 197 1011 183 1013 q 217 1007 210 1010 q 224 1001 225 1004 q 199 806 208 910 q 183 598 189 701 q 174 401 178 494 q 167 399 174 399 q 160 401 160 399 q 152 598 157 494 q 138 806 147 701 q 114 1001 129 910 z "},"Š":{"ha":674,"x_min":92,"x_max":597,"o":"m 192 700 q 220 601 192 642 q 294 529 249 560 q 389 469 339 499 q 488 408 440 440 q 566 330 535 375 q 597 218 597 285 q 566 101 597 154 q 472 15 535 47 q 315 -17 410 -17 q 255 -12 285 -17 q 194 2 225 -8 q 126 31 163 13 q 117 41 119 35 q 114 57 115 47 l 93 238 q 99 245 92 244 q 108 240 107 246 q 131 157 114 199 q 176 81 147 115 q 247 24 204 46 q 346 3 289 3 q 429 19 389 3 q 495 71 469 35 q 521 169 521 107 q 491 283 521 238 q 415 360 461 328 q 318 422 369 393 q 224 483 269 451 q 149 559 178 515 q 121 668 121 603 q 157 788 121 740 q 251 860 193 836 q 371 883 308 883 q 447 876 407 883 q 529 850 486 868 q 545 840 540 846 q 550 826 550 833 l 563 679 q 555 674 563 674 q 546 679 547 674 q 531 742 543 710 q 497 803 519 775 q 438 848 474 831 q 353 865 403 865 q 258 840 293 865 q 207 778 222 815 q 192 700 192 740 m 332 954 l 189 1082 q 191 1089 186 1085 q 197 1092 196 1093 l 349 1006 l 499 1092 q 506 1090 501 1094 q 506 1082 510 1085 l 364 954 q 349 949 358 949 q 332 954 339 949 z "},"Ş":{"ha":674,"x_min":92,"x_max":597,"o":"m 192 700 q 220 601 192 642 q 294 529 249 560 q 389 469 339 499 q 488 408 440 440 q 566 330 535 375 q 597 218 597 285 q 566 101 597 154 q 472 15 535 47 q 315 -17 410 -17 q 255 -12 285 -17 q 194 2 225 -8 q 126 31 163 13 q 117 41 119 35 q 114 57 115 47 l 93 238 q 99 245 92 244 q 108 240 107 246 q 131 157 114 199 q 176 81 147 115 q 247 24 204 46 q 346 3 289 3 q 429 19 389 3 q 495 71 469 35 q 521 169 521 107 q 491 283 521 238 q 415 360 461 328 q 318 422 369 393 q 224 483 269 451 q 149 559 178 515 q 121 668 121 603 q 157 788 121 740 q 251 860 193 836 q 371 883 308 883 q 447 876 407 883 q 529 850 486 868 q 545 840 540 846 q 550 826 550 833 l 563 679 q 555 674 563 674 q 546 679 547 674 q 531 742 543 710 q 497 803 519 775 q 438 848 474 831 q 353 865 403 865 q 258 840 293 865 q 207 778 222 815 q 192 700 192 740 m 361 -3 q 340 -80 343 -57 q 351 -113 336 -103 q 401 -144 367 -124 q 453 -186 431 -161 q 476 -251 476 -211 q 463 -310 476 -281 q 418 -361 449 -340 q 339 -382 388 -382 q 278 -369 304 -382 q 253 -332 253 -357 q 265 -304 253 -314 q 292 -294 276 -294 q 316 -303 308 -294 q 330 -325 324 -312 q 347 -347 336 -337 q 379 -356 357 -356 q 431 -299 431 -356 q 405 -234 431 -262 q 311 -169 379 -206 q 289 -153 290 -158 q 297 -126 288 -147 q 313 -88 307 -103 q 325 -56 318 -74 q 344 -1 332 -37 l 361 -3 z "},"Ŝ":{"ha":674,"x_min":92,"x_max":597,"o":"m 192 700 q 220 601 192 642 q 294 529 249 560 q 389 469 339 499 q 488 408 440 440 q 566 330 535 375 q 597 218 597 285 q 566 101 597 154 q 472 15 535 47 q 315 -17 410 -17 q 255 -12 285 -17 q 194 2 225 -8 q 126 31 163 13 q 117 41 119 35 q 114 57 115 47 l 93 238 q 99 245 92 244 q 108 240 107 246 q 131 157 114 199 q 176 81 147 115 q 247 24 204 46 q 346 3 289 3 q 429 19 389 3 q 495 71 469 35 q 521 169 521 107 q 491 283 521 238 q 415 360 461 328 q 318 422 369 393 q 224 483 269 451 q 149 559 178 515 q 121 668 121 603 q 157 788 121 740 q 251 860 193 836 q 371 883 308 883 q 447 876 407 883 q 529 850 486 868 q 545 840 540 846 q 550 826 550 833 l 563 679 q 555 674 563 674 q 546 679 547 674 q 531 742 543 710 q 497 803 519 775 q 438 848 474 831 q 353 865 403 865 q 258 840 293 865 q 207 778 222 815 q 192 700 192 740 m 190 958 l 333 1088 q 350 1094 340 1094 q 365 1088 360 1094 l 507 958 q 507 952 511 957 q 500 949 503 947 l 350 1035 l 199 949 q 192 952 197 947 q 190 958 188 957 z "},"Ș":{"ha":674,"x_min":92,"x_max":597,"o":"m 192 700 q 220 601 192 642 q 294 529 249 560 q 389 469 339 499 q 488 408 440 440 q 566 330 535 375 q 597 218 597 285 q 566 101 597 154 q 472 15 535 47 q 315 -17 410 -17 q 255 -12 285 -17 q 194 2 225 -8 q 126 31 163 13 q 117 41 119 35 q 114 57 115 47 l 93 238 q 99 245 92 244 q 108 240 107 246 q 131 157 114 199 q 176 81 147 115 q 247 24 204 46 q 346 3 289 3 q 429 19 389 3 q 495 71 469 35 q 521 169 521 107 q 491 283 521 238 q 415 360 461 328 q 318 422 369 393 q 224 483 269 451 q 149 559 178 515 q 121 668 121 603 q 157 788 121 740 q 251 860 193 836 q 371 883 308 883 q 447 876 407 883 q 529 850 486 868 q 545 840 540 846 q 550 826 550 833 l 563 679 q 555 674 563 674 q 546 679 547 674 q 531 742 543 710 q 497 803 519 775 q 438 848 474 831 q 353 865 403 865 q 258 840 293 865 q 207 778 222 815 q 192 700 192 740 m 350 -382 q 340 -380 344 -385 q 339 -372 335 -375 q 385 -308 371 -342 q 399 -240 399 -275 q 391 -199 399 -210 q 372 -181 383 -187 l 394 -176 q 385 -210 399 -199 q 353 -221 372 -221 q 316 -208 329 -221 q 303 -172 303 -194 q 318 -134 303 -144 q 356 -124 333 -124 q 410 -149 392 -124 q 429 -222 429 -174 q 408 -308 429 -269 q 350 -382 388 -346 z "},"Ṡ":{"ha":674,"x_min":92,"x_max":597,"o":"m 192 700 q 220 601 192 642 q 294 529 249 560 q 389 469 339 499 q 488 408 440 440 q 566 330 535 375 q 597 218 597 285 q 566 101 597 154 q 472 15 535 47 q 315 -17 410 -17 q 255 -12 285 -17 q 194 2 225 -8 q 126 31 163 13 q 117 41 119 35 q 114 57 115 47 l 93 238 q 99 245 92 244 q 108 240 107 246 q 131 157 114 199 q 176 81 147 115 q 247 24 204 46 q 346 3 289 3 q 429 19 389 3 q 495 71 469 35 q 521 169 521 107 q 491 283 521 238 q 415 360 461 328 q 318 422 369 393 q 224 483 269 451 q 149 559 178 515 q 121 668 121 603 q 157 788 121 740 q 251 860 193 836 q 371 883 308 883 q 447 876 407 883 q 529 850 486 868 q 545 840 540 846 q 550 826 550 833 l 563 679 q 555 674 563 674 q 546 679 547 674 q 531 742 543 710 q 497 803 519 775 q 438 848 474 831 q 353 865 403 865 q 258 840 293 865 q 207 778 222 815 q 192 700 192 740 m 349 990 q 308 1004 322 990 q 293 1044 293 1018 q 308 1082 293 1068 q 349 1096 322 1096 q 388 1082 374 1096 q 401 1044 401 1068 q 388 1004 401 1018 q 349 990 374 990 z "},"Ṣ":{"ha":674,"x_min":92,"x_max":597,"o":"m 192 700 q 220 601 192 642 q 294 529 249 560 q 389 469 339 499 q 488 408 440 440 q 566 330 535 375 q 597 218 597 285 q 566 101 597 154 q 472 15 535 47 q 315 -17 410 -17 q 255 -12 285 -17 q 194 2 225 -8 q 126 31 163 13 q 117 41 119 35 q 114 57 115 47 l 93 238 q 99 245 92 244 q 108 240 107 246 q 131 157 114 199 q 176 81 147 115 q 247 24 204 46 q 346 3 289 3 q 429 19 389 3 q 495 71 469 35 q 521 169 521 107 q 491 283 521 238 q 415 360 461 328 q 318 422 369 393 q 224 483 269 451 q 149 559 178 515 q 121 668 121 603 q 157 788 121 740 q 251 860 193 836 q 371 883 308 883 q 447 876 407 883 q 529 850 486 868 q 545 840 540 846 q 550 826 550 833 l 563 679 q 555 674 563 674 q 546 679 547 674 q 531 742 543 710 q 497 803 519 775 q 438 848 474 831 q 353 865 403 865 q 258 840 293 865 q 207 778 222 815 q 192 700 192 740 m 367 -258 q 326 -244 340 -258 q 311 -206 311 -231 q 326 -167 311 -181 q 367 -153 340 -153 q 406 -167 392 -153 q 419 -206 419 -181 q 367 -258 419 -258 z "},"ẞ":{"ha":926,"x_min":28,"x_max":863,"o":"m 592 -17 q 520 -8 553 -17 q 461 17 488 0 q 451 30 453 22 q 449 43 450 38 l 428 175 q 434 183 426 182 q 443 178 442 185 q 485 97 451 135 q 564 35 518 58 q 653 11 610 11 q 762 65 718 11 q 806 206 806 118 q 790 294 806 250 q 732 379 774 339 q 615 449 690 419 q 607 460 606 454 q 610 469 608 465 l 760 786 q 680 810 728 799 q 580 830 632 822 q 482 838 528 838 q 339 804 394 838 q 256 706 283 771 q 229 547 229 642 l 229 113 q 238 51 229 72 q 272 24 246 31 q 353 17 299 17 q 357 8 357 17 q 353 0 357 0 q 271 1 317 0 q 189 1 225 1 q 104 1 143 1 q 32 0 65 0 q 28 8 28 0 q 32 17 28 17 q 131 35 107 17 q 156 113 156 53 l 156 517 q 179 637 156 574 q 253 756 203 700 q 384 846 303 811 q 579 881 465 881 q 642 878 607 881 q 710 874 676 876 q 765 870 743 872 q 789 868 788 868 q 815 878 808 868 q 824 888 821 888 q 831 885 828 888 q 833 881 835 883 l 661 511 q 785 440 742 481 q 845 354 828 400 q 863 263 863 308 q 848 167 863 217 q 801 76 833 118 q 717 9 768 35 q 592 -17 665 -17 z "},"T":{"ha":878,"x_min":51,"x_max":828,"o":"m 250 844 q 123 803 163 844 q 68 654 83 761 q 60 651 68 651 q 51 654 51 651 q 58 703 54 671 q 64 772 61 735 q 69 842 67 808 q 71 899 71 876 q 79 906 71 906 q 88 899 88 906 q 101 878 88 885 q 131 870 114 872 q 161 868 149 868 q 440 864 281 864 q 597 866 539 864 q 708 868 654 868 q 780 874 754 868 q 813 903 806 881 q 821 908 814 908 q 828 903 828 908 q 824 847 826 882 q 819 774 821 813 q 817 703 818 736 q 815 654 815 671 q 807 651 815 651 q 799 654 799 651 q 763 803 799 761 q 631 844 726 844 q 533 840 565 844 q 490 816 500 835 q 479 753 479 797 l 479 113 q 489 51 479 72 q 528 24 499 31 q 619 17 558 17 q 622 8 622 17 q 619 0 622 0 q 538 1 583 0 q 440 3 493 3 q 345 1 390 3 q 263 0 300 0 q 260 8 260 0 q 263 17 260 17 q 353 24 322 17 q 394 51 383 31 q 404 113 404 72 l 404 756 q 393 819 404 800 q 349 841 382 838 q 250 844 315 844 z "},"Ŧ":{"ha":878,"x_min":51,"x_max":828,"o":"m 263 435 q 258 442 260 435 q 258 455 257 449 q 263 461 260 461 l 621 461 q 626 455 625 461 q 626 442 628 449 q 621 435 625 435 l 263 435 m 250 844 q 123 803 163 844 q 68 654 83 761 q 60 651 68 651 q 51 654 51 651 q 58 703 54 671 q 64 772 61 735 q 69 842 67 808 q 71 899 71 876 q 79 906 71 906 q 88 899 88 906 q 101 878 88 885 q 131 870 114 872 q 161 868 149 868 q 440 864 281 864 q 597 866 539 864 q 708 868 654 868 q 780 874 754 868 q 813 903 806 881 q 821 908 814 908 q 828 903 828 908 q 824 847 826 882 q 819 774 821 813 q 817 703 818 736 q 815 654 815 671 q 807 651 815 651 q 799 654 799 651 q 763 803 799 761 q 631 844 726 844 q 533 840 565 844 q 490 816 500 835 q 479 753 479 797 l 479 113 q 489 51 479 72 q 528 24 499 31 q 619 17 558 17 q 622 8 622 17 q 619 0 622 0 q 538 1 583 0 q 440 3 493 3 q 345 1 390 3 q 263 0 300 0 q 260 8 260 0 q 263 17 260 17 q 353 24 322 17 q 394 51 383 31 q 404 113 404 72 l 404 756 q 393 819 404 800 q 349 841 382 838 q 250 844 315 844 z "},"Ť":{"ha":878,"x_min":51,"x_max":828,"o":"m 250 844 q 123 803 163 844 q 68 654 83 761 q 60 651 68 651 q 51 654 51 651 q 58 703 54 671 q 64 772 61 735 q 69 842 67 808 q 71 899 71 876 q 79 906 71 906 q 88 899 88 906 q 101 878 88 885 q 131 870 114 872 q 161 868 149 868 q 440 864 281 864 q 597 866 539 864 q 708 868 654 868 q 780 874 754 868 q 813 903 806 881 q 821 908 814 908 q 828 903 828 908 q 824 847 826 882 q 819 774 821 813 q 817 703 818 736 q 815 654 815 671 q 807 651 815 651 q 799 654 799 651 q 763 803 799 761 q 631 844 726 844 q 533 840 565 844 q 490 816 500 835 q 479 753 479 797 l 479 113 q 489 51 479 72 q 528 24 499 31 q 619 17 558 17 q 622 8 622 17 q 619 0 622 0 q 538 1 583 0 q 440 3 493 3 q 345 1 390 3 q 263 0 300 0 q 260 8 260 0 q 263 17 260 17 q 353 24 322 17 q 394 51 383 31 q 404 113 404 72 l 404 756 q 393 819 404 800 q 349 841 382 838 q 250 844 315 844 m 422 954 l 279 1082 q 281 1089 276 1085 q 288 1092 286 1093 l 439 1006 l 589 1092 q 596 1090 592 1094 q 596 1082 600 1085 l 454 954 q 439 949 449 949 q 422 954 429 949 z "},"Ţ":{"ha":878,"x_min":51,"x_max":828,"o":"m 250 844 q 123 803 163 844 q 68 654 83 761 q 60 651 68 651 q 51 654 51 651 q 58 703 54 671 q 64 772 61 735 q 69 842 67 808 q 71 899 71 876 q 79 906 71 906 q 88 899 88 906 q 101 878 88 885 q 131 870 114 872 q 161 868 149 868 q 440 864 281 864 q 597 866 539 864 q 708 868 654 868 q 780 874 754 868 q 813 903 806 881 q 821 908 814 908 q 828 903 828 908 q 824 847 826 882 q 819 774 821 813 q 817 703 818 736 q 815 654 815 671 q 807 651 815 651 q 799 654 799 651 q 763 803 799 761 q 631 844 726 844 q 533 840 565 844 q 490 816 500 835 q 479 753 479 797 l 479 113 q 489 51 479 72 q 528 24 499 31 q 619 17 558 17 q 622 8 622 17 q 619 0 622 0 q 538 1 583 0 q 440 3 493 3 q 345 1 390 3 q 263 0 300 0 q 260 8 260 0 q 263 17 260 17 q 353 24 322 17 q 394 51 383 31 q 404 113 404 72 l 404 756 q 393 819 404 800 q 349 841 382 838 q 250 844 315 844 m 453 25 q 428 -64 433 -35 q 435 -108 422 -93 q 483 -144 449 -124 q 535 -186 513 -161 q 558 -251 558 -211 q 544 -310 558 -281 q 500 -361 531 -340 q 421 -382 469 -382 q 360 -369 386 -382 q 335 -332 335 -357 q 347 -304 335 -314 q 374 -294 358 -294 q 398 -303 390 -294 q 412 -325 406 -312 q 428 -347 418 -337 q 461 -356 439 -356 q 513 -299 513 -356 q 487 -234 513 -262 q 393 -169 461 -206 q 371 -153 372 -158 q 379 -126 369 -147 q 397 -81 389 -103 q 414 -35 404 -60 q 436 26 424 -10 l 453 25 z "},"Ț":{"ha":878,"x_min":51,"x_max":828,"o":"m 250 844 q 123 803 163 844 q 68 654 83 761 q 60 651 68 651 q 51 654 51 651 q 58 703 54 671 q 64 772 61 735 q 69 842 67 808 q 71 899 71 876 q 79 906 71 906 q 88 899 88 906 q 101 878 88 885 q 131 870 114 872 q 161 868 149 868 q 440 864 281 864 q 597 866 539 864 q 708 868 654 868 q 780 874 754 868 q 813 903 806 881 q 821 908 814 908 q 828 903 828 908 q 824 847 826 882 q 819 774 821 813 q 817 703 818 736 q 815 654 815 671 q 807 651 815 651 q 799 654 799 651 q 763 803 799 761 q 631 844 726 844 q 533 840 565 844 q 490 816 500 835 q 479 753 479 797 l 479 113 q 489 51 479 72 q 528 24 499 31 q 619 17 558 17 q 622 8 622 17 q 619 0 622 0 q 538 1 583 0 q 440 3 493 3 q 345 1 390 3 q 263 0 300 0 q 260 8 260 0 q 263 17 260 17 q 353 24 322 17 q 394 51 383 31 q 404 113 404 72 l 404 756 q 393 819 404 800 q 349 841 382 838 q 250 844 315 844 m 432 -382 q 422 -380 426 -385 q 421 -372 417 -375 q 467 -308 453 -342 q 481 -240 481 -275 q 473 -199 481 -210 q 454 -181 465 -187 l 476 -176 q 467 -210 481 -199 q 435 -221 454 -221 q 398 -208 411 -221 q 385 -172 385 -194 q 400 -134 385 -144 q 438 -124 415 -124 q 492 -149 474 -124 q 511 -222 511 -174 q 490 -308 511 -269 q 432 -382 469 -346 z "},"Ṭ":{"ha":878,"x_min":51,"x_max":828,"o":"m 250 844 q 123 803 163 844 q 68 654 83 761 q 60 651 68 651 q 51 654 51 651 q 58 703 54 671 q 64 772 61 735 q 69 842 67 808 q 71 899 71 876 q 79 906 71 906 q 88 899 88 906 q 101 878 88 885 q 131 870 114 872 q 161 868 149 868 q 440 864 281 864 q 597 866 539 864 q 708 868 654 868 q 780 874 754 868 q 813 903 806 881 q 821 908 814 908 q 828 903 828 908 q 824 847 826 882 q 819 774 821 813 q 817 703 818 736 q 815 654 815 671 q 807 651 815 651 q 799 654 799 651 q 763 803 799 761 q 631 844 726 844 q 533 840 565 844 q 490 816 500 835 q 479 753 479 797 l 479 113 q 489 51 479 72 q 528 24 499 31 q 619 17 558 17 q 622 8 622 17 q 619 0 622 0 q 538 1 583 0 q 440 3 493 3 q 345 1 390 3 q 263 0 300 0 q 260 8 260 0 q 263 17 260 17 q 353 24 322 17 q 394 51 383 31 q 404 113 404 72 l 404 756 q 393 819 404 800 q 349 841 382 838 q 250 844 315 844 m 449 -258 q 408 -244 422 -258 q 393 -206 393 -231 q 408 -167 393 -181 q 449 -153 422 -153 q 488 -167 474 -153 q 501 -206 501 -181 q 449 -258 501 -258 z "},"Ṯ":{"ha":878,"x_min":51,"x_max":828,"o":"m 250 844 q 123 803 163 844 q 68 654 83 761 q 60 651 68 651 q 51 654 51 651 q 58 703 54 671 q 64 772 61 735 q 69 842 67 808 q 71 899 71 876 q 79 906 71 906 q 88 899 88 906 q 101 878 88 885 q 131 870 114 872 q 161 868 149 868 q 440 864 281 864 q 597 866 539 864 q 708 868 654 868 q 780 874 754 868 q 813 903 806 881 q 821 908 814 908 q 828 903 828 908 q 824 847 826 882 q 819 774 821 813 q 817 703 818 736 q 815 654 815 671 q 807 651 815 651 q 799 654 799 651 q 763 803 799 761 q 631 844 726 844 q 533 840 565 844 q 490 816 500 835 q 479 753 479 797 l 479 113 q 489 51 479 72 q 528 24 499 31 q 619 17 558 17 q 622 8 622 17 q 619 0 622 0 q 538 1 583 0 q 440 3 493 3 q 345 1 390 3 q 263 0 300 0 q 260 8 260 0 q 263 17 260 17 q 353 24 322 17 q 394 51 383 31 q 404 113 404 72 l 404 756 q 393 819 404 800 q 349 841 382 838 q 250 844 315 844 m 272 -154 q 266 -145 268 -154 q 266 -127 264 -136 q 272 -118 268 -118 l 621 -118 q 628 -127 626 -118 q 628 -145 629 -136 q 621 -154 626 -154 l 272 -154 z "},"U":{"ha":968,"x_min":36,"x_max":938,"o":"m 794 722 q 766 820 794 789 q 676 851 738 851 q 672 860 672 851 q 676 868 672 868 q 740 866 707 868 q 811 864 772 864 q 876 866 843 864 q 935 868 908 868 q 938 860 938 868 q 935 851 938 851 q 852 820 879 851 q 825 722 825 789 l 825 325 q 785 139 825 215 q 672 22 744 63 q 501 -18 599 -18 q 322 23 399 -18 q 204 138 246 64 q 163 313 163 213 l 163 756 q 153 816 163 796 q 118 844 144 836 q 39 851 92 851 q 36 860 36 851 q 39 868 36 868 q 113 866 72 868 q 199 864 153 864 q 287 866 246 864 q 358 868 328 868 q 363 860 363 868 q 358 851 363 851 q 279 843 306 851 q 244 814 253 835 q 236 753 236 793 l 236 361 q 313 110 236 197 q 526 22 389 22 q 724 103 654 22 q 794 324 794 183 l 794 722 z "},"Ú":{"ha":968,"x_min":36,"x_max":938,"o":"m 794 722 q 766 820 794 789 q 676 851 738 851 q 672 860 672 851 q 676 868 672 868 q 740 866 707 868 q 811 864 772 864 q 876 866 843 864 q 935 868 908 868 q 938 860 938 868 q 935 851 938 851 q 852 820 879 851 q 825 722 825 789 l 825 325 q 785 139 825 215 q 672 22 744 63 q 501 -18 599 -18 q 322 23 399 -18 q 204 138 246 64 q 163 313 163 213 l 163 756 q 153 816 163 796 q 118 844 144 836 q 39 851 92 851 q 36 860 36 851 q 39 868 36 868 q 113 866 72 868 q 199 864 153 864 q 287 866 246 864 q 358 868 328 868 q 363 860 363 868 q 358 851 363 851 q 279 843 306 851 q 244 814 253 835 q 236 753 236 793 l 236 361 q 313 110 236 197 q 526 22 389 22 q 724 103 654 22 q 794 324 794 183 l 794 722 m 385 943 q 376 948 379 940 q 378 957 374 956 q 503 1022 447 989 q 617 1086 560 1056 q 636 1084 621 1089 q 667 1072 651 1079 q 692 1058 683 1064 q 693 1050 700 1051 q 528 1001 600 1028 q 385 943 456 975 z "},"Ʉ":{"ha":968,"x_min":36,"x_max":938,"o":"m 67 422 q 61 428 63 422 q 61 441 60 435 q 67 447 63 447 l 911 447 q 916 441 915 447 q 916 428 917 435 q 911 422 915 422 l 67 422 m 794 722 q 766 820 794 789 q 676 851 738 851 q 672 860 672 851 q 676 868 672 868 q 740 866 707 868 q 811 864 772 864 q 876 866 843 864 q 935 868 908 868 q 938 860 938 868 q 935 851 938 851 q 852 820 879 851 q 825 722 825 789 l 825 325 q 785 139 825 215 q 672 22 744 63 q 501 -18 599 -18 q 322 23 399 -18 q 204 138 246 64 q 163 313 163 213 l 163 756 q 153 816 163 796 q 118 844 144 836 q 39 851 92 851 q 36 860 36 851 q 39 868 36 868 q 113 866 72 868 q 199 864 153 864 q 287 866 246 864 q 358 868 328 868 q 363 860 363 868 q 358 851 363 851 q 279 843 306 851 q 244 814 253 835 q 236 753 236 793 l 236 361 q 313 110 236 197 q 526 22 389 22 q 724 103 654 22 q 794 324 794 183 l 794 722 z "},"Ŭ":{"ha":968,"x_min":36,"x_max":938,"o":"m 794 722 q 766 820 794 789 q 676 851 738 851 q 672 860 672 851 q 676 868 672 868 q 740 866 707 868 q 811 864 772 864 q 876 866 843 864 q 935 868 908 868 q 938 860 938 868 q 935 851 938 851 q 852 820 879 851 q 825 722 825 789 l 825 325 q 785 139 825 215 q 672 22 744 63 q 501 -18 599 -18 q 322 23 399 -18 q 204 138 246 64 q 163 313 163 213 l 163 756 q 153 816 163 796 q 118 844 144 836 q 39 851 92 851 q 36 860 36 851 q 39 868 36 868 q 113 866 72 868 q 199 864 153 864 q 287 866 246 864 q 358 868 328 868 q 363 860 363 868 q 358 851 363 851 q 279 843 306 851 q 244 814 253 835 q 236 753 236 793 l 236 361 q 313 110 236 197 q 526 22 389 22 q 724 103 654 22 q 794 324 794 183 l 794 722 m 519 958 q 426 995 463 958 q 376 1100 389 1032 q 383 1106 375 1106 q 392 1104 390 1107 q 440 1035 403 1064 q 519 1006 476 1006 q 598 1035 561 1006 q 646 1104 635 1064 q 655 1106 647 1107 q 661 1100 663 1106 q 613 995 649 1032 q 519 958 576 958 z "},"Ǔ":{"ha":968,"x_min":36,"x_max":938,"o":"m 794 722 q 766 820 794 789 q 676 851 738 851 q 672 860 672 851 q 676 868 672 868 q 740 866 707 868 q 811 864 772 864 q 876 866 843 864 q 935 868 908 868 q 938 860 938 868 q 935 851 938 851 q 852 820 879 851 q 825 722 825 789 l 825 325 q 785 139 825 215 q 672 22 744 63 q 501 -18 599 -18 q 322 23 399 -18 q 204 138 246 64 q 163 313 163 213 l 163 756 q 153 816 163 796 q 118 844 144 836 q 39 851 92 851 q 36 860 36 851 q 39 868 36 868 q 113 866 72 868 q 199 864 153 864 q 287 866 246 864 q 358 868 328 868 q 363 860 363 868 q 358 851 363 851 q 279 843 306 851 q 244 814 253 835 q 236 753 236 793 l 236 361 q 313 110 236 197 q 526 22 389 22 q 724 103 654 22 q 794 324 794 183 l 794 722 m 503 954 l 360 1082 q 362 1089 357 1085 q 368 1092 367 1093 l 519 1006 l 669 1092 q 676 1090 672 1094 q 676 1082 681 1085 l 535 954 q 519 949 529 949 q 503 954 510 949 z "},"Û":{"ha":968,"x_min":36,"x_max":938,"o":"m 794 722 q 766 820 794 789 q 676 851 738 851 q 672 860 672 851 q 676 868 672 868 q 740 866 707 868 q 811 864 772 864 q 876 866 843 864 q 935 868 908 868 q 938 860 938 868 q 935 851 938 851 q 852 820 879 851 q 825 722 825 789 l 825 325 q 785 139 825 215 q 672 22 744 63 q 501 -18 599 -18 q 322 23 399 -18 q 204 138 246 64 q 163 313 163 213 l 163 756 q 153 816 163 796 q 118 844 144 836 q 39 851 92 851 q 36 860 36 851 q 39 868 36 868 q 113 866 72 868 q 199 864 153 864 q 287 866 246 864 q 358 868 328 868 q 363 860 363 868 q 358 851 363 851 q 279 843 306 851 q 244 814 253 835 q 236 753 236 793 l 236 361 q 313 110 236 197 q 526 22 389 22 q 724 103 654 22 q 794 324 794 183 l 794 722 m 361 958 l 504 1088 q 521 1094 511 1094 q 536 1088 531 1094 l 678 958 q 678 952 682 957 q 671 949 674 947 l 521 1035 l 369 949 q 363 952 368 947 q 361 958 358 957 z "},"Ȕ":{"ha":968,"x_min":36,"x_max":938,"o":"m 658 944 q 567 1001 611 976 q 464 1050 522 1026 q 467 1059 457 1053 q 493 1071 476 1065 q 525 1079 510 1076 q 544 1078 540 1082 q 603 1018 574 1047 q 669 957 633 989 q 668 947 672 954 q 658 944 664 940 m 496 944 q 405 1002 449 976 q 306 1050 361 1028 q 308 1059 299 1053 q 333 1071 317 1065 q 364 1079 350 1076 q 382 1078 378 1082 q 441 1018 411 1047 q 507 957 471 989 q 506 947 510 954 q 496 944 501 940 m 794 722 q 766 820 794 789 q 676 851 738 851 q 672 860 672 851 q 676 868 672 868 q 740 866 707 868 q 811 864 772 864 q 876 866 843 864 q 935 868 908 868 q 938 860 938 868 q 935 851 938 851 q 852 820 879 851 q 825 722 825 789 l 825 325 q 785 139 825 215 q 672 22 744 63 q 501 -18 599 -18 q 322 23 399 -18 q 204 138 246 64 q 163 313 163 213 l 163 756 q 153 816 163 796 q 118 844 144 836 q 39 851 92 851 q 36 860 36 851 q 39 868 36 868 q 113 866 72 868 q 199 864 153 864 q 287 866 246 864 q 358 868 328 868 q 363 860 363 868 q 358 851 363 851 q 279 843 306 851 q 244 814 253 835 q 236 753 236 793 l 236 361 q 313 110 236 197 q 526 22 389 22 q 724 103 654 22 q 794 324 794 183 l 794 722 z "},"Ü":{"ha":968,"x_min":36,"x_max":938,"o":"m 794 722 q 766 820 794 789 q 676 851 738 851 q 672 860 672 851 q 676 868 672 868 q 740 866 707 868 q 811 864 772 864 q 876 866 843 864 q 935 868 908 868 q 938 860 938 868 q 935 851 938 851 q 852 820 879 851 q 825 722 825 789 l 825 325 q 785 139 825 215 q 672 22 744 63 q 501 -18 599 -18 q 322 23 399 -18 q 204 138 246 64 q 163 313 163 213 l 163 756 q 153 816 163 796 q 118 844 144 836 q 39 851 92 851 q 36 860 36 851 q 39 868 36 868 q 113 866 72 868 q 199 864 153 864 q 287 866 246 864 q 358 868 328 868 q 363 860 363 868 q 358 851 363 851 q 279 843 306 851 q 244 814 253 835 q 236 753 236 793 l 236 361 q 313 110 236 197 q 526 22 389 22 q 724 103 654 22 q 794 324 794 183 l 794 722 m 399 1000 q 358 1014 372 1000 q 343 1053 343 1028 q 358 1092 343 1078 q 399 1106 372 1106 q 438 1092 424 1106 q 451 1053 451 1078 q 399 1000 451 1000 m 642 1000 q 601 1014 617 1000 q 586 1053 586 1028 q 601 1092 586 1078 q 642 1106 617 1106 q 696 1053 696 1106 q 642 1000 696 1000 z "},"Ǘ":{"ha":968,"x_min":36,"x_max":938,"o":"m 794 722 q 766 820 794 789 q 676 851 738 851 q 672 860 672 851 q 676 868 672 868 q 740 866 707 868 q 811 864 772 864 q 876 866 843 864 q 935 868 908 868 q 938 860 938 868 q 935 851 938 851 q 852 820 879 851 q 825 722 825 789 l 825 325 q 785 139 825 215 q 672 22 744 63 q 501 -18 599 -18 q 322 23 399 -18 q 204 138 246 64 q 163 313 163 213 l 163 756 q 153 816 163 796 q 118 844 144 836 q 39 851 92 851 q 36 860 36 851 q 39 868 36 868 q 113 866 72 868 q 199 864 153 864 q 287 866 246 864 q 358 868 328 868 q 363 860 363 868 q 358 851 363 851 q 279 843 306 851 q 244 814 253 835 q 236 753 236 793 l 236 361 q 313 110 236 197 q 526 22 389 22 q 724 103 654 22 q 794 324 794 183 l 794 722 m 367 1138 q 358 1143 361 1136 q 361 1153 356 1150 q 486 1217 429 1185 q 600 1281 543 1250 q 619 1279 604 1283 q 649 1267 633 1275 q 674 1253 665 1260 q 676 1244 683 1247 q 510 1196 583 1222 q 367 1138 438 1169 m 399 983 q 358 997 372 983 q 343 1038 343 1011 q 358 1075 343 1061 q 399 1089 372 1089 q 438 1075 424 1089 q 451 1038 451 1061 q 399 983 451 983 m 642 983 q 601 997 617 983 q 586 1038 586 1011 q 601 1075 586 1061 q 642 1089 617 1089 q 682 1075 668 1089 q 696 1038 696 1061 q 642 983 696 983 z "},"Ǚ":{"ha":968,"x_min":36,"x_max":938,"o":"m 794 722 q 766 820 794 789 q 676 851 738 851 q 672 860 672 851 q 676 868 672 868 q 740 866 707 868 q 811 864 772 864 q 876 866 843 864 q 935 868 908 868 q 938 860 938 868 q 935 851 938 851 q 852 820 879 851 q 825 722 825 789 l 825 325 q 785 139 825 215 q 672 22 744 63 q 501 -18 599 -18 q 322 23 399 -18 q 204 138 246 64 q 163 313 163 213 l 163 756 q 153 816 163 796 q 118 844 144 836 q 39 851 92 851 q 36 860 36 851 q 39 868 36 868 q 113 866 72 868 q 199 864 153 864 q 287 866 246 864 q 358 868 328 868 q 363 860 363 868 q 358 851 363 851 q 279 843 306 851 q 244 814 253 835 q 236 753 236 793 l 236 361 q 313 110 236 197 q 526 22 389 22 q 724 103 654 22 q 794 324 794 183 l 794 722 m 507 1133 l 364 1261 q 366 1268 361 1264 q 372 1271 371 1272 l 524 1185 l 672 1271 q 681 1269 676 1274 q 681 1261 685 1264 l 538 1133 q 523 1128 532 1128 q 507 1133 514 1128 m 399 983 q 358 997 372 983 q 343 1038 343 1011 q 358 1075 343 1061 q 399 1089 372 1089 q 438 1075 424 1089 q 451 1038 451 1061 q 399 983 451 983 m 642 983 q 601 997 617 983 q 586 1038 586 1011 q 601 1075 586 1061 q 642 1089 617 1089 q 682 1075 668 1089 q 696 1038 696 1061 q 642 983 696 983 z "},"Ǜ":{"ha":968,"x_min":36,"x_max":938,"o":"m 794 722 q 766 820 794 789 q 676 851 738 851 q 672 860 672 851 q 676 868 672 868 q 740 866 707 868 q 811 864 772 864 q 876 866 843 864 q 935 868 908 868 q 938 860 938 868 q 935 851 938 851 q 852 820 879 851 q 825 722 825 789 l 825 325 q 785 139 825 215 q 672 22 744 63 q 501 -18 599 -18 q 322 23 399 -18 q 204 138 246 64 q 163 313 163 213 l 163 756 q 153 816 163 796 q 118 844 144 836 q 39 851 92 851 q 36 860 36 851 q 39 868 36 868 q 113 866 72 868 q 199 864 153 864 q 287 866 246 864 q 358 868 328 868 q 363 860 363 868 q 358 851 363 851 q 279 843 306 851 q 244 814 253 835 q 236 753 236 793 l 236 361 q 313 110 236 197 q 526 22 389 22 q 724 103 654 22 q 794 324 794 183 l 794 722 m 690 1138 q 547 1196 619 1169 q 382 1244 475 1222 q 384 1253 375 1247 q 409 1267 393 1260 q 440 1279 425 1275 q 458 1281 454 1283 q 572 1217 515 1250 q 697 1153 629 1185 q 700 1143 703 1150 q 690 1138 697 1136 m 417 983 q 363 1038 363 983 q 376 1075 363 1061 q 417 1089 390 1089 q 456 1075 442 1089 q 471 1038 471 1061 q 417 983 471 983 m 660 983 q 619 997 633 983 q 606 1038 606 1011 q 619 1075 606 1061 q 660 1089 633 1089 q 701 1075 686 1089 q 715 1038 715 1061 q 701 997 715 1011 q 660 983 686 983 z "},"Ǖ":{"ha":968,"x_min":36,"x_max":938,"o":"m 794 722 q 766 820 794 789 q 676 851 738 851 q 672 860 672 851 q 676 868 672 868 q 740 866 707 868 q 811 864 772 864 q 876 866 843 864 q 935 868 908 868 q 938 860 938 868 q 935 851 938 851 q 852 820 879 851 q 825 722 825 789 l 825 325 q 785 139 825 215 q 672 22 744 63 q 501 -18 599 -18 q 322 23 399 -18 q 204 138 246 64 q 163 313 163 213 l 163 756 q 153 816 163 796 q 118 844 144 836 q 39 851 92 851 q 36 860 36 851 q 39 868 36 868 q 113 866 72 868 q 199 864 153 864 q 287 866 246 864 q 358 868 328 868 q 363 860 363 868 q 358 851 363 851 q 279 843 306 851 q 244 814 253 835 q 236 753 236 793 l 236 361 q 313 110 236 197 q 526 22 389 22 q 724 103 654 22 q 794 324 794 183 l 794 722 m 399 983 q 358 997 372 983 q 343 1038 343 1011 q 358 1075 343 1061 q 399 1089 372 1089 q 438 1075 424 1089 q 451 1038 451 1061 q 399 983 451 983 m 642 983 q 601 997 617 983 q 586 1038 586 1011 q 601 1075 586 1061 q 642 1089 617 1089 q 682 1075 668 1089 q 696 1038 696 1061 q 642 983 696 983 m 361 1168 q 355 1177 357 1168 q 355 1195 353 1186 q 361 1204 357 1204 l 678 1204 q 685 1195 683 1204 q 685 1177 686 1186 q 678 1168 683 1168 l 361 1168 z "},"Ụ":{"ha":968,"x_min":36,"x_max":938,"o":"m 794 722 q 766 820 794 789 q 676 851 738 851 q 672 860 672 851 q 676 868 672 868 q 740 866 707 868 q 811 864 772 864 q 876 866 843 864 q 935 868 908 868 q 938 860 938 868 q 935 851 938 851 q 852 820 879 851 q 825 722 825 789 l 825 325 q 785 139 825 215 q 672 22 744 63 q 501 -18 599 -18 q 322 23 399 -18 q 204 138 246 64 q 163 313 163 213 l 163 756 q 153 816 163 796 q 118 844 144 836 q 39 851 92 851 q 36 860 36 851 q 39 868 36 868 q 113 866 72 868 q 199 864 153 864 q 287 866 246 864 q 358 868 328 868 q 363 860 363 868 q 358 851 363 851 q 279 843 306 851 q 244 814 253 835 q 236 753 236 793 l 236 361 q 313 110 236 197 q 526 22 389 22 q 724 103 654 22 q 794 324 794 183 l 794 722 m 486 -258 q 445 -244 460 -258 q 431 -206 431 -231 q 445 -167 431 -181 q 486 -153 460 -153 q 525 -167 511 -153 q 539 -206 539 -181 q 486 -258 539 -258 z "},"Ù":{"ha":968,"x_min":36,"x_max":938,"o":"m 794 722 q 766 820 794 789 q 676 851 738 851 q 672 860 672 851 q 676 868 672 868 q 740 866 707 868 q 811 864 772 864 q 876 866 843 864 q 935 868 908 868 q 938 860 938 868 q 935 851 938 851 q 852 820 879 851 q 825 722 825 789 l 825 325 q 785 139 825 215 q 672 22 744 63 q 501 -18 599 -18 q 322 23 399 -18 q 204 138 246 64 q 163 313 163 213 l 163 756 q 153 816 163 796 q 118 844 144 836 q 39 851 92 851 q 36 860 36 851 q 39 868 36 868 q 113 866 72 868 q 199 864 153 864 q 287 866 246 864 q 358 868 328 868 q 363 860 363 868 q 358 851 363 851 q 279 843 306 851 q 244 814 253 835 q 236 753 236 793 l 236 361 q 313 110 236 197 q 526 22 389 22 q 724 103 654 22 q 794 324 794 183 l 794 722 m 657 943 q 513 1001 586 975 q 347 1050 440 1028 q 349 1058 340 1051 q 374 1072 358 1064 q 405 1084 390 1079 q 424 1086 419 1089 q 538 1022 481 1054 q 663 957 594 989 q 665 948 668 956 q 657 943 663 940 z "},"Ủ":{"ha":968,"x_min":36,"x_max":938,"o":"m 794 722 q 766 820 794 789 q 676 851 738 851 q 672 860 672 851 q 676 868 672 868 q 740 866 707 868 q 811 864 772 864 q 876 866 843 864 q 935 868 908 868 q 938 860 938 868 q 935 851 938 851 q 852 820 879 851 q 825 722 825 789 l 825 325 q 785 139 825 215 q 672 22 744 63 q 501 -18 599 -18 q 322 23 399 -18 q 204 138 246 64 q 163 313 163 213 l 163 756 q 153 816 163 796 q 118 844 144 836 q 39 851 92 851 q 36 860 36 851 q 39 868 36 868 q 113 866 72 868 q 199 864 153 864 q 287 866 246 864 q 358 868 328 868 q 363 860 363 868 q 358 851 363 851 q 279 843 306 851 q 244 814 253 835 q 236 753 236 793 l 236 361 q 313 110 236 197 q 526 22 389 22 q 724 103 654 22 q 794 324 794 183 l 794 722 m 524 904 q 517 902 525 903 q 508 904 510 901 q 506 957 499 933 q 528 1000 514 981 q 553 1039 542 1019 q 565 1081 565 1058 q 545 1123 565 1108 q 501 1138 525 1138 q 482 1135 492 1138 q 465 1129 472 1132 q 456 1133 463 1128 q 456 1140 450 1139 q 500 1160 478 1154 q 540 1167 522 1167 q 605 1144 583 1167 q 626 1094 626 1122 q 608 1042 626 1065 q 568 999 590 1019 q 531 956 546 978 q 524 904 517 933 z "},"Ư":{"ha":968,"x_min":36,"x_max":1013,"o":"m 825 722 l 825 325 q 783 139 825 215 q 667 22 742 63 q 492 -18 593 -18 q 317 22 390 -18 q 203 137 243 63 q 163 313 163 211 l 163 756 q 153 816 163 796 q 118 844 144 836 q 39 851 92 851 q 36 860 36 851 q 39 868 36 868 q 113 866 72 868 q 199 864 153 864 q 287 866 246 864 q 358 868 328 868 q 363 860 363 868 q 358 851 363 851 q 279 843 306 851 q 244 814 253 835 q 236 753 236 793 l 236 361 q 314 108 236 193 q 519 22 392 22 q 721 103 647 22 q 794 324 794 183 l 794 722 q 766 820 794 789 q 676 851 738 851 q 672 860 672 851 q 676 868 672 868 q 740 866 707 868 q 811 864 772 864 q 903 878 874 864 q 932 929 932 893 q 926 958 932 949 q 915 974 921 967 q 908 996 908 982 q 926 1033 908 1019 q 961 1046 943 1046 q 1000 1026 988 1046 q 1013 983 1013 1007 q 996 928 1013 953 q 952 885 979 904 q 894 854 925 867 q 866 838 882 850 q 838 800 850 826 q 825 722 825 774 z "},"Ứ":{"ha":968,"x_min":36,"x_max":1013,"o":"m 825 722 l 825 325 q 783 139 825 215 q 667 22 742 63 q 492 -18 593 -18 q 317 22 390 -18 q 203 137 243 63 q 163 313 163 211 l 163 756 q 153 816 163 796 q 118 844 144 836 q 39 851 92 851 q 36 860 36 851 q 39 868 36 868 q 113 866 72 868 q 199 864 153 864 q 287 866 246 864 q 358 868 328 868 q 363 860 363 868 q 358 851 363 851 q 279 843 306 851 q 244 814 253 835 q 236 753 236 793 l 236 361 q 314 108 236 193 q 519 22 392 22 q 721 103 647 22 q 794 324 794 183 l 794 722 q 766 820 794 789 q 676 851 738 851 q 672 860 672 851 q 676 868 672 868 q 740 866 707 868 q 811 864 772 864 q 903 878 874 864 q 932 929 932 893 q 926 958 932 949 q 915 974 921 967 q 908 996 908 982 q 926 1033 908 1019 q 961 1046 943 1046 q 1000 1026 988 1046 q 1013 983 1013 1007 q 996 928 1013 953 q 952 885 979 904 q 894 854 925 867 q 866 838 882 850 q 838 800 850 826 q 825 722 825 774 m 382 942 q 374 948 376 940 q 375 957 371 956 q 501 1022 444 989 q 614 1085 557 1054 q 633 1083 618 1088 q 665 1072 649 1079 q 689 1058 681 1064 q 690 1050 697 1051 q 525 1000 597 1026 q 382 942 453 974 z "},"Ự":{"ha":968,"x_min":36,"x_max":1013,"o":"m 825 722 l 825 325 q 783 139 825 215 q 667 22 742 63 q 492 -18 593 -18 q 317 22 390 -18 q 203 137 243 63 q 163 313 163 211 l 163 756 q 153 816 163 796 q 118 844 144 836 q 39 851 92 851 q 36 860 36 851 q 39 868 36 868 q 113 866 72 868 q 199 864 153 864 q 287 866 246 864 q 358 868 328 868 q 363 860 363 868 q 358 851 363 851 q 279 843 306 851 q 244 814 253 835 q 236 753 236 793 l 236 361 q 314 108 236 193 q 519 22 392 22 q 721 103 647 22 q 794 324 794 183 l 794 722 q 766 820 794 789 q 676 851 738 851 q 672 860 672 851 q 676 868 672 868 q 740 866 707 868 q 811 864 772 864 q 903 878 874 864 q 932 929 932 893 q 926 958 932 949 q 915 974 921 967 q 908 996 908 982 q 926 1033 908 1019 q 961 1046 943 1046 q 1000 1026 988 1046 q 1013 983 1013 1007 q 996 928 1013 953 q 952 885 979 904 q 894 854 925 867 q 866 838 882 850 q 838 800 850 826 q 825 722 825 774 m 515 -258 q 474 -244 489 -258 q 460 -206 460 -231 q 474 -167 460 -181 q 515 -153 489 -153 q 554 -167 540 -153 q 568 -206 568 -181 q 515 -258 568 -258 z "},"Ừ":{"ha":968,"x_min":36,"x_max":1013,"o":"m 825 722 l 825 325 q 783 139 825 215 q 667 22 742 63 q 492 -18 593 -18 q 317 22 390 -18 q 203 137 243 63 q 163 313 163 211 l 163 756 q 153 816 163 796 q 118 844 144 836 q 39 851 92 851 q 36 860 36 851 q 39 868 36 868 q 113 866 72 868 q 199 864 153 864 q 287 866 246 864 q 358 868 328 868 q 363 860 363 868 q 358 851 363 851 q 279 843 306 851 q 244 814 253 835 q 236 753 236 793 l 236 361 q 314 108 236 193 q 519 22 392 22 q 721 103 647 22 q 794 324 794 183 l 794 722 q 766 820 794 789 q 676 851 738 851 q 672 860 672 851 q 676 868 672 868 q 740 866 707 868 q 811 864 772 864 q 903 878 874 864 q 932 929 932 893 q 926 958 932 949 q 915 974 921 967 q 908 996 908 982 q 926 1033 908 1019 q 961 1046 943 1046 q 1000 1026 988 1046 q 1013 983 1013 1007 q 996 928 1013 953 q 952 885 979 904 q 894 854 925 867 q 866 838 882 850 q 838 800 850 826 q 825 722 825 774 m 654 943 q 510 1001 583 975 q 344 1050 438 1028 q 347 1058 338 1051 q 372 1072 356 1064 q 402 1084 388 1079 q 421 1086 417 1089 q 535 1022 478 1054 q 660 957 592 989 q 663 948 665 956 q 654 943 660 940 z "},"Ử":{"ha":968,"x_min":36,"x_max":1013,"o":"m 825 722 l 825 325 q 783 139 825 215 q 667 22 742 63 q 492 -18 593 -18 q 317 22 390 -18 q 203 137 243 63 q 163 313 163 211 l 163 756 q 153 816 163 796 q 118 844 144 836 q 39 851 92 851 q 36 860 36 851 q 39 868 36 868 q 113 866 72 868 q 199 864 153 864 q 287 866 246 864 q 358 868 328 868 q 363 860 363 868 q 358 851 363 851 q 279 843 306 851 q 244 814 253 835 q 236 753 236 793 l 236 361 q 314 108 236 193 q 519 22 392 22 q 721 103 647 22 q 794 324 794 183 l 794 722 q 766 820 794 789 q 676 851 738 851 q 672 860 672 851 q 676 868 672 868 q 740 866 707 868 q 811 864 772 864 q 903 878 874 864 q 932 929 932 893 q 926 958 932 949 q 915 974 921 967 q 908 996 908 982 q 926 1033 908 1019 q 961 1046 943 1046 q 1000 1026 988 1046 q 1013 983 1013 1007 q 996 928 1013 953 q 952 885 979 904 q 894 854 925 867 q 866 838 882 850 q 838 800 850 826 q 825 722 825 774 m 521 904 q 515 902 522 903 q 506 904 507 901 q 503 957 496 933 q 525 1000 511 981 q 551 1039 539 1019 q 563 1081 563 1058 q 542 1123 563 1108 q 499 1138 522 1138 q 479 1135 489 1138 q 463 1129 469 1132 q 453 1133 460 1128 q 453 1140 447 1139 q 497 1160 475 1154 q 538 1167 519 1167 q 602 1144 581 1167 q 624 1094 624 1122 q 606 1042 624 1065 q 565 999 588 1019 q 528 956 543 978 q 521 904 514 933 z "}}}
